<svg width="231" height="164" viewBox="0 0 231 164" fill="none" xmlns="http://www.w3.org/2000/svg">
<g clip-path="url(#clip0_1_1375)">
<rect x="12.7197" y="0.0560913" width="218.738" height="144.809" rx="20" transform="rotate(5.03926 12.7197 0.0560913)" fill="white" fill-opacity="0.1"/>
<path d="M30.139 30.2028C30.4543 26.6268 33.6089 23.9835 37.1848 24.2989L51.1307 25.5286C54.7067 25.8439 57.35 28.9984 57.0347 32.5744C56.7193 36.1504 53.5648 38.7937 49.9888 38.4783L36.0429 37.2486C32.467 36.9333 29.8237 33.7788 30.139 30.2028Z" fill="#25CAF7"/>
<path d="M72.2273 29.7711L68.5074 38.1035L66.7165 37.9456L71.3223 28.36L72.4663 28.4608L72.2273 29.7711ZM73.9482 38.5832L71.737 29.7278L71.7241 28.3954L72.8749 28.4969L75.7459 38.7418L73.9482 38.5832ZM74.1294 34.8935L74.0099 36.2486L68.6168 35.773L68.7363 34.4179L74.1294 34.8935ZM80.3035 37.9633C80.5714 37.9869 80.8166 37.9559 81.0392 37.8703C81.2667 37.7806 81.4547 37.6462 81.6031 37.4671C81.7561 37.2885 81.8504 37.0749 81.8861 36.8264L83.4318 36.9627C83.3807 37.4386 83.2018 37.8597 82.895 38.2261C82.5882 38.5925 82.1998 38.8717 81.73 39.0636C81.2605 39.2509 80.7534 39.3206 80.2087 39.2725C79.6458 39.2229 79.1639 39.0843 78.763 38.8568C78.3626 38.6248 78.0389 38.3263 77.792 37.9614C77.5451 37.5966 77.371 37.1855 77.2695 36.7282C77.1725 36.2713 77.1464 35.7886 77.1913 35.2801L77.2123 35.0418C77.2571 34.5334 77.3672 34.0627 77.5427 33.6298C77.723 33.1928 77.9667 32.8163 78.2736 32.5002C78.5806 32.1842 78.9513 31.9492 79.3857 31.7954C79.8206 31.637 80.3172 31.5824 80.8756 31.6317C81.4657 31.6837 81.9729 31.8474 82.3969 32.1227C82.8214 32.3934 83.1423 32.7488 83.3597 33.1889C83.5821 33.6248 83.6736 34.1178 83.6342 34.6679L82.0884 34.5316C82.0988 34.2581 82.0524 34.0069 81.949 33.7782C81.8506 33.5453 81.6982 33.3535 81.4919 33.2026C81.2902 33.0522 81.0395 32.9637 80.7399 32.9373C80.4085 32.9081 80.1278 32.9519 79.8979 33.0689C79.6684 33.1814 79.4821 33.3479 79.3392 33.5686C79.1966 33.7848 79.0854 34.0335 79.0057 34.3147C78.931 34.5918 78.8802 34.8824 78.8534 35.1865L78.8324 35.4249C78.8055 35.729 78.8045 36.0263 78.8292 36.3167C78.8539 36.6071 78.9176 36.8712 79.0201 37.109C79.1276 37.3426 79.2843 37.5372 79.4902 37.6926C79.6965 37.8434 79.9676 37.9337 80.3035 37.9633ZM89.0019 32.4855L88.8962 33.684L84.7424 33.3177L84.8481 32.1192L89.0019 32.4855ZM86.2057 30.4204L87.8468 30.5651L87.2175 37.7014C87.1975 37.9284 87.2139 38.106 87.2666 38.2342C87.3243 38.3582 87.4104 38.4459 87.5248 38.4971C87.6392 38.5484 87.7759 38.581 87.9348 38.5951C88.0483 38.6051 88.1578 38.6079 88.2634 38.6034C88.369 38.599 88.4542 38.5928 88.519 38.5848L88.4153 39.8384C88.2755 39.8672 88.1134 39.8895 87.929 39.9053C87.7492 39.9214 87.5435 39.9193 87.312 39.8989C86.9352 39.8657 86.6073 39.7704 86.3284 39.6132C86.0499 39.4513 85.8423 39.2112 85.7057 38.8926C85.5691 38.574 85.523 38.1628 85.5674 37.6589L86.2057 30.4204ZM92.5234 32.796L91.8737 40.1639L90.2258 40.0186L90.8755 32.6507L92.5234 32.796ZM90.9371 30.7072C90.9591 30.4575 91.059 30.2582 91.2369 30.1091C91.4197 29.956 91.6586 29.8924 91.9537 29.9184C92.2442 29.9441 92.466 30.0483 92.6192 30.231C92.7728 30.4093 92.8385 30.6232 92.8165 30.8729C92.7949 31.1181 92.6929 31.3149 92.5105 31.4636C92.3281 31.6122 92.0917 31.6737 91.8011 31.648C91.5061 31.622 91.2817 31.5199 91.1282 31.3417C90.9792 31.1638 90.9155 30.9523 90.9371 30.7072ZM96.6811 39.2771L99.0207 33.3689L100.723 33.519L97.513 40.6612L96.4507 40.5675L96.6811 39.2771ZM95.8338 33.0879L97.135 39.3446L97.1112 40.6257L96.0489 40.5321L94.1246 32.9372L95.8338 33.0879ZM104.727 41.4345C104.182 41.3865 103.697 41.2545 103.273 41.0387C102.853 40.8186 102.503 40.5339 102.222 40.1843C101.947 39.8352 101.746 39.4355 101.621 38.9853C101.496 38.5351 101.456 38.058 101.501 37.5541L101.525 37.2817C101.575 36.7052 101.705 36.1905 101.915 35.7378C102.124 35.285 102.393 34.9061 102.722 34.6011C103.051 34.2916 103.428 34.0663 103.852 33.9253C104.276 33.7843 104.726 33.7348 105.203 33.7768C105.73 33.8233 106.183 33.9524 106.562 34.1643C106.941 34.3762 107.246 34.6547 107.476 34.9998C107.712 35.3408 107.874 35.7371 107.962 36.1886C108.055 36.6406 108.078 37.1321 108.031 37.6633L107.969 38.3647L102.276 37.8627L102.38 36.6846L106.452 37.0437L106.464 36.9143C106.481 36.6185 106.446 36.3363 106.36 36.068C106.278 35.8 106.135 35.577 105.932 35.3989C105.728 35.2208 105.444 35.1157 105.081 35.0837C104.809 35.0596 104.561 35.0972 104.337 35.1965C104.118 35.2915 103.929 35.4418 103.769 35.6473C103.609 35.8528 103.476 36.1065 103.372 36.4084C103.273 36.7062 103.206 37.0457 103.172 37.427L103.148 37.6994C103.12 38.0217 103.137 38.3252 103.199 38.6097C103.265 38.8901 103.376 39.14 103.53 39.3595C103.685 39.579 103.88 39.7586 104.114 39.8982C104.349 40.0333 104.624 40.1147 104.937 40.1423C105.332 40.1771 105.691 40.1287 106.013 39.9971C106.336 39.8654 106.624 39.6643 106.876 39.3938L107.667 40.3076C107.488 40.5251 107.262 40.7293 106.989 40.9203C106.716 41.1067 106.39 41.2495 106.011 41.3487C105.636 41.4484 105.208 41.477 104.727 41.4345Z" fill="white"/>
<rect x="122.354" y="31.809" width="27" height="13" rx="6.5" transform="rotate(5.03926 122.354 31.809)" fill="#0940B7"/>
<path d="M167.992 36.8841L167.118 46.7988L165.409 46.6481L161.588 39.1537L160.962 46.256L159.253 46.1053L160.127 36.1906L161.836 36.3413L165.669 43.8506L166.296 36.7346L167.992 36.8841ZM172.725 47.4305C172.18 47.3824 171.695 47.2505 171.27 47.0346C170.851 46.8146 170.501 46.5298 170.22 46.1803C169.944 45.8311 169.744 45.4314 169.619 44.9812C169.494 44.531 169.454 44.0539 169.498 43.55L169.522 43.2776C169.573 42.7011 169.703 42.1865 169.912 41.7337C170.122 41.2809 170.391 40.902 170.719 40.597C171.049 40.2875 171.425 40.0623 171.85 39.9212C172.274 39.7802 172.724 39.7307 173.201 39.7728C173.727 39.8192 174.18 39.9484 174.56 40.1602C174.939 40.3721 175.244 40.6506 175.474 40.9957C175.71 41.3367 175.871 41.733 175.96 42.1846C176.052 42.6365 176.075 43.1281 176.029 43.6592L175.967 44.3606L170.274 43.8586L170.378 42.6806L174.45 43.0396L174.461 42.9103C174.478 42.6144 174.444 42.3323 174.358 42.0639C174.276 41.7959 174.133 41.5729 173.929 41.3948C173.725 41.2167 173.442 41.1116 173.079 41.0796C172.806 41.0556 172.558 41.0932 172.334 41.1924C172.116 41.2875 171.926 41.4378 171.766 41.6432C171.606 41.8487 171.474 42.1024 171.37 42.4043C171.27 42.7021 171.204 43.0416 171.17 43.423L171.146 43.6953C171.118 44.0177 171.134 44.3211 171.196 44.6056C171.263 44.886 171.374 45.1359 171.528 45.3554C171.683 45.5749 171.877 45.7545 172.112 45.8941C172.347 46.0293 172.621 46.1106 172.935 46.1382C173.33 46.1731 173.688 46.1246 174.011 45.993C174.334 45.8613 174.621 45.6602 174.874 45.3897L175.665 46.3035C175.486 46.521 175.26 46.7253 174.987 46.9162C174.714 47.1026 174.388 47.2454 174.009 47.3447C173.634 47.4443 173.206 47.4729 172.725 47.4305ZM179.609 46.2533L181.817 40.6698L182.866 40.7623L182.429 42.4531L180.214 47.9536L179.275 47.8708L179.609 46.2533ZM179.114 40.4314L179.934 46.3094L179.901 47.926L178.853 47.8336L177.507 40.2897L179.114 40.4314ZM183.958 46.5955L185.747 41.0163L187.347 41.1574L184.709 48.35L183.66 48.2575L183.958 46.5955ZM183.043 40.7779L184.226 46.5917L184.287 48.3127L183.347 48.2299L182.109 42.418L181.974 40.6836L183.043 40.7779Z" fill="white"/>
<line x1="28.5946" y1="104.641" x2="196.68" y2="119.462" stroke="#324B55"/>
<line x1="38.4627" y1="61.555" x2="34.5727" y2="105.67" stroke="#324B55"/>
<line x1="64.504" y1="63.8514" x2="60.614" y2="107.966" stroke="#324B55"/>
<line x1="90.5454" y1="66.1477" x2="86.6554" y2="110.263" stroke="#324B55"/>
<line x1="116.587" y1="68.4439" x2="112.697" y2="112.559" stroke="#324B55"/>
<line x1="142.628" y1="70.7403" x2="138.738" y2="114.855" stroke="#324B55"/>
<line x1="168.67" y1="73.0366" x2="164.78" y2="117.151" stroke="#324B55"/>
<line x1="194.711" y1="75.3329" x2="190.821" y2="119.448" stroke="#324B55"/>
<path d="M31.6558 69.9242C31.9491 66.598 34.8833 64.1394 38.2095 64.4327V64.4327C41.5357 64.726 43.9943 67.6602 43.701 70.9864L40.5845 106.329L28.5393 105.267L31.6558 69.9242Z" fill="#25CAF7"/>
<path d="M40.3402 106.72C40.052 109.989 37.1686 112.405 33.8999 112.117V112.117C30.6312 111.828 28.215 108.945 28.5033 105.676L28.5506 105.139L40.3876 106.183L40.3402 106.72Z" fill="#0940B7"/>
<path d="M92.1701 114.182C91.8819 117.451 88.9984 119.867 85.7297 119.579V119.579C82.461 119.29 80.0449 116.407 80.3331 113.138L80.6335 109.732L92.4705 110.775L92.1701 114.182Z" fill="#0940B7"/>
<path d="M117.927 119.706C117.638 122.975 114.755 125.391 111.486 125.103V125.103C108.218 124.815 105.801 121.931 106.09 118.662L106.675 112.028L118.512 113.072L117.927 119.706Z" fill="#0940B7"/>
<path d="M143.272 129.893C142.984 133.162 140.101 135.578 136.832 135.29V135.29C133.563 135.001 131.147 132.118 131.435 128.849L132.716 114.324L144.553 115.368L143.272 129.893Z" fill="#0940B7"/>
<path d="M169.82 126.451C169.532 129.719 166.648 132.136 163.38 131.847V131.847C160.111 131.559 157.695 128.676 157.983 125.407L158.758 116.621L170.595 117.664L169.82 126.451Z" fill="#0940B7"/>
<path d="M196.051 126.595C195.763 129.864 192.879 132.28 189.611 131.992V131.992C186.342 131.704 183.926 128.82 184.214 125.551L184.799 118.917L196.636 119.961L196.051 126.595Z" fill="#0940B7"/>
<path d="M55.0189 102.594C55.3071 99.3253 58.1906 96.9092 61.4593 97.1974V97.1974C64.728 97.4857 67.1441 100.369 66.8559 103.638L66.429 108.479L54.592 107.435L55.0189 102.594Z" fill="#25CAF7"/>
<path d="M82.5909 86.7404C82.8842 83.4142 85.8184 80.9555 89.1446 81.2488V81.2488C92.4707 81.5421 94.9294 84.4763 94.6361 87.8025L92.598 110.915L80.5528 109.853L82.5909 86.7404Z" fill="#25CAF7"/>
<path d="M107.734 100.013C108.023 96.7448 110.906 94.3286 114.175 94.6169V94.6169C117.443 94.9051 119.86 97.7885 119.571 101.057L118.512 113.072L106.675 112.028L107.734 100.013Z" fill="#25CAF7"/>
<path d="M134.06 99.0818C134.349 95.8131 137.232 93.397 140.501 93.6852V93.6852C143.769 93.9734 146.186 96.8569 145.897 100.126L144.553 115.368L132.716 114.324L134.06 99.0818Z" fill="#25CAF7"/>
<path d="M160.228 99.9435C160.516 96.6748 163.4 94.2587 166.669 94.5469V94.5469C169.937 94.8351 172.353 97.7186 172.065 100.987L170.595 117.664L158.758 116.62L160.228 99.9435Z" fill="#25CAF7"/>
<path d="M186.522 96.9925C186.816 93.6663 189.75 91.2076 193.076 91.5009V91.5009C196.402 91.7942 198.861 94.7284 198.568 98.0546L196.625 120.088L184.579 119.026L186.522 96.9925Z" fill="#25CAF7"/>
<path d="M65.6542 117.266C65.366 120.534 62.4825 122.95 59.2138 122.662V122.662C55.9451 122.374 53.529 119.491 53.8172 116.222L54.592 107.435L66.429 108.479L65.6542 117.266Z" fill="#0940B7"/>
</g>
<defs>
<clipPath id="clip0_1_1375">
<rect x="12.7197" y="0.0560913" width="218.738" height="144.809" rx="20" transform="rotate(5.03926 12.7197 0.0560913)" fill="white"/>
</clipPath>
</defs>
</svg>
