<svg width="279" height="159" viewBox="0 0 279 159" fill="none" xmlns="http://www.w3.org/2000/svg">
<g filter="url(#filter0_d_0_1)">
<rect x="3" y="21.3831" width="264" height="132" rx="16" transform="rotate(-4.2105 3 21.3831)" fill="white" fill-opacity="0.1" shape-rendering="crispEdges"/>
<path d="M50.2881 36.4161L50.1745 34.8741L58.2762 34.2777L58.3897 35.8197L55.2512 36.0507L55.8852 44.6631L54.0606 44.7974L53.4266 36.185L50.2881 36.4161ZM59.7154 44.3811L59.1547 36.7653L60.8951 36.6372L60.9885 37.9065L61.0678 37.9007C61.1743 37.4508 61.3874 37.0945 61.707 36.8317C62.0297 36.5653 62.4092 36.4161 62.8455 36.3839C62.9447 36.3766 63.0558 36.3734 63.1788 36.3744C63.3049 36.3717 63.4099 36.3756 63.4937 36.3861L63.6153 38.0371C63.5373 38.0163 63.415 38.002 63.2482 37.9944C63.0845 37.9832 62.9267 37.9832 62.7746 37.9943C62.4474 38.0184 62.1584 38.1112 61.9078 38.2725C61.6602 38.4303 61.4711 38.6387 61.3406 38.8975C61.2101 39.1564 61.1568 39.4478 61.1807 39.7717L61.5103 44.2489L59.7154 44.3811ZM67.3177 43.9759C66.8351 44.0115 66.3941 43.9575 65.9947 43.8141C65.5984 43.6672 65.2753 43.4317 65.0255 43.1078C64.7789 42.7836 64.6373 42.372 64.6006 41.8729C64.5689 41.4432 64.6221 41.082 64.7601 40.7894C64.898 40.4967 65.098 40.256 65.3599 40.0672C65.6219 39.8785 65.9216 39.7284 66.259 39.6172C66.5995 39.5024 66.9534 39.4115 67.3207 39.3446C67.7635 39.2655 68.1224 39.1975 68.3974 39.1407C68.6722 39.0806 68.8694 39.0063 68.9892 38.9177C69.112 38.8256 69.1671 38.6936 69.1544 38.5217L69.1522 38.4919C69.1247 38.1184 68.9927 37.8373 68.7562 37.6487C68.5196 37.4601 68.1931 37.3811 67.7766 37.4117C67.337 37.4441 66.9953 37.5656 66.7516 37.7763C66.5112 37.9868 66.356 38.2259 66.286 38.4936L64.5926 38.379C64.6907 37.9065 64.8804 37.5037 65.1616 37.1706C65.4426 36.8342 65.7972 36.5721 66.2254 36.3844C66.6533 36.1933 67.1334 36.0782 67.6656 36.0391C68.0325 36.012 68.4009 36.0281 68.7708 36.0873C69.1408 36.1465 69.4834 36.2642 69.7988 36.4403C70.114 36.6132 70.3749 36.8615 70.5815 37.1853C70.7914 37.5088 70.915 37.9235 70.9522 38.4292L71.3275 43.5262L69.602 43.6532L69.525 42.6071L69.4655 42.6114C69.372 42.831 69.2329 43.0407 69.0482 43.2404C68.8665 43.4365 68.6311 43.6017 68.3419 43.736C68.0557 43.8668 67.7143 43.9467 67.3177 43.9759ZM67.6867 42.6228C68.047 42.5962 68.3541 42.5022 68.6081 42.3406C68.8618 42.1757 69.051 41.969 69.1756 41.7205C69.3035 41.4718 69.3571 41.207 69.3364 40.926L69.2704 40.0286C69.2176 40.079 69.1249 40.129 68.9923 40.1787C68.863 40.2281 68.7168 40.2737 68.5537 40.3157C68.3906 40.3576 68.229 40.3961 68.0687 40.4311C67.9084 40.4662 67.7694 40.4964 67.6516 40.5216C67.3866 40.5777 67.1513 40.6549 66.9458 40.7531C66.7404 40.8513 66.582 40.9793 66.4706 41.137C66.359 41.2914 66.3117 41.4844 66.3288 41.7157C66.3531 42.0463 66.4921 42.287 66.7458 42.4378C66.9995 42.5886 67.3131 42.6503 67.6867 42.6228ZM76.429 35.4936L76.5312 36.8819L72.0292 37.2133L71.927 35.825L76.429 35.4936ZM73.6132 43.3579L72.9996 35.0232C72.9619 34.5109 73.0362 34.0767 73.2227 33.7207C73.4125 33.3644 73.6813 33.0887 74.0292 32.8936C74.3771 32.6985 74.7709 32.5848 75.2105 32.5524C75.5212 32.5295 75.799 32.534 76.044 32.5658C76.2889 32.5976 76.4707 32.6291 76.5893 32.6603L76.3345 34.0748C76.2568 34.0573 76.1592 34.0412 76.0419 34.0266C75.9242 34.0087 75.7943 34.0049 75.6522 34.0154C75.3183 34.04 75.088 34.1384 74.9611 34.3105C74.8372 34.4792 74.7863 34.7122 74.8082 35.0097L75.413 43.2254L73.6132 43.3579ZM81.6921 35.1061L81.7943 36.4944L77.2923 36.8259L77.1901 35.4376L81.6921 35.1061ZM78.8763 42.9705L78.2627 34.6358C78.225 34.1234 78.2993 33.6892 78.4858 33.3332C78.6756 32.9769 78.9444 32.7012 79.2923 32.5061C79.6402 32.311 80.034 32.1973 80.4736 32.1649C80.7843 32.1421 81.0621 32.1465 81.3071 32.1783C81.552 32.2102 81.7338 32.2416 81.8524 32.2728L81.5976 33.6874C81.5199 33.6698 81.4223 33.6537 81.305 33.6391C81.1873 33.6212 81.0574 33.6175 80.9153 33.6279C80.5814 33.6525 80.3511 33.7509 80.2242 33.9231C80.1003 34.0917 80.0494 34.3248 80.0713 34.6223L80.6761 42.838L78.8763 42.9705ZM83.6584 42.6184L83.0978 35.0026L84.8926 34.8705L85.4533 42.4863L83.6584 42.6184ZM83.9206 33.8553C83.6363 33.8763 83.3848 33.8001 83.166 33.6267C82.9469 33.4501 82.8275 33.2279 82.8078 32.9602C82.7879 32.6891 82.8734 32.4519 83.0645 32.2484C83.2553 32.0416 83.4929 31.9277 83.7771 31.9068C84.0647 31.8856 84.3164 31.9635 84.5321 32.1403C84.7509 32.3136 84.8703 32.5358 84.8902 32.8069C84.91 33.0746 84.8244 33.3119 84.6336 33.5187C84.4458 33.722 84.2081 33.8342 83.9206 33.8553ZM90.6319 42.2546C89.8716 42.3105 89.2065 42.1917 88.6365 41.898C88.0699 41.604 87.6178 41.1737 87.2803 40.607C86.9459 40.0367 86.7503 39.3665 86.6936 38.5964C86.6366 37.8229 86.7351 37.1294 86.9891 36.5158C87.2428 35.8989 87.6285 35.4052 88.1462 35.0348C88.6671 34.6608 89.2993 34.4464 90.0431 34.3916C90.6612 34.3461 91.2166 34.4199 91.7094 34.6129C92.2052 34.8024 92.6105 35.0933 92.9252 35.4855C93.2396 35.8745 93.4369 36.3419 93.5169 36.8876L91.8014 37.0139C91.705 36.6521 91.5172 36.3586 91.2381 36.1332C90.962 35.9042 90.6074 35.8057 90.1744 35.8376C89.8075 35.8646 89.4925 35.9875 89.2295 36.2063C88.9662 36.4217 88.7704 36.7186 88.642 37.097C88.517 37.4751 88.4733 37.9203 88.511 38.4326C88.5492 38.9516 88.6581 39.3922 88.8377 39.7546C89.017 40.1136 89.2512 40.3838 89.5404 40.5652C89.8327 40.7431 90.1656 40.8183 90.5391 40.7908C90.8035 40.7713 91.0362 40.7044 91.2372 40.5899C91.4412 40.4718 91.6072 40.3117 91.7352 40.1095C91.8632 39.9074 91.9436 39.6671 91.9763 39.3889L93.6918 39.2626C93.6885 39.8046 93.565 40.2939 93.3213 40.7306C93.0774 41.1639 92.7277 41.5154 92.2723 41.7849C91.8166 42.051 91.2698 42.2076 90.6319 42.2546ZM104.427 35.4563L102.804 35.7553C102.746 35.5934 102.653 35.444 102.527 35.3071C102.404 35.1699 102.243 35.0638 102.045 34.9886C101.847 34.9135 101.609 34.8861 101.331 34.9066C100.957 34.9341 100.649 35.0382 100.407 35.2189C100.168 35.3994 100.059 35.6184 100.081 35.876C100.094 36.0977 100.189 36.2718 100.364 36.3985C100.543 36.5249 100.829 36.6185 101.222 36.6793L102.542 36.8613C103.274 36.9636 103.827 37.1705 104.203 37.4818C104.581 37.7929 104.792 38.2211 104.835 38.7662C104.867 39.2458 104.758 39.6792 104.507 40.0666C104.26 40.4504 103.899 40.7627 103.425 41.0037C102.951 41.2446 102.396 41.3885 101.762 41.4352C100.83 41.5038 100.065 41.364 99.4677 41.0158C98.8702 40.6644 98.4911 40.1422 98.3304 39.4495L100.068 39.1521C100.173 39.49 100.361 39.7371 100.631 39.8933C100.902 40.0495 101.244 40.1124 101.657 40.082C102.084 40.0506 102.419 39.9378 102.664 39.7436C102.912 39.5492 103.027 39.3231 103.008 39.0653C102.992 38.8471 102.894 38.6732 102.715 38.5435C102.54 38.4135 102.274 38.3234 101.918 38.2732L100.599 38.0961C99.857 37.9978 99.2977 37.7814 98.9208 37.4469C98.5436 37.1091 98.3363 36.6624 98.2987 36.1069C98.2608 35.6378 98.3582 35.2218 98.5907 34.8591C98.8263 34.4928 99.1685 34.1984 99.6174 33.9759C100.069 33.7499 100.599 33.6145 101.208 33.5697C102.1 33.504 102.816 33.6424 103.357 33.9848C103.9 34.3269 104.257 34.8174 104.427 35.4563ZM109.816 40.8422C109.073 40.897 108.416 40.7808 107.846 40.4937C107.277 40.2066 106.82 39.78 106.476 39.2137C106.135 38.6473 105.936 37.9707 105.878 37.184C105.82 36.3973 105.918 35.6972 106.172 35.0836C106.429 34.4698 106.819 33.9792 107.34 33.6118C107.861 33.2444 108.494 33.0333 109.237 32.9786C109.981 32.9238 110.638 33.04 111.207 33.3271C111.777 33.6141 112.232 34.0426 112.573 34.6124C112.917 35.1819 113.119 35.86 113.176 36.6467C113.234 37.4334 113.135 38.132 112.877 38.7425C112.623 39.3528 112.235 39.8416 111.714 40.209C111.193 40.5764 110.56 40.7875 109.816 40.8422ZM109.72 39.4036C110.124 39.3739 110.453 39.2384 110.707 38.997C110.962 38.7522 111.141 38.4366 111.246 38.05C111.354 37.6632 111.39 37.2385 111.356 36.7757C111.322 36.3096 111.223 35.8932 111.06 35.5263C110.9 35.1559 110.676 34.8683 110.388 34.6635C110.101 34.4587 109.755 34.3711 109.352 34.4008C108.939 34.4312 108.603 34.5689 108.346 34.8139C108.091 35.0586 107.91 35.376 107.803 35.7661C107.698 36.1527 107.663 36.579 107.697 37.0451C107.731 37.5078 107.828 37.9228 107.988 38.2899C108.152 38.6567 108.377 38.9425 108.665 39.1473C108.955 39.3486 109.307 39.434 109.72 39.4036ZM119.596 36.7523L119.271 32.3396L121.066 32.2074L121.627 39.8232L119.887 39.9513L119.787 38.5977L119.708 38.6036C119.567 39.0426 119.31 39.4121 118.937 39.7122C118.567 40.0119 118.096 40.1828 117.524 40.2249C117.025 40.2617 116.575 40.1834 116.176 39.9902C115.779 39.7934 115.457 39.4897 115.211 39.0791C114.965 38.6653 114.819 38.1542 114.774 37.546L114.417 32.6969L116.212 32.5648L116.549 37.1362C116.584 37.6188 116.745 37.9925 117.03 38.2573C117.315 38.5221 117.673 38.6387 118.103 38.6071C118.367 38.5876 118.619 38.5043 118.857 38.3571C119.095 38.2099 119.285 38.0033 119.424 37.7371C119.567 37.4673 119.625 37.1391 119.596 36.7523ZM123.473 39.6873L122.912 32.0715L124.652 31.9434L124.746 33.2127L124.825 33.2069C124.931 32.757 125.144 32.4007 125.464 32.1379C125.787 31.8715 126.166 31.7223 126.603 31.6902C126.702 31.6829 126.813 31.6797 126.936 31.6806C127.062 31.6779 127.167 31.6818 127.251 31.6923L127.372 33.3434C127.294 33.3225 127.172 33.3083 127.005 33.3006C126.842 33.2894 126.684 33.2894 126.532 33.3006C126.205 33.3247 125.916 33.4174 125.665 33.5787C125.417 33.7365 125.228 33.9449 125.098 34.2037C124.967 34.4626 124.914 34.754 124.938 35.0779L125.267 39.5552L123.473 39.6873ZM132.028 39.207C131.267 39.263 130.602 39.1441 130.032 38.8504C129.466 38.5565 129.014 38.1262 128.676 37.5595C128.342 36.9892 128.146 36.319 128.089 35.5488C128.032 34.7753 128.131 34.0818 128.385 33.4682C128.639 32.8513 129.024 32.3577 129.542 31.9872C130.063 31.6132 130.695 31.3988 131.439 31.3441C132.057 31.2986 132.612 31.3724 133.105 31.5654C133.601 31.7549 134.006 32.0457 134.321 32.438C134.635 32.8269 134.833 33.2943 134.913 33.8401L133.197 33.9664C133.101 33.6046 132.913 33.311 132.634 33.0856C132.358 32.8567 132.003 32.7582 131.57 32.7901C131.203 32.8171 130.888 32.94 130.625 33.1587C130.362 33.3742 130.166 33.6711 130.038 34.0494C129.913 34.4275 129.869 34.8728 129.907 35.3851C129.945 35.9041 130.054 36.3447 130.233 36.707C130.413 37.066 130.647 37.3363 130.936 37.5177C131.228 37.6956 131.561 37.7708 131.935 37.7433C132.199 37.7238 132.432 37.6568 132.633 37.5423C132.837 37.4243 133.003 37.2642 133.131 37.062C133.259 36.8598 133.339 36.6196 133.372 36.3414L135.088 36.2151C135.084 36.757 134.961 37.2463 134.717 37.683C134.473 38.1164 134.123 38.4678 133.668 38.7373C133.212 39.0035 132.666 39.1601 132.028 39.207ZM140.136 38.6101C139.372 38.6663 138.701 38.5562 138.122 38.2798C137.547 37.9998 137.088 37.5782 136.748 37.0151C136.407 36.4486 136.207 35.767 136.149 34.9704C136.091 34.187 136.189 33.4886 136.443 32.875C136.7 32.2579 137.086 31.7642 137.6 31.394C138.115 31.0205 138.735 30.8069 139.462 30.7534C139.932 30.7188 140.38 30.7623 140.808 30.8837C141.239 31.0015 141.626 31.2056 141.97 31.496C142.317 31.7862 142.601 32.1674 142.822 32.6397C143.042 33.1087 143.177 33.677 143.226 34.3447L143.267 34.8951L137.024 35.3546L136.935 34.1448L141.457 33.8119C141.429 33.4684 141.332 33.1681 141.167 32.9111C141.001 32.6507 140.782 32.4525 140.51 32.3164C140.24 32.18 139.934 32.1245 139.59 32.1498C139.223 32.1768 138.908 32.2898 138.643 32.4887C138.378 32.6843 138.179 32.9317 138.045 33.2307C137.913 33.5261 137.859 33.8442 137.881 34.1849L137.958 35.241C137.991 35.6839 138.1 36.0581 138.285 36.3635C138.47 36.6656 138.714 36.8902 139.018 37.0374C139.321 37.1812 139.667 37.2388 140.057 37.2101C140.319 37.1909 140.552 37.1371 140.758 37.0488C140.964 36.9572 141.14 36.833 141.284 36.6761C141.429 36.5192 141.533 36.3304 141.597 36.1097L143.286 36.1748C143.213 36.6255 143.04 37.0271 142.767 37.3795C142.497 37.7284 142.139 38.0107 141.693 38.2263C141.246 38.4386 140.727 38.5666 140.136 38.6101Z" fill="white"/>
<g filter="url(#filter1_i_0_1)">
<path d="M32.5378 136.584C29.7838 136.787 27.3698 134.717 27.3473 131.956C27.2794 123.602 28.5805 115.281 31.2094 107.327C34.362 97.7887 39.3626 88.9645 45.9255 81.3584C52.4885 73.7523 60.4853 67.5134 69.4594 62.9979C78.4335 58.4823 88.2091 55.7785 98.2281 55.0409C108.247 54.3034 118.313 55.5464 127.852 58.699C137.391 61.8517 146.215 66.8522 153.821 73.4152C161.427 79.9782 167.666 87.975 172.181 96.9491C175.947 104.432 178.452 112.473 179.609 120.747C179.991 123.482 177.906 125.882 175.152 126.085L166.051 126.755C163.297 126.958 160.923 124.884 160.481 122.158C159.546 116.388 157.733 110.784 155.097 105.545C151.711 98.8148 147.031 92.8172 141.327 87.895C135.622 82.9728 129.004 79.2224 121.85 76.8579C114.696 74.4934 107.147 73.5611 99.6323 74.1143C92.118 74.6675 84.7863 76.6953 78.0557 80.082C71.3252 83.4687 65.3276 88.1479 60.4053 93.8524C55.4831 99.557 51.7327 106.175 49.3682 113.329C47.5277 118.898 46.555 124.706 46.4752 130.551C46.4374 133.312 44.3921 135.711 41.6382 135.914L32.5378 136.584Z" fill="#0C64B0"/>
</g>
<g filter="url(#filter2_i_0_1)">
<path d="M54.6628 134.955C51.9089 135.158 49.4878 133.087 49.5391 130.326C49.6402 124.883 50.5592 119.476 52.2736 114.289C54.512 107.517 58.0624 101.252 62.7221 95.8515C67.3818 90.4512 73.0595 86.0215 79.4311 82.8155C85.8027 79.6094 92.7434 77.6898 99.8569 77.1661C106.97 76.6424 114.117 77.5249 120.89 79.7633C127.662 82.0017 133.927 85.5521 139.328 90.2118C144.728 94.8715 149.158 100.549 152.364 106.921C154.819 111.801 156.52 117.014 157.417 122.384C157.872 125.108 155.781 127.511 153.027 127.714L144.041 128.375C141.287 128.578 138.925 126.496 138.336 123.798C137.706 120.914 136.715 118.114 135.382 115.466C133.298 111.324 130.419 107.634 126.909 104.605C123.399 101.576 119.326 99.2682 114.924 97.8132C110.522 96.3583 105.876 95.7846 101.253 96.125C96.6289 96.4654 92.1174 97.7132 87.9759 99.7971C83.8343 101.881 80.1438 104.76 77.115 108.271C74.0862 111.781 71.7784 115.853 70.3235 120.255C69.393 123.071 68.8229 125.986 68.6219 128.931C68.4339 131.686 66.4027 134.091 63.6488 134.294L54.6628 134.955Z" fill="#0C64B0"/>
</g>
<g filter="url(#filter3_i_0_1)">
<path d="M76.7881 133.326C74.0342 133.529 71.5967 131.451 71.8232 128.699C72.0313 126.171 72.5384 123.671 73.338 121.251C74.6622 117.245 76.7624 113.539 79.5188 110.345C82.2753 107.15 85.6339 104.53 89.403 102.633C93.1722 100.737 97.2779 99.601 101.486 99.2912C105.694 98.9814 109.922 99.5035 113.928 100.828C117.934 102.152 121.64 104.252 124.835 107.008C128.029 109.765 130.65 113.123 132.546 116.893C133.692 119.169 134.559 121.568 135.135 124.038C135.763 126.727 133.656 129.14 130.902 129.343L121.649 130.024C118.895 130.227 116.567 128.024 115.325 125.558V125.558C114.567 124.05 113.519 122.707 112.241 121.604C110.963 120.501 109.481 119.661 107.878 119.132C106.276 118.602 104.585 118.393 102.901 118.517C101.218 118.641 99.5758 119.095 98.0682 119.854C96.5605 120.613 95.2171 121.661 94.1145 122.938C93.0119 124.216 92.1718 125.699 91.6422 127.301V127.301C90.7756 129.923 88.7951 132.442 86.0411 132.645L76.7881 133.326Z" fill="#0C64B0"/>
</g>
<g filter="url(#filter4_d_0_1)">
<mask id="path-7-inside-1_0_1" fill="white">
<path d="M32.5378 136.584C29.7838 136.787 27.3698 134.718 27.3473 131.956C27.2758 123.151 28.725 114.386 31.6436 106.051C35.1138 96.1415 40.5869 87.052 47.7221 79.349C54.8574 71.6459 63.502 65.4941 73.1177 61.2767C81.2048 57.7297 89.8332 55.6148 98.6183 55.0132C101.373 54.8246 103.621 57.0734 103.629 59.8348L103.657 68.9598C103.665 71.7212 101.429 73.9439 98.6789 74.1925C92.5208 74.7492 86.482 76.2988 80.7995 78.7911C73.5877 81.9542 67.1042 86.568 61.7528 92.3453C56.4014 98.1226 52.2965 104.94 49.6939 112.372C47.6431 118.229 46.5596 124.368 46.4752 130.551C46.4374 133.312 44.3921 135.711 41.6382 135.914L32.5378 136.584Z"/>
</mask>
<path d="M32.5378 136.584C29.7838 136.787 27.3698 134.718 27.3473 131.956C27.2758 123.151 28.725 114.386 31.6436 106.051C35.1138 96.1415 40.5869 87.052 47.7221 79.349C54.8574 71.6459 63.502 65.4941 73.1177 61.2767C81.2048 57.7297 89.8332 55.6148 98.6183 55.0132C101.373 54.8246 103.621 57.0734 103.629 59.8348L103.657 68.9598C103.665 71.7212 101.429 73.9439 98.6789 74.1925C92.5208 74.7492 86.482 76.2988 80.7995 78.7911C73.5877 81.9542 67.1042 86.568 61.7528 92.3453C56.4014 98.1226 52.2965 104.94 49.6939 112.372C47.6431 118.229 46.5596 124.368 46.4752 130.551C46.4374 133.312 44.3921 135.711 41.6382 135.914L32.5378 136.584Z" stroke="#2388FF" stroke-width="45" shape-rendering="crispEdges" mask="url(#path-7-inside-1_0_1)"/>
</g>
<g filter="url(#filter5_d_0_1)">
<path d="M54.6628 134.955C51.9089 135.158 49.4878 133.087 49.5391 130.326C49.6821 122.623 51.463 115.018 54.7855 108.025C58.1081 101.032 62.8786 94.8482 68.7598 89.8717C70.8678 88.0879 74.0027 88.6565 75.5851 90.9196L80.7484 98.3037C82.3308 100.567 81.7492 103.661 79.7322 105.547C76.5065 108.563 73.8641 112.168 71.9563 116.184C70.0484 120.199 68.9226 124.525 68.6219 128.931C68.4339 131.686 66.4027 134.091 63.6488 134.294L54.6628 134.955Z" fill="#2388FF"/>
</g>
<g filter="url(#filter6_d_0_1)">
<path d="M76.7881 133.326C74.0342 133.529 71.5967 131.451 71.8232 128.698C72.05 125.944 72.6313 123.23 73.5527 120.624C74.4732 118.02 77.5482 117.122 79.9776 118.435L89.3221 123.486C91.0985 124.446 91.7008 126.668 91.278 128.643V128.643C90.8551 130.617 89.3951 132.398 87.3813 132.547L76.7881 133.326Z" fill="#2388FF"/>
</g>
<g filter="url(#filter7_d_0_1)">
<rect x="197.608" y="36.1345" width="6" height="20" rx="3" transform="rotate(-4.2105 197.608 36.1345)" fill="#2388FF"/>
</g>
<path d="M213.022 34.7263L214.12 34.6455L214.471 39.4159C214.509 39.9236 214.423 40.3821 214.213 40.7916C214.003 41.1987 213.691 41.5303 213.275 41.7865C212.859 42.0402 212.361 42.1885 211.78 42.2312C211.202 42.2738 210.688 42.2 210.24 42.0099C209.791 41.8174 209.434 41.5352 209.166 41.1631C208.899 40.7888 208.747 40.3478 208.709 39.8401L208.358 35.0697L209.452 34.9891L209.797 39.671C209.821 39.9992 209.915 40.2855 210.078 40.5299C210.243 40.7741 210.464 40.9596 210.742 41.0863C211.019 41.2107 211.341 41.2594 211.707 41.2325C212.075 41.2054 212.387 41.11 212.643 40.9463C212.902 40.7801 213.093 40.5643 213.215 40.2989C213.341 40.0333 213.391 39.7364 213.367 39.4082L213.022 34.7263ZM219.807 36.1425C219.745 35.81 219.57 35.5617 219.283 35.3977C218.995 35.2314 218.643 35.1635 218.228 35.1941C217.93 35.216 217.677 35.2822 217.466 35.3926C217.256 35.5007 217.096 35.6406 216.988 35.8124C216.882 35.9816 216.836 36.1689 216.851 36.3743C216.864 36.5467 216.915 36.6925 217.005 36.8117C217.096 36.9308 217.212 37.0279 217.35 37.1032C217.491 37.1759 217.64 37.235 217.798 37.2803C217.955 37.3233 218.106 37.3573 218.25 37.3823L218.972 37.5143C219.208 37.554 219.45 37.6132 219.701 37.6921C219.951 37.771 220.186 37.8819 220.405 38.0248C220.625 38.1677 220.807 38.3513 220.952 38.5757C221.099 38.7999 221.184 39.0749 221.208 39.4007C221.238 39.8115 221.159 40.1841 220.97 40.5185C220.783 40.8527 220.496 41.1267 220.108 41.3404C219.723 41.5539 219.247 41.6815 218.68 41.7233C218.137 41.7632 217.661 41.7116 217.251 41.5685C216.842 41.4253 216.514 41.2038 216.266 40.904C216.018 40.6017 215.867 40.2331 215.811 39.798L216.909 39.7172C216.949 39.9777 217.05 40.1899 217.212 40.3536C217.376 40.5149 217.578 40.6294 217.818 40.6972C218.06 40.7624 218.321 40.7847 218.602 40.764C218.912 40.7412 219.183 40.6726 219.417 40.5581C219.653 40.441 219.834 40.29 219.96 40.105C220.087 39.9177 220.141 39.7059 220.124 39.4698C220.108 39.255 220.033 39.0836 219.901 38.9557C219.77 38.8276 219.598 38.7264 219.383 38.652C219.171 38.5774 218.933 38.5154 218.668 38.466L217.794 38.2954C217.201 38.18 216.724 37.9813 216.361 37.6994C216.001 37.4173 215.802 37.0236 215.765 36.5184C215.734 36.1005 215.821 35.7274 216.025 35.399C216.228 35.0707 216.517 34.8061 216.892 34.6052C217.266 34.402 217.697 34.2825 218.183 34.2467C218.674 34.2105 219.114 34.2648 219.502 34.4095C219.892 34.5541 220.207 34.7694 220.447 35.0557C220.686 35.3395 220.825 35.6759 220.863 36.0648L219.807 36.1425ZM223.218 41.2681L222.056 41.3536L224.132 33.9084L225.397 33.8153L228.541 40.8763L227.379 40.9618L224.891 35.1771L224.835 35.1813L223.218 41.2681ZM223.203 38.4135L226.972 38.136L227.039 39.0569L223.271 39.3343L223.203 38.4135ZM233.175 39.1678L233.147 38.7853C233.126 38.5114 233.165 38.257 233.261 38.022C233.36 37.7844 233.514 37.5891 233.724 37.436C233.935 37.2804 234.198 37.191 234.512 37.1679C234.833 37.1442 235.108 37.1929 235.335 37.3138C235.562 37.4348 235.74 37.6057 235.868 37.8265C235.998 38.0472 236.073 38.2945 236.093 38.5684L236.121 38.9508C236.141 39.2247 236.103 39.4803 236.007 39.7177C235.91 39.9527 235.757 40.1479 235.548 40.3034C235.341 40.4563 235.079 40.5445 234.763 40.5677C234.444 40.5912 234.17 40.5426 233.94 40.4218C233.71 40.2986 233.53 40.1279 233.4 39.9096C233.27 39.6889 233.195 39.4417 233.175 39.1678ZM233.972 38.7245L234 39.107C234.015 39.3101 234.077 39.4907 234.186 39.6488C234.295 39.807 234.47 39.8772 234.71 39.8594C234.949 39.8419 235.109 39.747 235.192 39.5748C235.274 39.4025 235.307 39.2149 235.293 39.0119L235.264 38.6294C235.249 38.4263 235.19 38.2455 235.086 38.0871C234.984 37.9284 234.81 37.8581 234.564 37.8762C234.328 37.8936 234.167 37.9885 234.08 38.1611C233.993 38.3337 233.957 38.5215 233.972 38.7245ZM229.221 35.2856L229.193 34.9031C229.173 34.6293 229.211 34.3736 229.308 34.1363C229.406 33.8987 229.561 33.7034 229.77 33.5503C229.982 33.397 230.245 33.3088 230.559 33.2857C230.88 33.2621 231.154 33.3107 231.381 33.4317C231.609 33.5526 231.786 33.7235 231.914 33.9444C232.042 34.1652 232.116 34.4126 232.136 34.6865L232.164 35.069C232.184 35.3428 232.146 35.5985 232.05 35.8358C231.956 36.0707 231.804 36.2658 231.594 36.4213C231.387 36.5742 231.126 36.6623 230.809 36.6856C230.488 36.7092 230.213 36.6607 229.983 36.5399C229.756 36.4166 229.577 36.2458 229.447 36.0275C229.317 35.8068 229.241 35.5595 229.221 35.2856ZM230.022 34.8421L230.05 35.2246C230.065 35.4277 230.126 35.6083 230.232 35.7667C230.341 35.9248 230.516 35.995 230.757 35.9773C230.993 35.9599 231.152 35.8651 231.235 35.6929C231.319 35.5205 231.354 35.3328 231.339 35.1297L231.311 34.7472C231.296 34.5442 231.236 34.3634 231.132 34.2049C231.028 34.0464 230.854 33.9761 230.611 33.994C230.375 34.0114 230.213 34.1064 230.126 34.279C230.042 34.4514 230.007 34.6391 230.022 34.8421ZM229.963 40.7715L234.416 33.1513L235.262 33.089L230.81 40.7092L229.963 40.7715Z" fill="white"/>
<path d="M212.206 55.2137C211.698 55.2511 211.243 55.1968 210.84 55.0507C210.44 54.9045 210.119 54.686 209.877 54.3953C209.635 54.1045 209.501 53.763 209.474 53.3709C209.449 53.0642 209.491 52.7774 209.6 52.5107C209.71 52.2414 209.87 52.0124 210.079 51.8237C210.289 51.6327 210.528 51.5035 210.799 51.4361L210.796 51.3936C210.428 51.3328 210.124 51.1605 209.885 50.8766C209.646 50.5928 209.513 50.256 209.487 49.8662C209.457 49.4957 209.531 49.158 209.708 48.853C209.887 48.5454 210.145 48.295 210.482 48.1016C210.819 47.9082 211.211 47.7951 211.657 47.7623C212.099 47.7298 212.499 47.7858 212.859 47.9302C213.22 48.0721 213.512 48.2821 213.735 48.5601C213.957 48.8357 214.083 49.1576 214.112 49.5257C214.138 49.9155 214.053 50.2683 213.855 50.5844C213.658 50.9004 213.386 51.115 213.041 51.2283L213.044 51.2708C213.319 51.298 213.572 51.391 213.802 51.5497C214.034 51.7059 214.225 51.9091 214.374 52.1592C214.525 52.4068 214.613 52.684 214.638 52.9908C214.664 53.3829 214.579 53.7405 214.382 54.0636C214.185 54.3867 213.898 54.65 213.521 54.8533C213.147 55.0566 212.708 55.1767 212.206 55.2137ZM212.14 54.3177C212.439 54.2956 212.696 54.2269 212.908 54.1116C213.12 53.9939 213.28 53.8409 213.387 53.6526C213.494 53.4619 213.54 53.2449 213.524 53.0016C213.503 52.7491 213.42 52.5309 213.276 52.3468C213.135 52.1626 212.95 52.0231 212.722 51.9283C212.494 51.8335 212.239 51.7965 211.956 51.8174C211.67 51.8384 211.42 51.9126 211.206 52.0399C210.993 52.1672 210.829 52.3323 210.716 52.5353C210.603 52.7383 210.556 52.966 210.577 53.2185C210.593 53.4619 210.666 53.6701 210.798 53.8432C210.932 54.0138 211.113 54.1417 211.342 54.2268C211.572 54.3097 211.837 54.34 212.14 54.3177ZM211.891 50.9426C212.132 50.9249 212.342 50.8607 212.521 50.7502C212.701 50.6397 212.837 50.4943 212.931 50.3141C213.027 50.1338 213.067 49.9278 213.053 49.6963C213.034 49.4698 212.965 49.2755 212.846 49.1133C212.73 48.951 212.575 48.8306 212.382 48.7523C212.188 48.6715 211.969 48.6402 211.723 48.6583C211.473 48.6767 211.257 48.7401 211.075 48.8485C210.895 48.9543 210.759 49.096 210.668 49.2736C210.577 49.4513 210.54 49.6534 210.56 49.8798C210.574 50.1114 210.641 50.3094 210.76 50.474C210.879 50.6385 211.035 50.7623 211.229 50.8454C211.425 50.9283 211.646 50.9607 211.891 50.9426ZM218.507 54.7498C217.999 54.7872 217.544 54.7329 217.142 54.5868C216.742 54.4406 216.421 54.2221 216.178 53.9313C215.936 53.6406 215.802 53.2991 215.775 52.907C215.75 52.6003 215.792 52.3135 215.901 52.0468C216.012 51.7775 216.172 51.5485 216.381 51.3598C216.59 51.1688 216.83 51.0396 217.1 50.9722L217.097 50.9297C216.729 50.8689 216.426 50.6966 216.186 50.4127C215.947 50.1289 215.814 49.7921 215.788 49.4023C215.758 49.0318 215.832 48.6941 216.009 48.3891C216.188 48.0815 216.446 47.8311 216.783 47.6377C217.12 47.4443 217.512 47.3312 217.958 47.2984C218.4 47.2659 218.8 47.3219 219.16 47.4663C219.522 47.6082 219.814 47.8182 220.036 48.0962C220.258 48.3718 220.384 48.6937 220.413 49.0618C220.44 49.4516 220.354 49.8044 220.157 50.1205C219.959 50.4365 219.688 50.6511 219.342 50.7644L219.345 50.8069C219.62 50.8341 219.873 50.9271 220.103 51.0858C220.335 51.242 220.526 51.4452 220.675 51.6953C220.826 51.9429 220.914 52.2201 220.939 52.5269C220.966 52.919 220.88 53.2766 220.683 53.5997C220.486 53.9228 220.199 54.1861 219.823 54.3894C219.448 54.5927 219.01 54.7128 218.507 54.7498ZM218.441 53.8538C218.741 53.8317 218.997 53.763 219.209 53.6477C219.421 53.53 219.581 53.377 219.688 53.1887C219.795 52.998 219.841 52.781 219.825 52.5377C219.804 52.2852 219.722 52.067 219.578 51.8829C219.436 51.6987 219.251 51.5592 219.023 51.4644C218.796 51.3696 218.54 51.3326 218.257 51.3535C217.971 51.3745 217.721 51.4487 217.508 51.576C217.294 51.7033 217.13 51.8684 217.017 52.0714C216.904 52.2744 216.858 52.5021 216.879 52.7546C216.894 52.998 216.968 53.2062 217.099 53.3793C217.233 53.5499 217.414 53.6778 217.644 53.7629C217.873 53.8458 218.139 53.8761 218.441 53.8538ZM218.192 50.4787C218.433 50.461 218.643 50.3968 218.823 50.2863C219.002 50.1758 219.139 50.0304 219.232 49.8502C219.328 49.6699 219.369 49.4639 219.354 49.2324C219.335 49.0059 219.266 48.8116 219.147 48.6494C219.031 48.4871 218.876 48.3667 218.683 48.2884C218.489 48.2076 218.27 48.1763 218.024 48.1944C217.774 48.2128 217.558 48.2762 217.376 48.3846C217.196 48.4904 217.061 48.6321 216.969 48.8097C216.878 48.9874 216.842 49.1895 216.861 49.4159C216.875 49.6475 216.942 49.8455 217.061 50.0101C217.18 50.1746 217.336 50.2984 217.53 50.3815C217.726 50.4644 217.947 50.4968 218.192 50.4787ZM226.036 52.7285L226.008 52.346C225.988 52.0721 226.026 51.8177 226.122 51.5827C226.221 51.3452 226.375 51.1498 226.585 50.9967C226.797 50.8411 227.06 50.7517 227.374 50.7286C227.695 50.705 227.969 50.7536 228.196 50.8746C228.423 50.9955 228.601 51.1664 228.729 51.3873C228.859 51.6079 228.934 51.8552 228.954 52.1291L228.983 52.5116C229.003 52.7855 228.965 53.0411 228.868 53.2784C228.771 53.5134 228.618 53.7087 228.409 53.8641C228.202 54.0171 227.94 54.1052 227.624 54.1285C227.305 54.1519 227.031 54.1033 226.801 53.9825C226.571 53.8594 226.391 53.6887 226.261 53.4703C226.131 53.2497 226.056 53.0024 226.036 52.7285ZM226.833 52.2853L226.861 52.6678C226.876 52.8708 226.938 53.0514 227.047 53.2095C227.156 53.3677 227.331 53.4379 227.572 53.4202C227.81 53.4026 227.971 53.3077 228.053 53.1355C228.135 52.9633 228.169 52.7756 228.154 52.5726L228.126 52.1901C228.111 51.9871 228.051 51.8063 227.947 51.6478C227.845 51.4891 227.671 51.4188 227.426 51.4369C227.19 51.4543 227.028 51.5493 226.941 51.7218C226.854 51.8944 226.818 52.0822 226.833 52.2853ZM222.083 48.8464L222.054 48.4639C222.034 48.19 222.072 47.9344 222.169 47.697C222.268 47.4595 222.422 47.2641 222.631 47.111C222.843 46.9578 223.106 46.8696 223.42 46.8464C223.741 46.8228 224.015 46.8715 224.243 46.9924C224.47 47.1134 224.648 47.2843 224.775 47.5051C224.903 47.726 224.977 47.9733 224.997 48.2472L225.026 48.6297C225.046 48.9036 225.008 49.1592 224.911 49.3966C224.817 49.6314 224.665 49.8265 224.456 49.982C224.249 50.1349 223.987 50.223 223.67 50.2463C223.349 50.27 223.074 50.2214 222.844 50.1006C222.617 49.9773 222.438 49.8065 222.308 49.5882C222.178 49.3675 222.103 49.1202 222.083 48.8464ZM222.883 48.4029L222.911 48.7853C222.926 48.9884 222.987 49.1691 223.094 49.3274C223.203 49.4855 223.377 49.5558 223.618 49.538C223.854 49.5206 224.014 49.4258 224.096 49.2536C224.181 49.0812 224.215 48.8935 224.2 48.6904L224.172 48.308C224.157 48.1049 224.098 47.9241 223.993 47.7656C223.889 47.6071 223.715 47.5368 223.472 47.5548C223.236 47.5721 223.075 47.6671 222.988 47.8397C222.903 48.0121 222.868 48.1998 222.883 48.4029ZM222.825 54.3322L227.277 46.712L228.124 46.6497L223.671 54.2699L222.825 54.3322Z" fill="white"/>
<g filter="url(#filter8_d_0_1)">
<rect x="199.958" y="68.0482" width="6" height="20" rx="3" transform="rotate(-4.2105 199.958 68.0482)" fill="#2388FF"/>
</g>
<path d="M216.905 68.8985L215.8 68.9798C215.74 68.7469 215.646 68.5449 215.517 68.374C215.388 68.2031 215.235 68.0612 215.059 67.9484C214.882 67.8356 214.687 67.755 214.475 67.7065C214.264 67.6579 214.044 67.6421 213.812 67.6592C213.394 67.6899 213.028 67.8225 212.713 68.057C212.4 68.2913 212.163 68.6185 212.002 69.0387C211.843 69.4587 211.785 69.9615 211.828 70.547C211.871 71.1373 212.003 71.6285 212.221 72.0207C212.442 72.4127 212.726 72.7004 213.072 72.8839C213.418 73.0673 213.797 73.1438 214.21 73.1134C214.439 73.0965 214.654 73.0499 214.855 72.9734C215.058 72.8943 215.239 72.7872 215.398 72.6521C215.556 72.517 215.687 72.3566 215.79 72.1711C215.894 71.9829 215.961 71.7715 215.989 71.5368L217.094 71.459C217.061 71.8199 216.971 72.1565 216.823 72.4689C216.677 72.7787 216.48 73.052 216.232 73.2886C215.985 73.5228 215.698 73.7113 215.369 73.8542C215.04 73.9971 214.676 74.0833 214.277 74.1126C213.649 74.1589 213.078 74.0513 212.565 73.79C212.052 73.5263 211.633 73.1263 211.309 72.5899C210.987 72.0534 210.798 71.3991 210.741 70.6271C210.684 69.8526 210.776 69.1776 211.019 68.6019C211.261 68.0238 211.617 67.568 212.086 67.2343C212.555 66.8983 213.103 66.7073 213.728 66.6612C214.113 66.6329 214.476 66.662 214.817 66.7484C215.16 66.8323 215.473 66.9707 215.756 67.1636C216.038 67.3541 216.278 67.5952 216.475 67.8869C216.672 68.1762 216.815 68.5134 216.905 68.8985ZM220.082 73.7066C219.737 73.732 219.421 73.6912 219.133 73.5842C218.845 73.4749 218.61 73.3034 218.429 73.0699C218.251 72.8361 218.148 72.541 218.122 72.1845C218.099 71.8776 218.14 71.6206 218.243 71.4136C218.347 71.2066 218.495 71.0378 218.687 70.9073C218.879 70.7769 219.097 70.673 219.34 70.5957C219.584 70.5185 219.833 70.455 220.088 70.4054C220.411 70.3436 220.674 70.2934 220.875 70.2549C221.076 70.214 221.22 70.1618 221.308 70.0983C221.396 70.0349 221.436 69.9394 221.426 69.8119L221.424 69.7871C221.402 69.4778 221.297 69.2446 221.109 69.0875C220.924 68.9302 220.661 68.8641 220.319 68.8893C219.962 68.9156 219.687 69.0154 219.493 69.1887C219.302 69.3595 219.174 69.5433 219.11 69.7403L218.098 69.5869C218.192 69.2477 218.345 68.9682 218.556 68.7485C218.77 68.5262 219.022 68.3581 219.313 68.2441C219.604 68.1277 219.913 68.0575 220.241 68.0333C220.458 68.0173 220.691 68.0264 220.938 68.0604C221.187 68.0919 221.423 68.1671 221.645 68.2861C221.87 68.4048 222.06 68.5843 222.215 68.8245C222.37 69.0623 222.463 69.3795 222.492 69.7762L222.758 73.3886L221.724 73.4647L221.669 72.721L221.626 72.7241C221.568 72.8661 221.475 73.0082 221.348 73.1505C221.221 73.2928 221.053 73.4156 220.844 73.5188C220.636 73.6219 220.382 73.6846 220.082 73.7066ZM220.25 72.8397C220.542 72.8182 220.788 72.7419 220.988 72.6109C221.189 72.4797 221.338 72.3169 221.432 72.1224C221.53 71.9253 221.57 71.7194 221.554 71.5045L221.503 70.8033C221.468 70.8439 221.397 70.8847 221.291 70.9257C221.187 70.9642 221.067 71.0003 220.932 71.034C220.797 71.0653 220.665 71.0952 220.536 71.1237C220.408 71.1498 220.3 71.1719 220.214 71.1902C220.01 71.2313 219.826 71.2888 219.66 71.3627C219.497 71.4364 219.369 71.5348 219.276 71.658C219.185 71.7786 219.147 71.9334 219.161 72.1223C219.18 72.3843 219.291 72.5756 219.495 72.6959C219.698 72.8138 219.95 72.8618 220.25 72.8397ZM224.989 69.9769L225.227 73.2068L224.168 73.2848L223.768 67.8449L224.784 67.7701L224.849 68.6555L224.917 68.6505C225.02 68.3533 225.199 68.1075 225.453 67.9131C225.71 67.7186 226.042 67.6063 226.45 67.5762C226.821 67.5489 227.152 67.6029 227.442 67.7382C227.732 67.8712 227.964 68.0843 228.14 68.3776C228.316 68.6709 228.421 69.0418 228.454 69.4904L228.708 72.9505L227.649 73.0285L227.404 69.6959C227.375 69.3016 227.25 69.001 227.028 68.7942C226.806 68.585 226.516 68.4936 226.157 68.5201C225.911 68.5381 225.697 68.6073 225.513 68.7277C225.332 68.8478 225.194 69.0147 225.098 69.2283C225.004 69.4393 224.968 69.6889 224.989 69.9769ZM231.72 72.8498C231.376 72.8752 231.059 72.8344 230.771 72.7274C230.483 72.6181 230.249 72.4466 230.068 72.2131C229.889 71.9793 229.787 71.6842 229.76 71.3277C229.738 71.0208 229.778 70.7638 229.882 70.5568C229.985 70.3497 230.133 70.181 230.325 70.0505C230.517 69.9201 230.735 69.8162 230.979 69.7389C231.222 69.6616 231.472 69.5982 231.727 69.5485C232.05 69.4868 232.312 69.4366 232.513 69.3981C232.714 69.3571 232.859 69.305 232.947 69.2415C233.035 69.1781 233.074 69.0826 233.065 68.9551L233.063 68.9303C233.04 68.621 232.935 68.3878 232.748 68.2307C232.563 68.0734 232.299 68.0073 231.957 68.0325C231.6 68.0588 231.325 68.1585 231.132 68.3319C230.94 68.5026 230.812 68.6865 230.748 68.8835L229.737 68.7301C229.83 68.3909 229.983 68.1114 230.195 67.8916C230.409 67.6694 230.661 67.5012 230.952 67.3873C231.242 67.2709 231.551 67.2007 231.88 67.1765C232.097 67.1605 232.329 67.1695 232.576 67.2036C232.825 67.2351 233.061 67.3103 233.283 67.4292C233.508 67.548 233.698 67.7275 233.854 67.9677C234.009 68.2055 234.101 68.5227 234.13 68.9194L234.396 72.5318L233.362 72.6079L233.307 71.8642L233.265 71.8673C233.206 72.0093 233.114 72.1514 232.986 72.2937C232.859 72.436 232.691 72.5588 232.483 72.6619C232.274 72.7651 232.02 72.8277 231.72 72.8498ZM231.888 71.9829C232.181 71.9613 232.427 71.8851 232.626 71.7541C232.828 71.6229 232.976 71.4601 233.071 71.2656C233.168 71.0685 233.209 70.8626 233.193 70.6477L233.141 69.9465C233.106 69.987 233.036 70.0278 232.929 70.0689C232.825 70.1074 232.706 70.1435 232.571 70.1772C232.435 70.2085 232.303 70.2384 232.175 70.2669C232.046 70.293 231.939 70.3151 231.852 70.3334C231.649 70.3744 231.464 70.4319 231.299 70.5058C231.136 70.5796 231.008 70.678 230.914 70.8012C230.824 70.9218 230.785 71.0766 230.799 71.2655C230.818 71.5275 230.93 71.7187 231.133 71.8391C231.337 71.957 231.588 72.005 231.888 71.9829ZM237.851 72.3843C237.412 72.4166 237.011 72.3333 236.65 72.1344C236.291 71.9329 235.998 71.6305 235.772 71.227C235.547 70.821 235.413 70.324 235.37 69.7361C235.327 69.1482 235.387 68.6381 235.553 68.2058C235.72 67.7733 235.968 67.4334 236.297 67.186C236.625 66.9387 237.008 66.799 237.444 66.7668C237.782 66.742 238.058 66.7787 238.271 66.8769C238.487 66.9725 238.657 67.0906 238.782 67.231C238.908 67.3712 239.008 67.4956 239.08 67.6043L239.144 67.5996L238.945 64.9045L240.004 64.8265L240.538 72.0796L239.504 72.1557L239.442 71.3093L239.353 71.3158C239.298 71.4362 239.216 71.5752 239.106 71.7328C238.999 71.8902 238.846 72.0321 238.646 72.1584C238.446 72.2846 238.181 72.3599 237.851 72.3843ZM238.018 71.464C238.323 71.4415 238.574 71.3423 238.772 71.1663C238.973 70.9877 239.117 70.7504 239.204 70.4544C239.294 70.1582 239.325 69.8188 239.297 69.4363C239.269 69.0586 239.19 68.732 239.061 68.4567C238.931 68.1814 238.756 67.9723 238.534 67.8296C238.312 67.6869 238.047 67.6269 237.737 67.6497C237.418 67.6732 237.159 67.7754 236.959 67.9563C236.758 68.1372 236.614 68.3745 236.527 68.6682C236.442 68.9617 236.412 69.2879 236.439 69.6468C236.465 70.0104 236.544 70.3334 236.674 70.6158C236.804 70.8982 236.981 71.1166 237.206 71.2709C237.433 71.4227 237.704 71.4871 238.018 71.464ZM243.641 71.9722C243.297 71.9976 242.98 71.9568 242.692 71.8498C242.404 71.7404 242.17 71.569 241.989 71.3354C241.81 71.1017 241.708 70.8066 241.681 70.4501C241.659 70.1431 241.699 69.8862 241.803 69.6791C241.906 69.4721 242.054 69.3034 242.246 69.1729C242.438 69.0425 242.656 68.9386 242.9 68.8613C243.143 68.784 243.392 68.7206 243.648 68.6709C243.971 68.6092 244.233 68.559 244.434 68.5205C244.635 68.4795 244.78 68.4273 244.868 68.3639C244.956 68.3005 244.995 68.205 244.985 68.0775L244.984 68.0527C244.961 67.7434 244.856 67.5102 244.669 67.3531C244.484 67.1958 244.22 67.1297 243.878 67.1549C243.521 67.1812 243.246 67.2809 243.052 67.4542C242.861 67.625 242.733 67.8089 242.669 68.0059L241.657 67.8525C241.751 67.5133 241.904 67.2338 242.116 67.014C242.329 66.7918 242.582 66.6236 242.872 66.5097C243.163 66.3933 243.472 66.3231 243.801 66.2989C244.018 66.2829 244.25 66.2919 244.497 66.326C244.746 66.3575 244.982 66.4327 245.204 66.5516C245.429 66.6704 245.619 66.8499 245.774 67.0901C245.93 67.3279 246.022 67.6451 246.051 68.0418L246.317 71.6542L245.283 71.7303L245.228 70.9866L245.186 70.9897C245.127 71.1317 245.034 71.2738 244.907 71.4161C244.78 71.5584 244.612 71.6812 244.404 71.7843C244.195 71.8875 243.941 71.9501 243.641 71.9722ZM243.809 71.1053C244.102 71.0837 244.348 71.0075 244.547 70.8765C244.749 70.7453 244.897 70.5825 244.992 70.388C245.089 70.1909 245.129 69.985 245.114 69.7701L245.062 69.0689C245.027 69.1094 244.956 69.1502 244.85 69.1913C244.746 69.2298 244.627 69.2659 244.491 69.2996C244.356 69.3309 244.224 69.3608 244.096 69.3893C243.967 69.4153 243.859 69.4375 243.773 69.4557C243.57 69.4968 243.385 69.5543 243.22 69.6282C243.056 69.702 242.928 69.8004 242.835 69.9236C242.745 70.0442 242.706 70.199 242.72 70.3878C242.739 70.6499 242.851 70.8411 243.054 70.9614C243.258 71.0794 243.509 71.1274 243.809 71.1053Z" fill="white"/>
<path d="M214.636 87.1214C214.313 87.1404 213.99 87.1049 213.667 87.0147C213.347 86.9243 213.05 86.7563 212.775 86.5106C212.501 86.2649 212.271 85.9246 212.084 85.4897C211.9 85.0546 211.784 84.5029 211.735 83.8348C211.688 83.202 211.709 82.6355 211.798 82.1352C211.889 81.6347 212.042 81.2069 212.256 80.8517C212.469 80.4941 212.738 80.2144 213.063 80.0125C213.387 79.8105 213.76 79.6941 214.18 79.6632C214.612 79.6313 215.002 79.6881 215.35 79.8334C215.697 79.9787 215.986 80.1937 216.216 80.4782C216.448 80.7626 216.607 81.0939 216.692 81.4723L215.611 81.5518C215.516 81.255 215.353 81.0189 215.121 80.8437C214.89 80.6684 214.6 80.5936 214.25 80.6194C213.719 80.6585 213.322 80.9204 213.058 81.405C212.797 81.8895 212.696 82.5439 212.754 83.368L212.807 83.3641C212.917 83.1495 213.058 82.9635 213.229 82.8061C213.403 82.6461 213.6 82.5189 213.821 82.4243C214.044 82.3271 214.282 82.2693 214.534 82.2507C214.954 82.2197 215.342 82.2944 215.697 82.4748C216.055 82.6527 216.348 82.9136 216.577 83.2575C216.807 83.6014 216.939 84.0048 216.973 84.4675C217.007 84.9303 216.933 85.3571 216.75 85.748C216.57 86.1387 216.299 86.4577 215.937 86.7051C215.576 86.9501 215.142 87.0889 214.636 87.1214ZM214.565 86.2008C214.844 86.1803 215.088 86.0935 215.297 85.9404C215.507 85.7873 215.667 85.5903 215.777 85.3496C215.888 85.1088 215.932 84.8456 215.911 84.5599C215.891 84.2813 215.81 84.0321 215.668 83.8123C215.528 83.5923 215.345 83.423 215.117 83.3044C214.893 83.1857 214.642 83.1365 214.366 83.1568C214.156 83.1723 213.964 83.2267 213.79 83.3202C213.619 83.4135 213.472 83.536 213.347 83.6876C213.223 83.8391 213.129 84.0099 213.065 84.1997C213.002 84.3871 212.979 84.5823 212.994 84.7854C213.014 85.0569 213.095 85.3037 213.237 85.5259C213.382 85.7479 213.569 85.9216 213.799 86.0471C214.031 86.1701 214.286 86.2213 214.565 86.2008ZM220.839 86.6648C220.395 86.6974 219.989 86.6418 219.623 86.4979C219.258 86.3514 218.96 86.136 218.728 85.8516C218.495 85.5673 218.358 85.2332 218.316 84.8494L219.378 84.7711C219.427 85.0809 219.584 85.3269 219.849 85.5091C220.114 85.6914 220.421 85.7697 220.771 85.744C221.049 85.7234 221.291 85.6415 221.497 85.4982C221.705 85.3524 221.861 85.1616 221.967 84.9259C222.076 84.69 222.119 84.4269 222.098 84.1365C222.076 83.8414 221.993 83.5828 221.849 83.3608C221.704 83.1388 221.515 82.9699 221.281 82.8542C221.049 82.7384 220.789 82.6898 220.501 82.7087C220.281 82.7249 220.063 82.7789 219.847 82.8708C219.631 82.9627 219.459 83.075 219.331 83.2079L218.317 83.1329L218.456 79.4481L222.443 79.1545L222.513 80.093L219.435 80.3196L219.354 82.3658L219.397 82.3627C219.528 82.2153 219.707 82.087 219.934 81.9777C220.164 81.8683 220.413 81.8036 220.682 81.7838C221.124 81.7513 221.525 81.8274 221.885 82.0122C222.247 82.1968 222.541 82.4635 222.766 82.8125C222.993 83.159 223.123 83.5673 223.155 84.0373C223.192 84.5069 223.117 84.9339 222.929 85.318C222.744 85.702 222.47 86.0141 222.108 86.2544C221.748 86.4922 221.325 86.6289 220.839 86.6648ZM228.307 84.6479L228.279 84.2654C228.259 83.9915 228.297 83.7371 228.394 83.5021C228.493 83.2645 228.647 83.0692 228.856 82.9161C229.068 82.7605 229.331 82.6711 229.645 82.648C229.966 82.6243 230.24 82.673 230.468 82.7939C230.695 82.9149 230.872 83.0858 231 83.3066C231.13 83.5273 231.206 83.7746 231.226 84.0485L231.254 84.4309C231.274 84.7048 231.236 84.9605 231.139 85.1978C231.043 85.4328 230.89 85.6281 230.681 85.7835C230.473 85.9364 230.212 86.0246 229.895 86.0479C229.577 86.0713 229.302 86.0227 229.073 85.9019C228.843 85.7788 228.663 85.608 228.533 85.3897C228.403 85.169 228.328 84.9218 228.307 84.6479ZM229.104 84.2046L229.133 84.5871C229.148 84.7902 229.209 84.9708 229.318 85.1289C229.427 85.2871 229.602 85.3573 229.843 85.3395C230.082 85.322 230.242 85.2271 230.324 85.0549C230.407 84.8826 230.44 84.695 230.425 84.492L230.397 84.1095C230.382 83.9064 230.323 83.7257 230.218 83.5672C230.116 83.4085 229.943 83.3382 229.697 83.3563C229.461 83.3737 229.299 83.4686 229.212 83.6412C229.125 83.8138 229.089 84.0016 229.104 84.2046ZM224.354 80.7657L224.326 80.3832C224.306 80.1094 224.344 79.8537 224.44 79.6164C224.539 79.3788 224.693 79.1835 224.903 79.0304C225.115 78.8771 225.378 78.7889 225.692 78.7658C226.013 78.7422 226.287 78.7908 226.514 78.9118C226.742 79.0327 226.919 79.2036 227.047 79.4245C227.175 79.6453 227.249 79.8927 227.269 80.1666L227.297 80.5491C227.317 80.8229 227.279 81.0786 227.183 81.3159C227.088 81.5508 226.936 81.7459 226.727 81.9014C226.52 82.0543 226.258 82.1424 225.942 82.1657C225.621 82.1893 225.345 82.1408 225.116 82.02C224.888 81.8967 224.71 81.7259 224.58 81.5076C224.449 81.2869 224.374 81.0396 224.354 80.7657ZM225.155 80.3222L225.183 80.7047C225.198 80.9078 225.258 81.0884 225.365 81.2468C225.474 81.4049 225.649 81.4751 225.89 81.4574C226.126 81.44 226.285 81.3452 226.367 81.173C226.452 81.0006 226.487 80.8129 226.472 80.6098L226.444 80.2273C226.429 80.0243 226.369 79.8435 226.265 79.685C226.161 79.5265 225.987 79.4562 225.744 79.4741C225.508 79.4915 225.346 79.5865 225.259 79.7591C225.174 79.9315 225.14 80.1192 225.155 80.3222ZM225.096 86.2516L229.549 78.6314L230.395 78.5691L225.943 86.1893L225.096 86.2516Z" fill="white"/>
<g filter="url(#filter9_d_0_1)">
<rect x="202.307" y="99.9618" width="6" height="20" rx="3" transform="rotate(-4.2105 202.307 99.9618)" fill="#2388FF"/>
</g>
<path d="M214.204 106.105L213.042 106.19L215.118 98.7452L216.383 98.6521L219.527 105.713L218.365 105.799L215.878 100.014L215.821 100.018L214.204 106.105ZM214.189 103.25L217.958 102.973L218.025 103.894L214.257 104.171L214.189 103.25ZM223.769 103.133L223.535 99.9487L224.597 99.8705L224.998 105.31L223.956 105.387L223.887 104.445L223.83 104.449C223.727 104.749 223.544 105.005 223.282 105.219C223.022 105.431 222.688 105.552 222.279 105.582C221.93 105.607 221.615 105.553 221.334 105.42C221.056 105.284 220.829 105.069 220.653 104.776C220.48 104.482 220.376 104.111 220.343 103.662L220.089 100.202L221.148 100.124L221.393 103.457C221.42 103.828 221.545 104.115 221.766 104.32C221.988 104.524 222.263 104.614 222.591 104.59C222.789 104.576 222.983 104.511 223.171 104.398C223.362 104.284 223.515 104.122 223.631 103.912C223.748 103.701 223.794 103.442 223.769 103.133ZM230.194 100.794L229.247 101.034C229.198 100.915 229.125 100.802 229.03 100.698C228.936 100.593 228.814 100.511 228.663 100.451C228.511 100.391 228.325 100.369 228.106 100.385C227.806 100.407 227.561 100.493 227.37 100.642C227.179 100.789 227.091 100.968 227.107 101.178C227.12 101.359 227.198 101.501 227.341 101.602C227.484 101.703 227.707 101.778 228.012 101.827L228.891 101.961C229.4 102.04 229.786 102.191 230.05 102.414C230.313 102.637 230.459 102.94 230.487 103.325C230.511 103.651 230.438 103.948 230.268 104.217C230.1 104.484 229.854 104.701 229.529 104.87C229.207 105.038 228.826 105.139 228.387 105.171C227.778 105.216 227.271 105.123 226.867 104.891C226.463 104.658 226.2 104.303 226.077 103.828L227.089 103.597C227.172 103.859 227.318 104.051 227.527 104.173C227.735 104.293 227.998 104.342 228.317 104.318C228.664 104.293 228.936 104.2 229.133 104.041C229.33 103.879 229.421 103.693 229.406 103.483C229.393 103.313 229.319 103.175 229.183 103.069C229.049 102.962 228.85 102.889 228.586 102.849L227.651 102.715C227.134 102.637 226.746 102.48 226.484 102.245C226.224 102.011 226.08 101.7 226.052 101.312C226.028 100.991 226.097 100.704 226.259 100.45C226.421 100.196 226.655 99.9896 226.961 99.8317C227.267 99.6715 227.625 99.5764 228.033 99.5463C228.621 99.503 229.093 99.5964 229.45 99.8266C229.806 100.054 230.054 100.377 230.194 100.794ZM233.906 99.1852L233.969 100.035L230.997 100.254L230.935 99.4039L233.906 99.1852ZM231.636 98.042L232.694 97.964L233.073 103.11C233.088 103.315 233.131 103.468 233.2 103.567C233.268 103.664 233.353 103.728 233.452 103.759C233.554 103.787 233.663 103.796 233.778 103.788C233.863 103.782 233.937 103.77 234 103.754C234.063 103.737 234.112 103.724 234.147 103.714L234.403 104.575C234.343 104.603 234.257 104.633 234.146 104.665C234.034 104.7 233.894 104.724 233.724 104.739C233.446 104.764 233.182 104.734 232.934 104.648C232.685 104.562 232.479 104.415 232.314 104.209C232.149 104.003 232.055 103.736 232.031 103.407L231.636 98.042ZM235.478 104.539L235.077 99.0989L236.101 99.0236L236.165 99.8877L236.221 99.8835C236.299 99.5835 236.457 99.3404 236.694 99.1543C236.935 98.9658 237.214 98.8597 237.533 98.8363C237.599 98.8314 237.677 98.828 237.767 98.8261C237.859 98.8241 237.932 98.8247 237.984 98.8279L238.059 99.8408C238.016 99.8321 237.939 99.8247 237.829 99.8186C237.72 99.81 237.61 99.8098 237.502 99.8177C237.251 99.8362 237.032 99.9057 236.844 100.026C236.658 100.145 236.515 100.301 236.416 100.496C236.316 100.688 236.275 100.903 236.292 101.139L236.537 104.461L235.478 104.539ZM240.849 104.264C240.504 104.29 240.188 104.249 239.9 104.142C239.611 104.033 239.377 103.861 239.196 103.628C239.017 103.394 238.915 103.099 238.889 102.742C238.866 102.435 238.906 102.178 239.01 101.971C239.113 101.764 239.261 101.596 239.453 101.465C239.645 101.335 239.863 101.231 240.107 101.154C240.35 101.076 240.6 101.013 240.855 100.963C241.178 100.901 241.44 100.851 241.641 100.813C241.843 100.772 241.987 100.72 242.075 100.656C242.163 100.593 242.202 100.497 242.193 100.37L242.191 100.345C242.168 100.036 242.063 99.8024 241.876 99.6453C241.691 99.488 241.427 99.4219 241.085 99.4471C240.729 99.4734 240.453 99.5731 240.26 99.7465C240.068 99.9172 239.94 100.101 239.877 100.298L238.865 100.145C238.958 99.8055 239.111 99.526 239.323 99.3062C239.537 99.084 239.789 98.9158 240.08 98.8019C240.37 98.6855 240.68 98.6153 241.008 98.5911C241.225 98.5751 241.457 98.5841 241.704 98.6182C241.953 98.6497 242.189 98.7249 242.412 98.8438C242.636 98.9626 242.826 99.1421 242.982 99.3823C243.137 99.6201 243.229 99.9373 243.258 100.334L243.524 103.946L242.49 104.023L242.435 103.279L242.393 103.282C242.334 103.424 242.242 103.566 242.114 103.708C241.987 103.851 241.819 103.973 241.611 104.077C241.403 104.18 241.148 104.242 240.849 104.264ZM241.016 103.397C241.309 103.376 241.555 103.3 241.754 103.169C241.956 103.038 242.104 102.875 242.199 102.68C242.296 102.483 242.337 102.277 242.321 102.062L242.269 101.361C242.234 101.402 242.164 101.442 242.058 101.483C241.954 101.522 241.834 101.558 241.699 101.592C241.563 101.623 241.431 101.653 241.303 101.681C241.174 101.708 241.067 101.73 240.98 101.748C240.777 101.789 240.592 101.847 240.427 101.92C240.264 101.994 240.136 102.093 240.043 102.216C239.952 102.336 239.913 102.491 239.927 102.68C239.947 102.942 240.058 103.133 240.261 103.254C240.465 103.372 240.716 103.42 241.016 103.397ZM245.46 96.5115L245.994 103.765L244.935 103.843L244.401 96.5894L245.46 96.5115ZM247.418 103.66L247.018 98.2199L248.077 98.1419L248.477 103.582L247.418 103.66ZM247.491 97.3412C247.307 97.3547 247.144 97.305 247.003 97.1919C246.864 97.0764 246.788 96.9324 246.775 96.76C246.762 96.5853 246.816 96.4318 246.937 96.2995C247.06 96.1646 247.213 96.0904 247.398 96.0768C247.582 96.0633 247.743 96.1143 247.882 96.2298C248.024 96.3429 248.101 96.4868 248.114 96.6615C248.126 96.8338 248.071 96.9875 247.948 97.1223C247.827 97.2547 247.675 97.3276 247.491 97.3412ZM251.494 103.481C251.149 103.506 250.833 103.465 250.545 103.358C250.256 103.249 250.022 103.078 249.841 102.844C249.662 102.61 249.56 102.315 249.534 101.959C249.511 101.652 249.551 101.395 249.655 101.188C249.758 100.981 249.906 100.812 250.098 100.681C250.29 100.551 250.508 100.447 250.752 100.37C250.995 100.293 251.245 100.229 251.5 100.179C251.823 100.118 252.085 100.068 252.286 100.029C252.488 99.9881 252.632 99.9359 252.72 99.8724C252.808 99.809 252.847 99.7135 252.838 99.586L252.836 99.5612C252.813 99.2519 252.708 99.0187 252.521 98.8616C252.336 98.7043 252.072 98.6382 251.73 98.6634C251.374 98.6897 251.098 98.7895 250.905 98.9628C250.713 99.1336 250.585 99.3174 250.522 99.5144L249.51 99.361C249.603 99.0218 249.756 98.7423 249.968 98.5226C250.182 98.3003 250.434 98.1322 250.725 98.0182C251.015 97.9018 251.325 97.8316 251.653 97.8074C251.87 97.7914 252.102 97.8005 252.349 97.8345C252.598 97.866 252.834 97.9412 253.057 98.0602C253.281 98.1789 253.471 98.3584 253.627 98.5986C253.782 98.8364 253.874 99.1537 253.903 99.5503L254.169 103.163L253.135 103.239L253.08 102.495L253.038 102.498C252.98 102.64 252.887 102.782 252.76 102.925C252.632 103.067 252.464 103.19 252.256 103.293C252.048 103.396 251.794 103.459 251.494 103.481ZM251.661 102.614C251.954 102.592 252.2 102.516 252.399 102.385C252.601 102.254 252.749 102.091 252.844 101.896C252.941 101.699 252.982 101.493 252.966 101.279L252.914 100.577C252.879 100.618 252.809 100.659 252.703 100.7C252.599 100.738 252.479 100.774 252.344 100.808C252.208 100.839 252.076 100.869 251.948 100.898C251.819 100.924 251.712 100.946 251.625 100.964C251.422 101.005 251.237 101.063 251.072 101.137C250.909 101.21 250.781 101.309 250.688 101.432C250.597 101.553 250.558 101.707 250.572 101.896C250.592 102.158 250.703 102.35 250.906 102.47C251.11 102.588 251.361 102.636 251.661 102.614Z" fill="white"/>
<path d="M214.691 119.104L217.396 112.61L217.392 112.557L213.73 112.826L213.661 111.888L218.456 111.535L218.528 112.505L215.835 119.02L214.691 119.104ZM222.534 118.627C222.026 118.664 221.571 118.61 221.169 118.464C220.769 118.317 220.448 118.099 220.205 117.808C219.963 117.517 219.829 117.176 219.802 116.784C219.777 116.477 219.819 116.19 219.928 115.924C220.039 115.654 220.199 115.425 220.408 115.237C220.617 115.046 220.857 114.916 221.127 114.849L221.124 114.806C220.756 114.746 220.453 114.573 220.213 114.289C219.974 114.006 219.841 113.669 219.815 113.279C219.785 112.909 219.859 112.571 220.036 112.266C220.215 111.958 220.473 111.708 220.81 111.514C221.147 111.321 221.539 111.208 221.985 111.175C222.427 111.143 222.827 111.199 223.187 111.343C223.549 111.485 223.841 111.695 224.063 111.973C224.285 112.249 224.411 112.57 224.44 112.939C224.467 113.328 224.381 113.681 224.183 113.997C223.986 114.313 223.715 114.528 223.369 114.641L223.372 114.684C223.647 114.711 223.9 114.804 224.13 114.963C224.362 115.119 224.553 115.322 224.702 115.572C224.853 115.82 224.941 116.097 224.966 116.404C224.992 116.796 224.907 117.153 224.71 117.476C224.513 117.8 224.226 118.063 223.85 118.266C223.475 118.469 223.037 118.59 222.534 118.627ZM222.468 117.731C222.768 117.708 223.024 117.64 223.236 117.524C223.448 117.407 223.608 117.254 223.715 117.065C223.822 116.875 223.868 116.658 223.852 116.414C223.831 116.162 223.749 115.944 223.605 115.76C223.463 115.575 223.278 115.436 223.05 115.341C222.823 115.246 222.567 115.209 222.284 115.23C221.998 115.251 221.748 115.325 221.535 115.453C221.321 115.58 221.157 115.745 221.044 115.948C220.931 116.151 220.885 116.379 220.906 116.631C220.921 116.875 220.995 117.083 221.126 117.256C221.26 117.427 221.441 117.554 221.671 117.64C221.9 117.723 222.166 117.753 222.468 117.731ZM222.219 114.355C222.46 114.338 222.67 114.274 222.85 114.163C223.029 114.053 223.166 113.907 223.259 113.727C223.355 113.547 223.396 113.341 223.381 113.109C223.362 112.883 223.293 112.688 223.174 112.526C223.058 112.364 222.903 112.243 222.71 112.165C222.516 112.084 222.297 112.053 222.051 112.071C221.801 112.09 221.585 112.153 221.403 112.261C221.223 112.367 221.088 112.509 220.996 112.686C220.905 112.864 220.869 113.066 220.888 113.293C220.902 113.524 220.969 113.722 221.088 113.887C221.207 114.051 221.363 114.175 221.557 114.258C221.753 114.341 221.974 114.374 222.219 114.355ZM230.063 116.605L230.035 116.223C230.015 115.949 230.053 115.694 230.149 115.459C230.248 115.222 230.402 115.027 230.612 114.873C230.824 114.718 231.086 114.628 231.4 114.605C231.722 114.582 231.996 114.63 232.223 114.751C232.45 114.872 232.628 115.043 232.756 115.264C232.886 115.485 232.961 115.732 232.981 116.006L233.009 116.388C233.03 116.662 232.991 116.918 232.895 117.155C232.798 117.39 232.645 117.585 232.436 117.741C232.229 117.894 231.967 117.982 231.651 118.005C231.332 118.029 231.058 117.98 230.828 117.859C230.598 117.736 230.418 117.565 230.288 117.347C230.158 117.126 230.083 116.879 230.063 116.605ZM230.86 116.162L230.888 116.544C230.903 116.748 230.965 116.928 231.074 117.086C231.183 117.244 231.358 117.315 231.599 117.297C231.837 117.279 231.997 117.184 232.08 117.012C232.162 116.84 232.196 116.652 232.181 116.449L232.153 116.067C232.138 115.864 232.078 115.683 231.974 115.525C231.872 115.366 231.698 115.296 231.453 115.314C231.217 115.331 231.055 115.426 230.968 115.599C230.881 115.771 230.845 115.959 230.86 116.162ZM226.11 112.723L226.081 112.341C226.061 112.067 226.099 111.811 226.196 111.574C226.295 111.336 226.449 111.141 226.658 110.988C226.87 110.835 227.133 110.746 227.447 110.723C227.768 110.7 228.042 110.748 228.27 110.869C228.497 110.99 228.675 111.161 228.802 111.382C228.93 111.603 229.004 111.85 229.024 112.124L229.053 112.506C229.073 112.78 229.035 113.036 228.938 113.273C228.844 113.508 228.692 113.703 228.483 113.859C228.276 114.012 228.014 114.1 227.697 114.123C227.376 114.147 227.101 114.098 226.871 113.977C226.644 113.854 226.465 113.683 226.335 113.465C226.205 113.244 226.13 112.997 226.11 112.723ZM226.91 112.28L226.938 112.662C226.953 112.865 227.014 113.046 227.121 113.204C227.23 113.362 227.404 113.432 227.645 113.415C227.881 113.397 228.041 113.303 228.123 113.13C228.207 112.958 228.242 112.77 228.227 112.567L228.199 112.185C228.184 111.982 228.125 111.801 228.02 111.642C227.916 111.484 227.742 111.414 227.499 111.431C227.263 111.449 227.102 111.544 227.015 111.716C226.93 111.889 226.895 112.077 226.91 112.28ZM226.852 118.209L231.304 110.589L232.151 110.526L227.698 118.147L226.852 118.209Z" fill="white"/>
</g>
<defs>
<filter id="filter0_d_0_1" x="-1" y="-1" width="280.979" height="159.73" filterUnits="userSpaceOnUse" color-interpolation-filters="sRGB">
<feFlood flood-opacity="0" result="BackgroundImageFix"/>
<feColorMatrix in="SourceAlpha" type="matrix" values="0 0 0 0 0 0 0 0 0 0 0 0 0 0 0 0 0 0 127 0" result="hardAlpha"/>
<feOffset dy="1"/>
<feGaussianBlur stdDeviation="2"/>
<feComposite in2="hardAlpha" operator="out"/>
<feColorMatrix type="matrix" values="0 0 0 0 0.0969792 0 0 0 0 0.127894 0 0 0 0 0.2375 0 0 0 0.08 0"/>
<feBlend mode="normal" in2="BackgroundImageFix" result="effect1_dropShadow_0_1"/>
<feBlend mode="normal" in="SourceGraphic" in2="effect1_dropShadow_0_1" result="shape"/>
</filter>
<filter id="filter1_i_0_1" x="27.3447" y="54.8345" width="152.309" height="83.43" filterUnits="userSpaceOnUse" color-interpolation-filters="sRGB">
<feFlood flood-opacity="0" result="BackgroundImageFix"/>
<feBlend mode="normal" in="SourceGraphic" in2="BackgroundImageFix" result="shape"/>
<feColorMatrix in="SourceAlpha" type="matrix" values="0 0 0 0 0 0 0 0 0 0 0 0 0 0 0 0 0 0 127 0" result="hardAlpha"/>
<feOffset dy="1.66667"/>
<feGaussianBlur stdDeviation="0.833333"/>
<feComposite in2="hardAlpha" operator="arithmetic" k2="-1" k3="1"/>
<feColorMatrix type="matrix" values="0 0 0 0 0.645833 0 0 0 0 0.645833 0 0 0 0 0.645833 0 0 0 0.04 0"/>
<feBlend mode="normal" in2="shape" result="effect1_innerShadow_0_1"/>
</filter>
<filter id="filter2_i_0_1" x="49.5383" y="77.0195" width="107.941" height="59.6161" filterUnits="userSpaceOnUse" color-interpolation-filters="sRGB">
<feFlood flood-opacity="0" result="BackgroundImageFix"/>
<feBlend mode="normal" in="SourceGraphic" in2="BackgroundImageFix" result="shape"/>
<feColorMatrix in="SourceAlpha" type="matrix" values="0 0 0 0 0 0 0 0 0 0 0 0 0 0 0 0 0 0 127 0" result="hardAlpha"/>
<feOffset dy="1.66667"/>
<feGaussianBlur stdDeviation="0.833333"/>
<feComposite in2="hardAlpha" operator="arithmetic" k2="-1" k3="1"/>
<feColorMatrix type="matrix" values="0 0 0 0 0.645833 0 0 0 0 0.645833 0 0 0 0 0.645833 0 0 0 0.04 0"/>
<feBlend mode="normal" in2="shape" result="effect1_innerShadow_0_1"/>
</filter>
<filter id="filter3_i_0_1" x="71.8086" y="99.2045" width="63.438" height="35.8022" filterUnits="userSpaceOnUse" color-interpolation-filters="sRGB">
<feFlood flood-opacity="0" result="BackgroundImageFix"/>
<feBlend mode="normal" in="SourceGraphic" in2="BackgroundImageFix" result="shape"/>
<feColorMatrix in="SourceAlpha" type="matrix" values="0 0 0 0 0 0 0 0 0 0 0 0 0 0 0 0 0 0 127 0" result="hardAlpha"/>
<feOffset dy="1.66667"/>
<feGaussianBlur stdDeviation="0.833333"/>
<feComposite in2="hardAlpha" operator="arithmetic" k2="-1" k3="1"/>
<feColorMatrix type="matrix" values="0 0 0 0 0.645833 0 0 0 0 0.645833 0 0 0 0 0.645833 0 0 0 0.04 0"/>
<feBlend mode="normal" in2="shape" result="effect1_innerShadow_0_1"/>
</filter>
<filter id="filter4_d_0_1" x="22.3447" y="51.6688" width="86.3123" height="91.5956" filterUnits="userSpaceOnUse" color-interpolation-filters="sRGB">
<feFlood flood-opacity="0" result="BackgroundImageFix"/>
<feColorMatrix in="SourceAlpha" type="matrix" values="0 0 0 0 0 0 0 0 0 0 0 0 0 0 0 0 0 0 127 0" result="hardAlpha"/>
<feOffset dy="1.66667"/>
<feGaussianBlur stdDeviation="2.5"/>
<feComposite in2="hardAlpha" operator="out"/>
<feColorMatrix type="matrix" values="0 0 0 0 0.0969792 0 0 0 0 0.127894 0 0 0 0 0.2375 0 0 0 0.14 0"/>
<feBlend mode="normal" in2="BackgroundImageFix" result="effect1_dropShadow_0_1"/>
<feBlend mode="normal" in="SourceGraphic" in2="effect1_dropShadow_0_1" result="shape"/>
</filter>
<filter id="filter5_d_0_1" x="44.5383" y="85.4848" width="42.1172" height="56.1508" filterUnits="userSpaceOnUse" color-interpolation-filters="sRGB">
<feFlood flood-opacity="0" result="BackgroundImageFix"/>
<feColorMatrix in="SourceAlpha" type="matrix" values="0 0 0 0 0 0 0 0 0 0 0 0 0 0 0 0 0 0 127 0" result="hardAlpha"/>
<feOffset dy="1.66667"/>
<feGaussianBlur stdDeviation="2.5"/>
<feComposite in2="hardAlpha" operator="out"/>
<feColorMatrix type="matrix" values="0 0 0 0 0.0969792 0 0 0 0 0.127894 0 0 0 0 0.2375 0 0 0 0.14 0"/>
<feBlend mode="normal" in2="BackgroundImageFix" result="effect1_dropShadow_0_1"/>
<feBlend mode="normal" in="SourceGraphic" in2="effect1_dropShadow_0_1" result="shape"/>
</filter>
<filter id="filter6_d_0_1" x="66.8086" y="114.503" width="29.5989" height="25.5034" filterUnits="userSpaceOnUse" color-interpolation-filters="sRGB">
<feFlood flood-opacity="0" result="BackgroundImageFix"/>
<feColorMatrix in="SourceAlpha" type="matrix" values="0 0 0 0 0 0 0 0 0 0 0 0 0 0 0 0 0 0 127 0" result="hardAlpha"/>
<feOffset dy="1.66667"/>
<feGaussianBlur stdDeviation="2.5"/>
<feComposite in2="hardAlpha" operator="out"/>
<feColorMatrix type="matrix" values="0 0 0 0 0.0969792 0 0 0 0 0.127894 0 0 0 0 0.2375 0 0 0 0.14 0"/>
<feBlend mode="normal" in2="BackgroundImageFix" result="effect1_dropShadow_0_1"/>
<feBlend mode="normal" in="SourceGraphic" in2="effect1_dropShadow_0_1" result="shape"/>
</filter>
<filter id="filter7_d_0_1" x="193.82" y="32.906" width="15.0283" height="27.9625" filterUnits="userSpaceOnUse" color-interpolation-filters="sRGB">
<feFlood flood-opacity="0" result="BackgroundImageFix"/>
<feColorMatrix in="SourceAlpha" type="matrix" values="0 0 0 0 0 0 0 0 0 0 0 0 0 0 0 0 0 0 127 0" result="hardAlpha"/>
<feOffset dy="1"/>
<feGaussianBlur stdDeviation="2"/>
<feComposite in2="hardAlpha" operator="out"/>
<feColorMatrix type="matrix" values="0 0 0 0 0.0969792 0 0 0 0 0.127894 0 0 0 0 0.2375 0 0 0 0.08 0"/>
<feBlend mode="normal" in2="BackgroundImageFix" result="effect1_dropShadow_0_1"/>
<feBlend mode="normal" in="SourceGraphic" in2="effect1_dropShadow_0_1" result="shape"/>
</filter>
<filter id="filter8_d_0_1" x="196.17" y="64.8196" width="15.0283" height="27.9625" filterUnits="userSpaceOnUse" color-interpolation-filters="sRGB">
<feFlood flood-opacity="0" result="BackgroundImageFix"/>
<feColorMatrix in="SourceAlpha" type="matrix" values="0 0 0 0 0 0 0 0 0 0 0 0 0 0 0 0 0 0 127 0" result="hardAlpha"/>
<feOffset dy="1"/>
<feGaussianBlur stdDeviation="2"/>
<feComposite in2="hardAlpha" operator="out"/>
<feColorMatrix type="matrix" values="0 0 0 0 0.0969792 0 0 0 0 0.127894 0 0 0 0 0.2375 0 0 0 0.08 0"/>
<feBlend mode="normal" in2="BackgroundImageFix" result="effect1_dropShadow_0_1"/>
<feBlend mode="normal" in="SourceGraphic" in2="effect1_dropShadow_0_1" result="shape"/>
</filter>
<filter id="filter9_d_0_1" x="198.519" y="96.7333" width="15.0283" height="27.9625" filterUnits="userSpaceOnUse" color-interpolation-filters="sRGB">
<feFlood flood-opacity="0" result="BackgroundImageFix"/>
<feColorMatrix in="SourceAlpha" type="matrix" values="0 0 0 0 0 0 0 0 0 0 0 0 0 0 0 0 0 0 127 0" result="hardAlpha"/>
<feOffset dy="1"/>
<feGaussianBlur stdDeviation="2"/>
<feComposite in2="hardAlpha" operator="out"/>
<feColorMatrix type="matrix" values="0 0 0 0 0.0969792 0 0 0 0 0.127894 0 0 0 0 0.2375 0 0 0 0.08 0"/>
<feBlend mode="normal" in2="BackgroundImageFix" result="effect1_dropShadow_0_1"/>
<feBlend mode="normal" in="SourceGraphic" in2="effect1_dropShadow_0_1" result="shape"/>
</filter>
</defs>
</svg>
