<svg width="311" height="215" viewBox="0 0 311 215" fill="none" xmlns="http://www.w3.org/2000/svg">
<g clip-path="url(#clip0_1_1168)">
<rect x="28.2598" width="286.445" height="170.489" rx="7.52137" transform="rotate(9.40357 28.2598 0)" fill="url(#paint0_linear_1_1168)"/>
<rect x="23.7161" y="134.57" width="37.3333" height="14.2906" rx="3.00855" transform="rotate(9.40357 23.7161 134.57)" fill="url(#paint1_linear_1_1168)"/>
<path d="M37.0951 147.425L37.9709 142.137L38.179 142.447L36.6242 142.189L36.7078 141.684L38.5783 141.994L37.6634 147.519L37.0951 147.425ZM44.4293 142.963L45.0054 143.058L44.0905 148.583L43.5143 148.488L44.4293 142.963ZM40.0574 147.915L39.4733 147.819L40.3883 142.294L40.9724 142.391L40.0574 147.915ZM43.9917 145.948L40.4164 145.356L40.5014 144.843L44.0767 145.435L43.9917 145.948Z" fill="white"/>
<rect x="65.8093" y="141.541" width="37.3333" height="14.2906" rx="3.00855" transform="rotate(9.40357 65.8093 141.541)" fill="url(#paint2_linear_1_1168)" fill-opacity="0.8"/>
<path d="M79.2059 154.399L80.0817 149.111L80.2898 149.421L78.735 149.163L78.8186 148.658L80.6891 148.968L79.7742 154.493L79.2059 154.399ZM81.5841 154.793L82.4991 149.268L84.7485 149.64C85.3378 149.738 85.8338 149.942 86.2366 150.252C86.6455 150.557 86.9392 150.938 87.1176 151.395C87.2961 151.852 87.3404 152.351 87.2507 152.893C87.1609 153.435 86.958 153.893 86.6418 154.268C86.3257 154.643 85.9244 154.911 85.4379 155.074C84.9576 155.232 84.4228 155.263 83.8335 155.165L81.5841 154.793ZM82.2518 154.384L83.8856 154.655C84.3749 154.736 84.8142 154.711 85.2033 154.581C85.5986 154.446 85.9241 154.227 86.1798 153.924C86.4364 153.615 86.6013 153.239 86.6745 152.797C86.7486 152.35 86.7135 151.942 86.5694 151.572C86.4252 151.202 86.1873 150.892 85.8556 150.643C85.53 150.389 85.1226 150.221 84.6332 150.14L82.9995 149.87L82.2518 154.384Z" fill="black"/>
<rect x="107.903" y="148.512" width="37.3333" height="14.2906" rx="3.00855" transform="rotate(9.40357 107.903 148.512)" fill="url(#paint3_linear_1_1168)"/>
<path d="M119.474 161.068L120.35 155.78L120.558 156.09L119.003 155.832L119.087 155.327L120.957 155.637L120.042 161.162L119.474 161.068ZM123.107 161.669L122.159 155.836L122.759 155.935L123.642 161.426L123.342 161.376L126.003 156.473L126.54 156.562L127.454 162.057L127.17 162.01L129.791 157.1L130.352 157.193L127.574 162.409L126.959 162.307L126.079 157.093L126.236 157.12L123.715 161.77L123.107 161.669Z" fill="white"/>
<rect x="149.996" y="155.483" width="37.3333" height="14.2906" rx="3.00855" transform="rotate(9.40357 149.996 155.483)" fill="url(#paint4_linear_1_1168)"/>
<path d="M162.635 168.216L163.511 162.928L163.719 163.238L162.164 162.98L162.248 162.475L164.118 162.785L163.203 168.31L162.635 168.216ZM165.013 168.61L165.928 163.085L166.409 163.165L168.221 167.892L167.969 167.85L171.184 163.955L171.666 164.035L170.751 169.56L170.191 169.467L170.96 164.818L171.095 164.841L168.136 168.405L167.86 168.359L166.193 164.029L166.343 164.054L165.573 168.702L165.013 168.61Z" fill="white"/>
<rect x="192.089" y="162.455" width="37.3333" height="14.2906" rx="3.00855" transform="rotate(9.40357 192.089 162.455)" fill="url(#paint5_linear_1_1168)"/>
<path d="M205.457 175.308L206.333 170.02L206.541 170.33L204.986 170.072L205.07 169.567L206.94 169.877L206.025 175.402L205.457 175.308ZM209.153 175.92L209.493 173.868L209.567 174.253L207.858 170.029L208.482 170.132L209.984 173.843L209.652 173.789L212.27 170.76L212.854 170.856L209.875 174.304L210.069 173.963L209.729 176.015L209.153 175.92Z" fill="white"/>
<rect x="234.183" y="169.426" width="37.3333" height="14.2906" rx="3.00855" transform="rotate(9.40357 234.183 169.426)" fill="url(#paint6_linear_1_1168)"/>
<path d="M245.846 181.996L249.286 176.89L249.862 176.985L251.473 182.928L250.857 182.826L249.396 177.257L249.633 177.296L246.453 182.097L245.846 181.996ZM247.085 180.685L247.337 180.24L250.549 180.772L250.644 181.275L247.085 180.685ZM252.269 183.06L253.238 177.204L253.799 177.297L252.829 183.153L252.269 183.06ZM254.388 183.411L255.358 177.555L255.918 177.648L254.949 183.504L254.388 183.411Z" fill="white"/>
<path d="M27.626 125.841C27.2178 125.774 26.8396 125.644 26.4912 125.452C26.1437 125.255 25.8796 125.026 25.6989 124.767L26.0616 124.349C26.2096 124.57 26.4284 124.768 26.7178 124.944C27.0127 125.122 27.3424 125.241 27.707 125.301C28.1913 125.381 28.5762 125.336 28.8616 125.165C29.1534 124.99 29.3282 124.728 29.3859 124.38C29.4264 124.135 29.4013 123.916 29.3104 123.722C29.2258 123.523 29.0529 123.352 28.7916 123.208C28.5303 123.064 28.1575 122.952 27.6732 122.872L26.457 122.671L27.2254 119.854L30.3515 120.372L30.265 120.894L27.3756 120.416L27.7249 120.18L27.0744 122.538L26.8211 122.194L27.8903 122.371C28.4672 122.467 28.918 122.614 29.2428 122.813C29.5676 123.012 29.785 123.252 29.895 123.533C30.0114 123.81 30.0416 124.117 29.9858 124.454C29.9326 124.775 29.8077 125.056 29.6112 125.298C29.4156 125.534 29.1528 125.703 28.8229 125.805C28.4929 125.907 28.0939 125.919 27.626 125.841ZM31.4779 125.288L31.6173 124.548L34.6892 122.558L35.3993 122.676L33.2151 124.167L32.8426 124.391L31.4779 125.288ZM30.837 126.323L31.84 120.266L32.4196 120.362L31.4165 126.419L30.837 126.323ZM34.1591 126.873L32.7406 124.349L33.1904 123.962L34.8692 126.991L34.1591 126.873Z" fill="white"/>
<path d="M30.1902 106.013L31.0959 100.545L31.3112 100.865L29.7032 100.599L29.7897 100.077L31.7242 100.397L30.7779 106.111L30.1902 106.013ZM34.4129 106.763C33.9721 106.69 33.5993 106.511 33.2943 106.226C32.9902 105.935 32.7758 105.558 32.6511 105.096C32.5273 104.628 32.5159 104.09 32.6168 103.48C32.7178 102.871 32.9018 102.367 33.1689 101.97C33.4369 101.567 33.7612 101.28 34.1419 101.108C34.5234 100.931 34.9346 100.879 35.3754 100.952C35.8161 101.025 36.1886 101.206 36.4926 101.497C36.7976 101.782 37.012 102.159 37.1358 102.627C37.2659 103.09 37.2805 103.626 37.1796 104.236C37.0787 104.845 36.8915 105.351 36.618 105.753C36.3509 106.15 36.0266 106.438 35.645 106.615C35.2644 106.787 34.8537 106.836 34.4129 106.763ZM34.5021 106.224C34.8395 106.28 35.1482 106.239 35.4283 106.101C35.7092 105.957 35.9493 105.723 36.1484 105.398C36.3485 105.068 36.4909 104.647 36.5756 104.136C36.6603 103.624 36.6607 103.183 36.5769 102.811C36.494 102.434 36.3423 102.135 36.1217 101.914C35.9021 101.687 35.6235 101.546 35.2862 101.49C34.9597 101.436 34.6532 101.48 34.3668 101.623C34.0813 101.76 33.8386 101.994 33.6385 102.324C33.4393 102.649 33.2974 103.067 33.2127 103.579C33.128 104.09 33.1271 104.535 33.21 104.912C33.2938 105.284 33.4482 105.583 33.6734 105.81C33.8994 106.032 34.1756 106.17 34.5021 106.224ZM38.5726 106.261L38.712 105.521L41.7839 103.531L42.494 103.648L40.3098 105.14L39.9373 105.363L38.5726 106.261ZM37.9317 107.296L38.9347 101.239L39.5143 101.335L38.5112 107.392L37.9317 107.296ZM41.2538 107.846L39.8353 105.321L40.2851 104.935L41.9639 107.963L41.2538 107.846Z" fill="white"/>
<path d="M33.3441 86.3325L34.2498 80.8637L34.4651 81.1845L32.8571 80.9182L32.9436 80.3958L34.8781 80.7162L33.9318 86.4298L33.3441 86.3325ZM37.0934 87.0037C36.6853 86.9361 36.307 86.8064 35.9586 86.6145C35.6111 86.4172 35.347 86.1889 35.1663 85.9298L35.529 85.5119C35.6771 85.732 35.8958 85.9304 36.1852 86.1069C36.4801 86.2844 36.8098 86.4033 37.1744 86.4636C37.6587 86.5438 38.0436 86.4986 38.3291 86.3278C38.6209 86.1525 38.7956 85.8907 38.8533 85.5425C38.8938 85.2976 38.8687 85.0782 38.7778 84.8842C38.6933 84.6857 38.5203 84.5145 38.259 84.3706C37.9978 84.2267 37.625 84.1146 37.1407 84.0344L35.9245 83.833L36.6928 81.0167L39.819 81.5344L39.7324 82.0568L36.843 81.5783L37.1923 81.3426L36.5418 83.7004L36.2885 83.3566L37.3578 83.5337C37.9346 83.6292 38.3854 83.7765 38.7102 83.9757C39.035 84.1749 39.2525 84.4149 39.3625 84.6959C39.4788 84.9724 39.5091 85.2793 39.4532 85.6166C39.4 85.9377 39.2752 86.2189 39.0786 86.4603C38.883 86.6963 38.6202 86.8652 38.2903 86.9671C37.9603 87.069 37.5613 87.0812 37.0934 87.0037ZM40.9454 86.4508L41.0847 85.7107L44.1566 83.7204L44.8667 83.838L42.6825 85.3296L42.31 85.5531L40.9454 86.4508ZM40.3044 87.4852L41.3075 81.4287L41.887 81.5247L40.884 87.5812L40.3044 87.4852ZM43.6265 88.0354L42.208 85.511L42.6578 85.1243L44.3366 88.153L43.6265 88.0354Z" fill="white"/>
<path d="M36.0209 66.5719L36.0898 66.1557L38.8503 64.2228C39.1031 64.0466 39.297 63.8886 39.432 63.7488C39.5679 63.6036 39.6666 63.4634 39.7281 63.3283C39.7896 63.1931 39.8307 63.0629 39.8515 62.9378C39.9064 62.6058 39.8354 62.3257 39.6384 62.0974C39.4468 61.87 39.1307 61.7198 38.6899 61.6468C38.3525 61.5909 38.0447 61.5931 37.7664 61.6532C37.4935 61.7142 37.2465 61.8383 37.0255 62.0253L36.6687 61.5972C36.935 61.3729 37.2541 61.2189 37.6257 61.1351C37.9974 61.0513 38.3982 61.045 38.8281 61.1162C39.2145 61.1802 39.5387 61.2982 39.801 61.4702C40.0641 61.6368 40.2525 61.8497 40.3661 62.1089C40.4852 62.369 40.5185 62.6569 40.4663 62.9725C40.4356 63.1575 40.3782 63.3353 40.2941 63.5059C40.2154 63.6773 40.0913 63.8524 39.9219 64.0313C39.7589 64.2055 39.5288 64.3966 39.2316 64.6046L36.6981 66.3822L36.5727 66.1266L40.1151 66.7133L40.0286 67.2357L36.0209 66.5719ZM43.0194 67.7813C42.5786 67.7083 42.2057 67.5291 41.9008 67.2438C41.5967 66.9531 41.3823 66.5765 41.2576 66.1142C41.1338 65.6464 41.1224 65.1078 41.2233 64.4984C41.3243 63.8889 41.5083 63.3855 41.7754 62.988C42.0434 62.5851 42.3677 62.2978 42.7483 62.126C43.1299 61.9488 43.5411 61.8967 43.9818 61.9697C44.4226 62.0427 44.795 62.2246 45.0991 62.5154C45.4041 62.8007 45.6184 63.1772 45.7422 63.645C45.8724 64.1082 45.887 64.6446 45.7861 65.254C45.6851 65.8635 45.4979 66.3692 45.2245 66.7712C44.9574 67.1686 44.6331 67.4559 44.2515 67.6331C43.8709 67.8049 43.4601 67.8543 43.0194 67.7813ZM43.1086 67.2426C43.446 67.2985 43.7547 67.2573 44.0347 67.1192C44.3157 66.9757 44.5557 66.7415 44.7549 66.4166C44.955 66.0864 45.0973 65.6655 45.1821 65.154C45.2668 64.6425 45.2672 64.2009 45.1834 63.8292C45.1005 63.4521 44.9488 63.153 44.7282 62.932C44.5085 62.7055 44.23 62.5643 43.8926 62.5084C43.5661 62.4544 43.2597 62.4987 42.9733 62.6413C42.6878 62.7785 42.445 63.0123 42.245 63.3425C42.0458 63.6674 41.9039 64.0855 41.8192 64.597C41.7345 65.1086 41.7336 65.5529 41.8165 65.93C41.9003 66.3017 42.0547 66.6012 42.2798 66.8286C42.5058 67.0505 42.7821 67.1885 43.1086 67.2426ZM47.1791 67.2794L47.3184 66.5393L50.3904 64.549L51.1005 64.6666L48.9162 66.1582L48.5438 66.3816L47.1791 67.2794ZM46.5382 68.3137L47.5412 62.2573L48.1207 62.3533L47.1177 68.4097L46.5382 68.3137ZM49.8602 68.8639L48.4417 66.3396L48.8915 65.9528L50.5704 68.9815L49.8602 68.8639Z" fill="white"/>
<path d="M71.6682 35.424C71.1537 35.3388 70.6745 35.1802 70.2306 34.9481C69.7878 34.7095 69.4521 34.4425 69.2236 34.147L69.7051 33.4537C69.925 33.7214 70.2221 33.9622 70.5964 34.1761C70.9706 34.3901 71.3731 34.5327 71.804 34.6041C72.1963 34.669 72.5221 34.6767 72.7814 34.6272C73.0406 34.5776 73.2409 34.4852 73.3823 34.3501C73.5246 34.2085 73.6123 34.038 73.6454 33.8386C73.6837 33.6071 73.6374 33.4078 73.5065 33.2408C73.382 33.0748 73.2045 32.9298 72.974 32.8057C72.751 32.6763 72.5001 32.5554 72.2213 32.4432C71.9426 32.331 71.6622 32.2086 71.3802 32.076C71.1058 31.938 70.8575 31.7813 70.6355 31.6057C70.4199 31.4313 70.2568 31.2193 70.1462 30.9697C70.0366 30.7137 70.0117 30.4056 70.0713 30.0455C70.1288 29.6982 70.2716 29.3948 70.4996 29.1352C70.735 28.8703 71.0569 28.6824 71.4651 28.5716C71.8807 28.4555 72.3844 28.4464 72.976 28.5444C73.3683 28.6093 73.7489 28.7252 74.1177 28.892C74.4865 29.0588 74.7964 29.2621 75.0474 29.5019L74.6013 30.2209C74.3439 29.98 74.0613 29.7912 73.7536 29.6543C73.447 29.511 73.1425 29.4144 72.8403 29.3643C72.4608 29.3015 72.1409 29.298 71.8806 29.354C71.6202 29.41 71.4189 29.5088 71.2765 29.6504C71.1405 29.7931 71.0561 29.9641 71.023 30.1635C70.9836 30.4014 71.0262 30.6034 71.1506 30.7693C71.2816 30.9364 71.4591 31.0814 71.6832 31.2044C71.9137 31.3285 72.1678 31.4499 72.4455 31.5685C72.7242 31.6808 73.0014 31.8026 73.2769 31.9342C73.5589 32.0668 73.8077 32.2203 74.0232 32.3947C74.2452 32.5703 74.4116 32.7828 74.5222 33.0324C74.6328 33.282 74.6589 33.5836 74.6003 33.9373C74.5438 34.2782 74.3979 34.581 74.1624 34.846C73.928 35.1045 73.5997 35.2913 73.1776 35.4064C72.763 35.5161 72.2598 35.522 71.6682 35.424ZM77.7881 36.4177C77.2672 36.3315 76.8196 36.1417 76.4453 35.8484C76.0774 35.5563 75.8102 35.1949 75.6437 34.7642C75.4771 34.3336 75.4359 33.8643 75.5201 33.3562C75.6042 32.8482 75.7945 32.4172 76.091 32.0633C76.3875 31.7093 76.7564 31.4566 77.1977 31.305C77.6466 31.1481 78.1315 31.1128 78.6524 31.199C79.1154 31.2757 79.5116 31.4371 79.8408 31.6833C80.1775 31.924 80.4158 32.241 80.5555 32.6341L79.7762 32.9709C79.6505 32.6924 79.4751 32.475 79.2499 32.3188C79.0322 32.1572 78.7851 32.0535 78.5085 32.0077C78.1741 31.9523 77.8629 31.9768 77.5747 32.081C77.2865 32.1853 77.0429 32.3597 76.8438 32.6042C76.6458 32.8423 76.5165 33.1446 76.4558 33.5112C76.3951 33.8778 76.4195 34.2089 76.5291 34.5045C76.6387 34.8002 76.8131 35.0438 77.0523 35.2354C77.2915 35.427 77.5782 35.5504 77.9127 35.6058C78.1892 35.6516 78.456 35.6363 78.7131 35.56C78.9777 35.4783 79.2144 35.3259 79.4232 35.1028L80.0538 35.6631C79.7959 35.9838 79.4677 36.2102 79.0692 36.3425C78.6782 36.4693 78.2511 36.4944 77.7881 36.4177ZM84.2539 37.4291L84.4328 36.3487L84.4182 36.1381L84.7233 34.2957C84.7883 33.9034 84.7226 33.5819 84.5262 33.3314C84.3373 33.0755 84.0146 32.9097 83.558 32.8341C83.2557 32.784 82.9514 32.7865 82.645 32.8414C82.3396 32.89 82.0734 32.9813 81.8463 33.1155L81.5755 32.3571C81.8743 32.1885 82.2161 32.0799 82.6007 32.0313C82.9929 31.9773 83.3916 31.9839 83.7967 32.051C84.4977 32.1671 85.0096 32.427 85.3326 32.8306C85.6556 33.2343 85.759 33.7866 85.643 34.4876L85.1317 37.5745L84.2539 37.4291ZM82.5659 37.209C82.1864 37.1461 81.8627 37.0264 81.5946 36.8499C81.3329 36.6744 81.1436 36.4614 81.0265 36.2107C80.9105 35.9536 80.8765 35.6804 80.9244 35.391C80.9702 35.1145 81.076 34.8743 81.2419 34.6706C81.4142 34.4678 81.6595 34.3234 81.9777 34.2374C82.3023 34.1524 82.7186 34.152 83.2267 34.2361L84.8473 34.5045L84.737 35.1701L83.155 34.9081C82.692 34.8314 82.3673 34.8569 82.181 34.9847C81.9947 35.1124 81.8834 35.2855 81.8472 35.5042C81.8056 35.755 81.8718 35.9741 82.0456 36.1614C82.2204 36.3424 82.4847 36.4621 82.8384 36.5207C83.1857 36.5782 83.5007 36.5511 83.7835 36.4394C84.0727 36.3287 84.2997 36.135 84.4645 35.8584L84.5423 36.5254C84.3701 36.8074 84.1147 37.0129 83.7762 37.1418C83.4388 37.2643 83.0353 37.2867 82.5659 37.209ZM86.8455 37.8583L88.0309 30.7007L88.9569 30.854L87.7715 38.0116L86.8455 37.8583ZM91.8066 38.7394C91.26 38.6488 90.7963 38.4564 90.4156 38.1621C90.0413 37.8689 89.7709 37.5069 89.6043 37.0763C89.4442 36.6467 89.4062 36.1779 89.4904 35.6699C89.5745 35.1619 89.7584 34.7298 90.042 34.3737C90.332 34.0187 90.6881 33.7638 91.1102 33.6091C91.5397 33.449 91.9989 33.4094 92.4876 33.4903C92.9828 33.5723 93.402 33.7541 93.7452 34.0356C94.0884 34.3171 94.3331 34.6747 94.4793 35.1086C94.633 35.5371 94.6662 36.015 94.5789 36.5423C94.5725 36.5809 94.5618 36.6254 94.5468 36.6758C94.5383 36.7272 94.5271 36.7749 94.5132 36.8189L90.1627 36.0984L90.2729 35.4328L94.1411 36.0734L93.7266 36.2426C93.7873 35.9157 93.7683 35.6119 93.6694 35.3313C93.5705 35.0506 93.4074 34.8187 93.18 34.6357C92.9601 34.4473 92.6862 34.326 92.3582 34.2717C92.0367 34.2184 91.7383 34.245 91.463 34.3514C91.1887 34.4513 90.959 34.6214 90.7739 34.8616C90.5898 35.0954 90.4701 35.3795 90.4147 35.714L90.3891 35.8683C90.3327 36.2091 90.3593 36.5274 90.4689 36.823C90.586 37.1133 90.7738 37.3559 91.0322 37.5506C91.2907 37.7454 91.6032 37.8732 91.9698 37.9339C92.272 37.9839 92.5539 37.9777 92.8153 37.9153C93.0831 37.854 93.3273 37.7358 93.5479 37.5609L93.9601 38.2437C93.6839 38.4754 93.3604 38.6333 92.9897 38.7173C92.6254 38.8023 92.2311 38.8097 91.8066 38.7394ZM97.5363 39.7081C97.0219 39.6229 96.5427 39.4643 96.0988 39.2322C95.6559 38.9936 95.3203 38.7266 95.0917 38.4311L95.5732 37.7378C95.7932 38.0055 96.0903 38.2463 96.4645 38.4602C96.8387 38.6742 97.2413 38.8168 97.6721 38.8882C98.0644 38.9531 98.3902 38.9608 98.6495 38.9113C98.9088 38.8617 99.1091 38.7693 99.2504 38.6342C99.3928 38.4926 99.4805 38.3221 99.5135 38.1227C99.5518 37.8912 99.5055 37.6919 99.3746 37.5249C99.2502 37.3589 99.0726 37.2139 98.8421 37.0898C98.6191 36.9604 98.3682 36.8395 98.0895 36.7273C97.8107 36.6151 97.5304 36.4927 97.2484 36.3601C96.9739 36.2221 96.7257 36.0654 96.5036 35.8898C96.2881 35.7154 96.125 35.5034 96.0143 35.2538C95.9048 34.9978 95.8798 34.6897 95.9394 34.3296C95.9969 33.9823 96.1397 33.6789 96.3677 33.4193C96.6032 33.1544 96.925 32.9665 97.3332 32.8557C97.7489 32.7396 98.2525 32.7305 98.8442 32.8285C99.2365 32.8934 99.617 33.0093 99.9858 33.1761C100.355 33.3429 100.665 33.5462 100.916 33.786L100.469 34.505C100.212 34.2641 99.9294 34.0753 99.6217 33.9384C99.3151 33.7951 99.0106 33.6985 98.7084 33.6484C98.329 33.5856 98.0091 33.5821 97.7487 33.6381C97.4884 33.6941 97.287 33.7929 97.1446 33.9345C97.0087 34.0772 96.9242 34.2482 96.8912 34.4476C96.8518 34.6855 96.8943 34.8875 97.0188 35.0534C97.1497 35.2205 97.3272 35.3655 97.5513 35.4885C97.7818 35.6126 98.0359 35.734 98.3136 35.8526C98.5923 35.9649 98.8695 36.0867 99.145 36.2183C99.427 36.3509 99.6758 36.5044 99.8914 36.6788C100.113 36.8544 100.28 37.0669 100.39 37.3165C100.501 37.5661 100.527 37.8677 100.468 38.2214C100.412 38.5623 100.266 38.8651 100.031 39.1301C99.7961 39.3886 99.4678 39.5754 99.0457 39.6905C98.6311 39.8002 98.128 39.8061 97.5363 39.7081ZM104.139 40.7817C103.714 40.7114 103.341 40.5505 103.019 40.299C102.705 40.0421 102.474 39.7032 102.325 39.2822C102.184 38.8623 102.161 38.3629 102.256 37.7841C102.352 37.2053 102.532 36.7395 102.795 36.3867C103.065 36.0349 103.389 35.7913 103.768 35.6559C104.154 35.5215 104.566 35.4906 105.003 35.563C105.504 35.6461 105.93 35.8289 106.28 36.1114C106.629 36.394 106.884 36.7501 107.044 37.1796C107.206 37.6028 107.243 38.0748 107.157 38.5957C107.07 39.1166 106.882 39.5545 106.592 39.9095C106.302 40.2646 105.946 40.5194 105.524 40.6742C105.102 40.8289 104.64 40.8648 104.139 40.7817ZM101.128 42.1463L102.284 35.1623L103.172 35.3093L102.943 36.6887L102.689 37.8656L102.589 39.0681L102.054 42.2997L101.128 42.1463ZM104.196 39.9586C104.524 40.0129 104.828 39.9874 105.11 39.8821C105.398 39.7779 105.639 39.603 105.831 39.3574C106.032 39.1064 106.161 38.8008 106.221 38.4407C106.282 38.0741 106.257 37.7463 106.146 37.457C106.043 37.1624 105.872 36.9193 105.633 36.7278C105.4 36.5373 105.119 36.4148 104.791 36.3605C104.47 36.3073 104.165 36.3328 103.877 36.437C103.595 36.5423 103.355 36.7172 103.156 36.9618C102.964 37.2009 102.838 37.5038 102.777 37.8704C102.718 38.2305 102.739 38.5611 102.841 38.8621C102.951 39.1578 103.122 39.4009 103.355 39.5914C103.594 39.783 103.874 39.9054 104.196 39.9586ZM111.598 36.6552C112.016 36.7244 112.369 36.8655 112.657 37.0784C112.952 37.2925 113.163 37.5784 113.288 37.9362C113.414 38.294 113.435 38.7237 113.352 39.2253L112.865 42.1674L111.939 42.0141L112.409 39.178C112.491 38.6829 112.43 38.2896 112.227 37.9984C112.031 37.7081 111.714 37.5268 111.277 37.4544C110.949 37.4001 110.652 37.417 110.386 37.5051C110.121 37.5933 109.9 37.7516 109.723 37.98C109.553 38.2095 109.437 38.5108 109.375 38.8838L108.939 41.5172L108.013 41.3639L109.198 34.2063L110.124 34.3596L109.557 37.7841L109.435 37.3872C109.657 37.0804 109.958 36.8626 110.336 36.7336C110.714 36.6046 111.134 36.5785 111.598 36.6552ZM116.846 42.8862C116.299 42.7956 115.835 42.6032 115.455 42.3089C115.08 42.0157 114.81 41.6537 114.643 41.2231C114.483 40.7935 114.445 40.3247 114.53 39.8167C114.614 39.3087 114.798 38.8766 115.081 38.5205C115.371 38.1655 115.727 37.9106 116.149 37.7559C116.579 37.5958 117.038 37.5562 117.527 37.6371C118.022 37.7191 118.441 37.9009 118.784 38.1824C119.128 38.4639 119.372 38.8215 119.518 39.2554C119.672 39.6839 119.705 40.1618 119.618 40.6892C119.612 40.7277 119.601 40.7722 119.586 40.8226C119.577 40.8741 119.566 40.9218 119.552 40.9657L115.202 40.2452L115.312 39.5796L119.18 40.2202L118.766 40.3894C118.826 40.0625 118.807 39.7587 118.709 39.4781C118.61 39.1974 118.447 38.9656 118.219 38.7825C117.999 38.5942 117.725 38.4728 117.397 38.4185C117.076 38.3652 116.777 38.3918 116.502 38.4982C116.228 38.5981 115.998 38.7682 115.813 39.0084C115.629 39.2422 115.509 39.5264 115.454 39.8608L115.428 40.0151C115.372 40.3559 115.398 40.6742 115.508 40.9699C115.625 41.2601 115.813 41.5027 116.071 41.6975C116.33 41.8922 116.642 42.02 117.009 42.0807C117.311 42.1307 117.593 42.1245 117.854 42.0621C118.122 42.0008 118.366 41.8826 118.587 41.7077L118.999 42.3905C118.723 42.6222 118.4 42.7801 118.029 42.8641C117.665 42.9491 117.27 42.9565 116.846 42.8862ZM120.485 43.4295L121.332 38.3169L122.22 38.4639L121.989 39.8529L121.96 39.4913C122.16 39.161 122.443 38.9303 122.808 38.7992C123.173 38.6681 123.601 38.643 124.089 38.724L123.941 39.6211C123.903 39.6083 123.865 39.5986 123.827 39.5923C123.794 39.5869 123.762 39.5816 123.73 39.5763C123.235 39.4943 122.818 39.5772 122.48 39.8251C122.141 40.073 121.926 40.4767 121.833 41.0362L121.411 43.5828L120.485 43.4295ZM126.596 44.5009C126.049 44.4104 125.585 44.218 125.205 43.9236C124.83 43.6304 124.56 43.2685 124.393 42.8378C124.233 42.4083 124.195 41.9395 124.28 41.4314C124.364 40.9234 124.548 40.4913 124.831 40.1353C125.121 39.7802 125.477 39.5254 125.899 39.3706C126.329 39.2105 126.788 39.1709 127.277 39.2519C127.772 39.3339 128.191 39.5156 128.534 39.7971C128.878 40.0786 129.122 40.4363 129.268 40.8701C129.422 41.2986 129.455 41.7765 129.368 42.3039C129.362 42.3425 129.351 42.387 129.336 42.4373C129.327 42.4888 129.316 42.5365 129.302 42.5804L124.952 41.8599L125.062 41.1943L128.93 41.835L128.516 42.0042C128.576 41.6772 128.557 41.3735 128.459 41.0928C128.36 40.8121 128.197 40.5803 127.969 40.3973C127.749 40.2089 127.475 40.0875 127.147 40.0332C126.826 39.98 126.527 40.0065 126.252 40.1129C125.978 40.2128 125.748 40.3829 125.563 40.6232C125.379 40.857 125.259 41.1411 125.204 41.4755L125.178 41.6298C125.122 41.9707 125.148 42.2889 125.258 42.5846C125.375 42.8749 125.563 43.1174 125.821 43.3122C126.08 43.507 126.392 43.6347 126.759 43.6954C127.061 43.7455 127.343 43.7393 127.604 43.6769C127.872 43.6155 128.116 43.4974 128.337 43.3225L128.749 44.0052C128.473 44.237 128.15 44.3948 127.779 44.4788C127.415 44.5638 127.02 44.5712 126.596 44.5009Z" fill="white"/>
<path d="M67.8213 46.0831L68.6346 41.1722L69.3361 41.2884L68.5228 46.1993L67.8213 46.0831ZM72.5019 43.002C72.8059 43.0523 73.0628 43.1549 73.2726 43.3098C73.4871 43.4655 73.64 43.6734 73.7315 43.9336C73.8229 44.1939 73.8385 44.5064 73.778 44.8712L73.4237 47.0109L72.7502 46.8994L73.0918 44.8368C73.1514 44.4767 73.1075 44.1907 72.96 43.9789C72.8171 43.7678 72.5867 43.6359 72.2686 43.5832C72.0301 43.5437 71.8142 43.556 71.621 43.6202C71.4278 43.6843 71.267 43.7994 71.1385 43.9655C71.0148 44.1324 70.9305 44.3515 70.8855 44.6228L70.5683 46.538L69.8949 46.4265L70.5106 42.7083L71.1561 42.8151L70.9899 43.8184L70.9288 43.5344C71.0907 43.3113 71.3092 43.1529 71.5842 43.059C71.8592 42.9652 72.1651 42.9462 72.5019 43.002ZM76.2837 47.5278C75.9049 47.4651 75.5793 47.3271 75.3071 47.1138C75.0396 46.9013 74.8452 46.6385 74.7241 46.3253C74.603 46.0121 74.573 45.6708 74.6342 45.3013C74.6954 44.9318 74.8338 44.6184 75.0494 44.3609C75.2651 44.1035 75.5334 43.9197 75.8544 43.8095C76.1808 43.6954 76.5334 43.6697 76.9123 43.7324C77.249 43.7882 77.5371 43.9056 77.7766 44.0846C78.0215 44.2597 78.1947 44.4902 78.2963 44.7761L77.7296 45.021C77.6382 44.8185 77.5106 44.6604 77.3468 44.5468C77.1885 44.4293 77.0088 44.3539 76.8077 44.3206C76.5645 44.2803 76.3381 44.298 76.1285 44.3739C75.9189 44.4497 75.7417 44.5765 75.597 44.7543C75.453 44.9275 75.3589 45.1474 75.3147 45.414C75.2706 45.6806 75.2884 45.9214 75.3681 46.1364C75.4478 46.3514 75.5746 46.5286 75.7486 46.6679C75.9225 46.8073 76.1311 46.8971 76.3743 46.9374C76.5754 46.9707 76.7695 46.9596 76.9564 46.904C77.1489 46.8446 77.321 46.7337 77.4728 46.5715L77.9315 46.979C77.7439 47.2122 77.5052 47.3769 77.2154 47.4731C76.931 47.5654 76.6205 47.5836 76.2837 47.5278ZM80.2087 48.1779C79.8346 48.1159 79.5161 47.9791 79.2532 47.7673C78.9903 47.5556 78.7983 47.2932 78.6772 46.98C78.5569 46.6621 78.5269 46.3208 78.5873 45.956C78.6485 45.5865 78.7869 45.273 79.0025 45.0156C79.2182 44.7582 79.4841 44.574 79.8004 44.463C80.1175 44.3473 80.4632 44.3205 80.8373 44.3824C81.2068 44.4436 81.523 44.5801 81.7858 44.7918C82.0542 44.9996 82.2465 45.2597 82.363 45.5722C82.4849 45.8807 82.5149 46.222 82.4529 46.5962C82.3917 46.9656 82.2533 47.2791 82.0377 47.5365C81.8267 47.7947 81.5604 47.9812 81.2386 48.0961C80.9215 48.2118 80.5782 48.2391 80.2087 48.1779ZM80.3063 47.5886C80.5449 47.6281 80.7666 47.6095 80.9715 47.5329C81.1811 47.4571 81.3559 47.3299 81.496 47.1513C81.6369 46.968 81.729 46.7454 81.7724 46.4835C81.8165 46.2169 81.8007 45.9788 81.7249 45.7692C81.6498 45.555 81.5254 45.3782 81.3514 45.2388C81.1821 45.1003 80.9782 45.0113 80.7397 44.9718C80.5012 44.9323 80.2795 44.9508 80.0746 45.0274C79.8697 45.104 79.6948 45.2312 79.5501 45.409C79.4061 45.5822 79.312 45.8021 79.2678 46.0687C79.2245 46.3306 79.2422 46.5714 79.3212 46.7911C79.4009 47.0061 79.5254 47.1829 79.6946 47.3215C79.8639 47.46 80.0678 47.5491 80.3063 47.5886ZM88.3493 45.6265C88.6487 45.6761 88.9032 45.7783 89.113 45.9332C89.3228 46.0881 89.4711 46.2953 89.5579 46.5547C89.6494 46.8149 89.6649 47.1274 89.6045 47.4922L89.2501 49.632L88.5766 49.5204L88.9182 47.4579C88.9778 47.0977 88.9386 46.8125 88.8004 46.6022C88.6623 46.3919 88.4412 46.2616 88.1372 46.2113C87.9127 46.1741 87.7085 46.1883 87.5246 46.254C87.3407 46.3197 87.1869 46.4359 87.0632 46.6028C86.9441 46.7705 86.8621 46.99 86.8172 47.2613L86.5 49.1765L85.8265 49.065L86.1681 47.0024C86.2277 46.6423 86.1885 46.3571 86.0503 46.1468C85.9168 45.9373 85.6957 45.807 85.3871 45.7558C85.1672 45.7194 84.9654 45.7341 84.7815 45.7997C84.5977 45.8654 84.4439 45.9816 84.3201 46.1486C84.1964 46.3155 84.112 46.5346 84.0671 46.8058L83.7499 48.7211L83.0764 48.6095L83.6922 44.8913L84.3376 44.9982L84.1738 45.9874L84.1104 45.7174C84.2676 45.4936 84.479 45.334 84.7447 45.2386C85.0104 45.1432 85.3046 45.1223 85.6273 45.1757C85.9827 45.2346 86.2744 45.3742 86.5022 45.5945C86.7308 45.8102 86.8554 46.1023 86.876 46.4709L86.621 46.3134C86.7805 46.0467 87.0149 45.85 87.3242 45.7234C87.6334 45.5969 87.9752 45.5646 88.3493 45.6265ZM92.138 50.1535C91.7405 50.0877 91.4033 49.9477 91.1264 49.7337C90.8541 49.5204 90.6575 49.2572 90.5364 48.944C90.4199 48.6316 90.3923 48.2906 90.4535 47.9212C90.5147 47.5517 90.6484 47.2374 90.8547 46.9785C91.0656 46.7203 91.3246 46.5349 91.6315 46.4224C91.9439 46.3059 92.2779 46.2771 92.6333 46.336C92.9934 46.3957 93.2983 46.5278 93.5479 46.7326C93.7975 46.9373 93.9755 47.1974 94.0818 47.5129C94.1936 47.8246 94.2177 48.1722 94.1542 48.5557C94.1495 48.5837 94.1418 48.6161 94.1309 48.6527C94.1247 48.6901 94.1166 48.7248 94.1065 48.7568L90.9425 48.2328L91.0226 47.7487L93.8359 48.2146L93.5344 48.3377C93.5785 48.0999 93.5647 47.879 93.4928 47.6749C93.4209 47.4708 93.3022 47.3021 93.1369 47.169C92.9769 47.032 92.7777 46.9438 92.5392 46.9043C92.3053 46.8655 92.0883 46.8849 91.8881 46.9622C91.6886 47.0349 91.5216 47.1586 91.3869 47.3333C91.2531 47.5034 91.166 47.71 91.1257 47.9532L91.1071 48.0655C91.0661 48.3133 91.0854 48.5448 91.1651 48.7598C91.2503 48.9709 91.3869 49.1473 91.5748 49.289C91.7628 49.4306 91.9901 49.5235 92.2567 49.5677C92.4765 49.6041 92.6815 49.5996 92.8716 49.5542C93.0664 49.5096 93.244 49.4237 93.4044 49.2965L93.7042 49.793C93.5033 49.9615 93.268 50.0764 92.9984 50.1374C92.7335 50.1993 92.4467 50.2046 92.138 50.1535ZM95.4088 47.7832C95.2778 47.7615 95.1729 47.6985 95.0941 47.5941C95.016 47.4851 94.9886 47.3604 95.0119 47.2201C95.0351 47.0798 95.1009 46.9729 95.2091 46.8996C95.3174 46.8262 95.437 46.8003 95.5679 46.822C95.6942 46.8429 95.7944 46.9052 95.8686 47.0088C95.9474 47.1131 95.9752 47.2355 95.952 47.3758C95.9287 47.5161 95.8626 47.6253 95.7536 47.7033C95.65 47.7775 95.535 47.8041 95.4088 47.7832ZM94.9394 50.6174C94.8084 50.5958 94.7035 50.5327 94.6247 50.4284C94.5467 50.3193 94.5192 50.1947 94.5425 50.0544C94.5657 49.9141 94.6315 49.8072 94.7397 49.7338C94.848 49.6605 94.9676 49.6346 95.0985 49.6563C95.2248 49.6772 95.325 49.7395 95.3992 49.8431C95.478 49.9474 95.5058 50.0697 95.4826 50.2101C95.4593 50.3504 95.3932 50.4595 95.2842 50.5376C95.1806 50.6117 95.0657 50.6384 94.9394 50.6174Z" fill="white" fill-opacity="0.6"/>
<path d="M106.793 54.744L108.158 46.5007L108.719 46.5936L107.354 54.8369L106.793 54.744ZM107.174 53.7981C106.707 53.7206 106.271 53.5764 105.868 53.3654C105.465 53.1486 105.16 52.9058 104.952 52.6372L105.39 52.0069C105.59 52.2502 105.86 52.4692 106.2 52.6637C106.54 52.8581 106.906 52.9878 107.298 53.0527C107.655 53.1118 107.951 53.1188 108.186 53.0737C108.422 53.0287 108.604 52.9447 108.733 52.8218C108.862 52.6931 108.942 52.5381 108.972 52.3569C109.007 52.1464 108.965 51.9652 108.846 51.8134C108.732 51.6625 108.571 51.5306 108.362 51.4178C108.159 51.3002 107.931 51.1903 107.677 51.0883C107.424 50.9863 107.169 50.875 106.913 50.7544C106.663 50.629 106.437 50.4865 106.236 50.327C106.04 50.1684 105.891 49.9756 105.791 49.7487C105.691 49.516 105.668 49.2359 105.723 48.9085C105.775 48.5928 105.905 48.317 106.112 48.081C106.326 47.8402 106.619 47.6694 106.99 47.5687C107.368 47.4631 107.826 47.4548 108.363 47.5439C108.72 47.6029 109.066 47.7083 109.401 47.8599C109.737 48.0116 110.018 48.1964 110.246 48.4144L109.841 49.068C109.607 48.849 109.35 48.6773 109.07 48.5529C108.791 48.4227 108.515 48.3348 108.24 48.2893C107.895 48.2322 107.604 48.229 107.368 48.2799C107.131 48.3308 106.948 48.4207 106.818 48.5494C106.695 48.6791 106.618 48.8346 106.588 49.0158C106.552 49.2321 106.591 49.4157 106.704 49.5666C106.823 49.7184 106.984 49.8503 107.188 49.9621C107.398 50.0749 107.629 50.1852 107.881 50.2931C108.134 50.3952 108.386 50.506 108.637 50.6255C108.893 50.7461 109.119 50.8856 109.315 51.0442C109.517 51.2038 109.668 51.397 109.769 51.6239C109.87 51.8508 109.893 52.125 109.84 52.4466C109.789 52.7564 109.656 53.0318 109.442 53.2726C109.229 53.5076 108.93 53.6774 108.547 53.7821C108.17 53.8818 107.712 53.8872 107.174 53.7981ZM113.277 48.3577C113.833 48.4496 114.28 48.6469 114.621 48.9496C114.967 49.2532 115.202 49.6494 115.325 50.1384C115.449 50.6215 115.457 51.1904 115.349 51.8452C115.233 52.5409 115.013 53.1081 114.688 53.5468C114.363 53.9856 113.964 54.2919 113.491 54.4658C113.018 54.6397 112.492 54.6787 111.913 54.5828C111.626 54.5354 111.353 54.4602 111.094 54.3572C110.841 54.2551 110.625 54.1263 110.446 53.9706L110.893 53.3418C111.039 53.4741 111.208 53.5801 111.399 53.6598C111.597 53.7346 111.807 53.7904 112.029 53.8272C112.649 53.9298 113.175 53.8187 113.607 53.4939C114.04 53.1632 114.32 52.6149 114.447 51.849C114.467 51.7263 114.486 51.5791 114.502 51.4076C114.518 51.2362 114.52 51.0652 114.506 50.8947L114.746 51.2408C114.619 51.4962 114.444 51.7014 114.22 51.8566C114.003 52.0068 113.753 52.1064 113.468 52.1554C113.19 52.1996 112.894 52.1955 112.578 52.1432C112.175 52.0764 111.828 51.9409 111.537 51.7366C111.247 51.5323 111.034 51.2777 110.898 50.9729C110.763 50.6623 110.727 50.317 110.79 49.937C110.856 49.5394 111.006 49.2129 111.241 48.9574C111.482 48.6971 111.779 48.5151 112.133 48.4114C112.492 48.3088 112.874 48.2908 113.277 48.3577ZM113.195 49.0738C112.932 49.0302 112.689 49.0412 112.468 49.1067C112.247 49.1722 112.064 49.2829 111.918 49.439C111.778 49.596 111.687 49.7972 111.647 50.0428C111.587 50.4052 111.664 50.7155 111.88 50.9734C112.096 51.2255 112.418 51.3869 112.845 51.4576C113.125 51.504 113.38 51.4921 113.608 51.4217C113.841 51.3523 114.032 51.2367 114.179 51.0748C114.331 50.9139 114.426 50.7224 114.463 50.5002C114.499 50.2839 114.476 50.0788 114.394 49.8851C114.312 49.6913 114.172 49.5209 113.974 49.374C113.776 49.2271 113.516 49.127 113.195 49.0738ZM115.397 56.4212L116.129 54.7224L116.158 55.2499C115.989 55.2218 115.854 55.1455 115.755 55.0209C115.661 54.8973 115.629 54.7448 115.659 54.5636C115.688 54.3882 115.768 54.2542 115.897 54.1615C116.032 54.0698 116.182 54.0375 116.346 54.0646C116.515 54.0927 116.643 54.1739 116.729 54.3082C116.816 54.4367 116.845 54.5858 116.817 54.7553C116.807 54.8138 116.792 54.8713 116.77 54.9278C116.756 54.9794 116.731 55.0413 116.695 55.1135C116.665 55.1807 116.622 55.2636 116.563 55.362L115.949 56.5127L115.397 56.4212ZM119.505 55.8403C119.073 55.7686 118.663 55.6317 118.276 55.4294C117.895 55.2282 117.595 54.9922 117.375 54.7216L117.893 54.0956C118.066 54.3224 118.306 54.5244 118.613 54.7013C118.92 54.8783 119.26 54.9978 119.635 55.0598C120.091 55.1353 120.46 55.0974 120.744 54.9461C121.034 54.79 121.206 54.5452 121.262 54.212C121.315 53.8905 121.235 53.6129 121.021 53.3793C120.814 53.1408 120.448 52.978 119.922 52.8909L119.431 52.8096L119.532 52.1957L121.728 50.2528L121.793 50.6239L118.434 50.0677L118.561 49.3047L122.612 49.9757L122.513 50.572L120.328 52.5076L119.917 52.1602L120.206 52.2082C120.948 52.3311 121.476 52.5897 121.789 52.984C122.108 53.3792 122.225 53.834 122.14 54.3485C122.083 54.6934 121.946 54.9951 121.729 55.2535C121.512 55.5118 121.217 55.6972 120.844 55.8097C120.478 55.9172 120.032 55.9274 119.505 55.8403ZM123.617 56.4491L127.177 51.1102L127.34 51.5426L123.692 50.9384L124.201 50.5813L123.949 52.1072L123.107 51.9678L123.415 50.1087L128.045 50.8755L127.946 51.4718L124.547 56.6031L123.617 56.4491ZM127.701 57.1254L127.799 56.5291L130.698 54.5314C130.955 54.3578 131.149 54.2007 131.281 54.0603C131.419 53.915 131.517 53.778 131.574 53.6493C131.638 53.5158 131.681 53.3847 131.702 53.2561C131.754 52.9404 131.685 52.6736 131.492 52.4555C131.3 52.2375 130.991 52.0931 130.564 52.0225C130.237 51.9682 129.932 51.9749 129.651 52.0424C129.37 52.1041 129.115 52.2329 128.884 52.429L128.373 51.8128C128.656 51.5534 129.007 51.3772 129.425 51.2842C129.85 51.1863 130.299 51.1766 130.772 51.2551C131.199 51.3257 131.559 51.4574 131.851 51.65C132.144 51.8367 132.355 52.0728 132.482 52.3581C132.614 52.6444 132.652 52.9629 132.594 53.3137C132.561 53.5124 132.502 53.7039 132.417 53.8881C132.333 54.0724 132.2 54.2605 132.018 54.4526C131.836 54.6447 131.585 54.8525 131.266 55.0759L128.682 56.8555L128.529 56.4787L132.238 57.093L132.112 57.856L127.701 57.1254Z" fill="white"/>
<path d="M153.152 61.4126C152.609 61.3226 152.164 61.1258 151.817 60.8222C151.471 60.5186 151.233 60.1247 151.103 59.6407C150.98 59.1517 150.972 58.5799 151.081 57.9251C151.196 57.2294 151.416 56.6622 151.741 56.2234C152.066 55.7847 152.468 55.4789 152.947 55.306C153.426 55.133 153.95 55.0935 154.517 55.1874C154.809 55.2358 155.082 55.3111 155.335 55.4131C155.594 55.5161 155.81 55.645 155.983 55.7997L155.536 56.4285C155.397 56.2913 155.228 56.1853 155.03 56.1105C154.838 56.0366 154.631 55.9813 154.409 55.9445C153.784 55.8409 153.254 55.9545 152.821 56.2852C152.389 56.61 152.109 57.1554 151.983 57.9213C151.962 58.044 151.944 58.1912 151.927 58.3626C151.911 58.5341 151.913 58.7056 151.932 58.877L151.684 58.5295C151.816 58.2751 151.99 58.0727 152.208 57.9225C152.432 57.7674 152.682 57.6677 152.96 57.6236C153.244 57.5746 153.541 57.5758 153.851 57.6271C154.261 57.6948 154.61 57.8309 154.901 58.0352C155.191 58.2395 155.404 58.4969 155.539 58.8076C155.675 59.1123 155.711 59.4547 155.648 59.8348C155.583 60.2265 155.43 60.5525 155.189 60.8129C154.947 61.0732 154.65 61.2552 154.296 61.3588C153.943 61.4625 153.562 61.4804 153.152 61.4126ZM153.235 60.6965C153.504 60.741 153.746 60.7301 153.961 60.6636C154.182 60.5981 154.366 60.4873 154.512 60.3313C154.659 60.1694 154.752 59.9687 154.792 59.729C154.852 59.3665 154.773 59.0592 154.557 58.8071C154.341 58.5492 154.017 58.3844 153.585 58.3127C153.304 58.2662 153.05 58.2782 152.822 58.3486C152.594 58.4189 152.404 58.5346 152.251 58.6955C152.105 58.8515 152.013 59.0435 151.975 59.2715C151.94 59.482 151.963 59.687 152.044 59.8867C152.127 60.0805 152.266 60.2508 152.464 60.3977C152.662 60.5446 152.919 60.6442 153.235 60.6965ZM155.913 63.1312L156.644 61.4324L156.674 61.9599C156.505 61.9318 156.37 61.8554 156.271 61.7308C156.177 61.6072 156.145 61.4548 156.175 61.2735C156.204 61.0982 156.283 60.9641 156.413 60.8714C156.548 60.7797 156.698 60.7474 156.862 60.7745C157.031 60.8026 157.159 60.8838 157.245 61.0182C157.331 61.1467 157.361 61.2957 157.333 61.4653C157.323 61.5237 157.308 61.5812 157.286 61.6377C157.272 61.6894 157.246 61.7513 157.21 61.8234C157.181 61.8907 157.137 61.9735 157.079 62.072L156.465 63.2227L155.913 63.1312ZM160.041 62.5535C159.608 62.4818 159.198 62.3449 158.811 62.1426C158.43 61.9413 158.13 61.7054 157.91 61.4348L158.429 60.8088C158.601 61.0356 158.841 61.2375 159.148 61.4145C159.455 61.5915 159.793 61.7105 160.161 61.7715C160.629 61.849 161.005 61.8091 161.289 61.652C161.574 61.4949 161.743 61.2497 161.799 60.9164C161.836 60.6884 161.814 60.4804 161.731 60.2925C161.648 60.1046 161.476 59.944 161.216 59.8108C160.962 59.6727 160.599 59.5645 160.125 59.486L158.731 59.2551L159.587 56.0992L163.051 56.6729L162.925 57.4359L159.785 56.9159L160.312 56.5617L159.638 59.054L159.252 58.5575L160.436 58.7536C161.05 58.8553 161.531 59.016 161.879 59.2358C162.227 59.4556 162.462 59.7199 162.585 60.0286C162.709 60.3314 162.741 60.6641 162.681 61.0266C162.623 61.3774 162.485 61.6849 162.267 61.9491C162.05 62.2075 161.755 62.3958 161.381 62.5141C161.014 62.6275 160.567 62.6406 160.041 62.5535ZM164.928 63.3629C164.496 63.2912 164.086 63.1543 163.699 62.9521C163.318 62.7508 163.017 62.5148 162.798 62.2442L163.316 61.6183C163.489 61.8451 163.729 62.047 164.036 62.224C164.343 62.401 164.683 62.5204 165.058 62.5824C165.514 62.6579 165.883 62.62 166.167 62.4687C166.457 62.3126 166.629 62.0679 166.685 61.7346C166.738 61.4131 166.658 61.1355 166.444 60.9019C166.237 60.6635 165.871 60.5006 165.345 60.4135L164.854 60.3322L164.955 59.7183L167.151 57.7754L167.216 58.1465L163.857 57.5903L163.983 56.8273L168.035 57.4983L167.936 58.0946L165.751 60.0302L165.34 59.6828L165.629 59.7308C166.371 59.8537 166.899 60.1123 167.212 60.5066C167.531 60.9018 167.648 61.3566 167.563 61.8711C167.506 62.216 167.369 62.5177 167.152 62.7761C166.935 63.0345 166.64 63.2199 166.267 63.3323C165.901 63.4398 165.454 63.45 164.928 63.3629ZM168.838 63.9383L174.046 58.4939L174.722 58.6057L169.513 64.0501L168.838 63.9383ZM169.8 61.1783C169.519 61.1319 169.282 61.0205 169.089 60.8444C168.896 60.6683 168.759 60.4443 168.678 60.1726C168.602 59.9019 168.592 59.5999 168.648 59.2666C168.703 58.9334 168.81 58.6508 168.968 58.4187C169.133 58.1877 169.335 58.0199 169.574 57.9154C169.814 57.8109 170.074 57.7819 170.354 57.8284C170.641 57.8758 170.878 57.9871 171.065 58.1623C171.258 58.3384 171.392 58.5619 171.467 58.8327C171.543 59.1034 171.553 59.4054 171.498 59.7386C171.442 60.0719 171.336 60.3545 171.177 60.5865C171.018 60.8186 170.819 60.9868 170.58 61.0913C170.346 61.1968 170.086 61.2258 169.8 61.1783ZM169.882 60.6785C170.151 60.723 170.379 60.6556 170.565 60.4761C170.751 60.2908 170.875 60.014 170.936 59.6457C170.997 59.2774 170.969 58.9783 170.851 58.7485C170.734 58.5129 170.541 58.3728 170.272 58.3283C170.009 58.2847 169.781 58.3551 169.588 58.5394C169.402 58.7188 169.279 58.9927 169.218 59.361C169.158 59.7235 169.186 60.0226 169.303 60.2582C169.426 60.4948 169.619 60.6349 169.882 60.6785ZM173.205 64.7156C172.925 64.6691 172.688 64.5578 172.495 64.3817C172.302 64.2056 172.167 63.9821 172.092 63.7114C172.017 63.4406 172.007 63.1386 172.062 62.8054C172.117 62.4721 172.224 62.1895 172.383 61.9575C172.541 61.7255 172.74 61.5572 172.98 61.4527C173.219 61.3482 173.479 61.3192 173.76 61.3657C174.046 61.4131 174.283 61.5244 174.471 61.6996C174.664 61.8757 174.798 62.0992 174.873 62.3699C174.954 62.6417 174.967 62.9442 174.912 63.2774C174.857 63.6106 174.747 63.8928 174.583 64.1238C174.424 64.3559 174.225 64.5241 173.985 64.6286C173.752 64.7341 173.492 64.7631 173.205 64.7156ZM173.288 64.2158C173.551 64.2593 173.776 64.1914 173.961 64.012C174.154 63.8276 174.281 63.5513 174.342 63.183C174.402 62.8205 174.371 62.521 174.248 62.2844C174.13 62.0487 173.94 61.9091 173.677 61.8656C173.414 61.822 173.186 61.8924 172.994 62.0767C172.808 62.2561 172.684 62.53 172.623 62.8983C172.562 63.2666 172.59 63.5686 172.707 63.8043C172.831 64.035 173.025 64.1722 173.288 64.2158Z" fill="#00B5FD" fill-opacity="0.7"/>
<g clip-path="url(#clip1_1_1168)">
<line x1="0.444444" y1="-0.444444" x2="229.335" y2="-0.444444" transform="matrix(0.986022 0.166616 -0.166434 0.986053 46.707 126.942)" stroke="white" stroke-opacity="0.1" stroke-width="0.888889" stroke-linecap="round" stroke-dasharray="2.67 2.67"/>
<line x1="0.444444" y1="-0.444444" x2="229.335" y2="-0.444444" transform="matrix(0.986022 0.166616 -0.166434 0.986053 49.9023 107.649)" stroke="white" stroke-opacity="0.1" stroke-width="0.888889" stroke-linecap="round" stroke-dasharray="2.67 2.67"/>
<line x1="0.444444" y1="-0.444444" x2="229.335" y2="-0.444444" transform="matrix(0.986022 0.166616 -0.166434 0.986053 53.0977 88.3547)" stroke="white" stroke-opacity="0.1" stroke-width="0.888889" stroke-linecap="round" stroke-dasharray="2.67 2.67"/>
<line x1="0.444444" y1="-0.444444" x2="229.335" y2="-0.444444" transform="matrix(0.986022 0.166616 -0.166434 0.986053 56.2927 69.0627)" stroke="white" stroke-opacity="0.1" stroke-width="0.888889" stroke-linecap="round" stroke-dasharray="2.67 2.67"/>
<path d="M157.105 127.937C141.988 127.149 74.5544 97.1238 46.0574 114.312L-3.16852 143.84L169.075 172.365L341.319 200.891L283.057 110.868C255.561 66.289 237.801 141.301 157.105 127.937Z" fill="url(#paint7_linear_1_1168)"/>
<path d="M45.7101 115.151C74.2072 97.9628 141.641 127.988 156.758 128.776C237.454 142.14 255.213 67.128 282.71 111.707" stroke="url(#paint8_linear_1_1168)" stroke-width="1.77778"/>
<g filter="url(#filter1_f_1_1168)">
<circle cx="237.915" cy="109.433" r="4.13675" transform="rotate(9.40357 237.915 109.433)" fill="#007AFD" fill-opacity="0.5"/>
</g>
<circle cx="237.915" cy="109.434" r="2.25641" transform="rotate(9.40357 237.915 109.434)" fill="#00DBFD"/>
</g>
<g clip-path="url(#clip2_1_1168)">
<path d="M52.4711 44.3253C52.8399 44.3114 53.2054 44.2791 53.5663 44.2292C53.6565 44.2167 53.7465 44.2031 53.8361 44.1885C54.0154 44.1592 54.1935 44.1254 54.3703 44.0875C54.4587 44.0685 54.5467 44.0485 54.6345 44.0274C54.8976 43.9641 55.1576 43.8914 55.414 43.8095C55.5849 43.7549 55.7542 43.6962 55.9218 43.6335C56.7598 43.3203 57.5545 42.9077 58.2893 42.4078C58.4362 42.3079 58.5807 42.2044 58.7227 42.0975C59.4328 41.5632 60.0796 40.9439 60.6462 40.2516C60.7595 40.1132 60.8697 39.9718 60.9765 39.8276C61.1367 39.6113 61.2894 39.3887 61.4341 39.16C61.4824 39.0838 61.5297 39.0069 61.5761 38.9293C61.669 38.7742 61.7584 38.6165 61.844 38.4562C61.8867 38.3761 61.9286 38.2953 61.9695 38.2139C62.1331 37.8883 62.2815 37.5528 62.4135 37.2081C62.6778 36.5187 62.8769 35.7925 63.0022 35.0358C63.1275 34.279 63.1732 33.5275 63.1454 32.7897C63.1315 32.4209 63.0991 32.0554 63.0493 31.6945C63.0367 31.6043 63.0232 31.5143 63.0085 31.4246C62.9792 31.2454 62.9455 31.0672 62.9076 30.8905C62.8886 30.8021 62.8685 30.714 62.8475 30.6263C62.7842 30.3632 62.7114 30.1032 62.6295 29.8468C62.5749 29.6759 62.5162 29.5065 62.4536 29.3389C62.1403 28.501 61.7277 27.7062 61.2279 26.9715C61.1279 26.8246 61.0244 26.68 60.9176 26.538C60.3832 25.8279 59.7639 25.1812 59.0716 24.6145C58.9332 24.5012 58.7918 24.391 58.6476 24.2843C58.4313 24.1241 58.2087 23.9714 57.98 23.8266C57.9038 23.7784 57.8269 23.7311 57.7493 23.6846C57.5942 23.5917 57.4365 23.5024 57.2762 23.4168C57.1961 23.374 57.1153 23.3321 57.0339 23.2913C56.7083 23.1277 56.3728 22.9793 56.0281 22.8472C55.3387 22.5829 54.6126 22.3839 53.8558 22.2586C52.2477 21.9922 50.6632 22.0856 49.1843 22.4798C49.0103 22.5261 48.8378 22.5767 48.6668 22.6313C48.4104 22.7132 48.1577 22.8043 47.9089 22.9042C47.7431 22.9708 47.579 23.0413 47.4169 23.1157C47.3358 23.1528 47.2553 23.191 47.1752 23.2301C47.0151 23.3082 46.8569 23.3902 46.7009 23.4758C46.5449 23.5615 46.3911 23.6507 46.2395 23.7436C46.0879 23.8365 45.9385 23.933 45.7916 24.033C45.6446 24.1329 45.5001 24.2364 45.3581 24.3433C44.648 24.8776 44.0013 25.4969 43.4346 26.1892C43.3213 26.3276 43.2112 26.469 43.1043 26.6132C42.9441 26.8295 42.7914 27.0521 42.6467 27.2808C42.5984 27.357 42.5511 27.4339 42.5047 27.5115C42.4118 27.6666 42.3224 27.8243 42.2369 27.9846C42.1941 28.0647 42.1522 28.1455 42.1113 28.2269C41.9477 28.5525 41.7994 28.888 41.6673 29.2326C41.4031 29.9221 41.204 30.6482 41.0787 31.405C40.9534 32.1617 40.9077 32.9133 40.9355 33.651C40.9494 34.0199 40.9818 34.3853 41.0316 34.7462C41.0442 34.8364 41.0577 34.9264 41.0724 35.0161C41.1017 35.1954 41.1354 35.3735 41.1733 35.5503C41.1923 35.6387 41.2124 35.7267 41.2334 35.8144C41.2967 36.0776 41.3695 36.3375 41.4514 36.5939C41.506 36.7648 41.5647 36.9342 41.6273 37.1018C41.9406 37.9398 42.3531 38.7345 42.853 39.4692C42.953 39.6161 43.0565 39.7607 43.1633 39.9027C43.2702 40.0447 43.3805 40.1842 43.494 40.321C43.6076 40.4578 43.7245 40.592 43.8445 40.7233C43.9646 40.8546 44.0879 40.9831 44.2143 41.1088C44.2774 41.1716 44.3414 41.2337 44.4062 41.295C44.5357 41.4176 44.6682 41.5372 44.8037 41.6538C45.007 41.8285 45.2169 41.9963 45.4332 42.1565C45.5775 42.2632 45.7244 42.3667 45.8742 42.4667C47.147 43.3166 48.6169 43.9158 50.225 44.1822C50.9818 44.3075 51.7333 44.3532 52.4711 44.3253ZM59.5207 33.3722C60.0889 33.4663 60.4725 34.0077 60.3784 34.576C60.2843 35.1442 59.7466 35.5331 59.1784 35.439L56.0711 34.9244C55.5028 34.8303 55.1193 34.2888 55.2134 33.7206C55.3075 33.1523 55.8451 32.7634 56.4134 32.8575L59.5207 33.3722ZM50.6034 40.1862C46.9761 39.3876 44.534 35.9133 45.0118 32.23C45.5382 28.1717 49.3324 25.3714 53.3365 26.0346C55.5079 26.3942 57.2867 27.731 58.3397 29.4682C58.7561 30.1551 58.1767 31.0144 57.3843 30.8832C57.1106 30.8378 56.8731 30.6725 56.7301 30.4347C55.9555 29.1475 54.6365 28.1704 53.027 27.9038C50.1389 27.4255 47.3974 29.4022 46.9191 32.2903C46.4408 35.1784 48.4018 37.9144 51.2899 38.3928C52.8492 38.651 54.3593 38.2307 55.5041 37.2765C55.7167 37.0993 55.9942 37.0202 56.2673 37.0655C57.0674 37.198 57.3397 38.2138 56.7108 38.7257C55.0712 40.0602 52.8548 40.6819 50.6034 40.1862Z" fill="url(#paint9_linear_1_1168)" fill-opacity="0.75"/>
</g>
<path d="M146.785 53.0432C146.664 52.8743 146.429 52.8354 146.26 52.9563L143.508 54.9264C143.339 55.0473 143.3 55.2822 143.421 55.4511C143.542 55.62 143.777 55.6589 143.946 55.538L146.392 53.7868L148.144 56.2332C148.264 56.402 148.499 56.4409 148.668 56.3201C148.837 56.1992 148.876 55.9642 148.755 55.7954L146.785 53.0432ZM145.373 59.9404L145.744 60.0018L146.85 53.3235L146.479 53.2621L146.108 53.2007L145.002 59.8789L145.373 59.9404Z" fill="#00B5FD" fill-opacity="0.7"/>
<path d="M238.446 104.186L237.129 100.681L240.823 101.292L238.446 104.186Z" fill="#00B3FD"/>
<g clip-path="url(#clip3_1_1168)">
<rect x="223.142" y="85.4337" width="36.3244" height="13.4054" rx="6.4865" transform="rotate(9.40357 223.142 85.4337)" fill="#00B3FD"/>
<path d="M228.836 96.6103L230.031 89.3918L230.415 89.4554L229.22 96.6739L228.836 96.6103ZM229.142 95.7616C228.743 95.6954 228.37 95.5678 228.022 95.3788C227.681 95.1855 227.427 94.9699 227.261 94.7321L227.557 94.3312C227.715 94.5469 227.943 94.745 228.239 94.9256C228.541 95.1019 228.869 95.2193 229.222 95.2778C229.56 95.3337 229.841 95.3381 230.064 95.291C230.294 95.2396 230.469 95.1502 230.59 95.023C230.716 94.8966 230.794 94.7464 230.823 94.5723C230.857 94.3624 230.824 94.1833 230.722 94.035C230.626 93.8875 230.486 93.7618 230.303 93.6579C230.121 93.5489 229.917 93.4467 229.691 93.3514C229.465 93.2561 229.239 93.1582 229.014 93.0578C228.79 92.9522 228.586 92.8292 228.405 92.6886C228.228 92.5489 228.092 92.3818 227.998 92.1874C227.91 91.9887 227.89 91.746 227.938 91.4593C227.982 91.1931 228.091 90.9614 228.266 90.7641C228.446 90.5626 228.694 90.4195 229.007 90.3347C229.322 90.2448 229.707 90.2376 230.163 90.313C230.465 90.3631 230.757 90.4562 231.04 90.5924C231.323 90.7235 231.56 90.881 231.75 91.0651L231.483 91.4864C231.279 91.2947 231.051 91.1413 230.802 91.0264C230.558 90.9124 230.316 90.8354 230.075 90.7956C229.753 90.7421 229.479 90.7416 229.255 90.7938C229.031 90.8461 228.855 90.938 228.728 91.0695C228.607 91.1967 228.531 91.3525 228.501 91.5368C228.466 91.7467 228.497 91.9254 228.593 92.0729C228.695 92.2212 228.837 92.3473 229.02 92.4512C229.208 92.556 229.415 92.656 229.641 92.7513C229.867 92.8466 230.09 92.9466 230.309 93.0513C230.534 93.1569 230.734 93.2795 230.911 93.4193C231.094 93.5547 231.229 93.7192 231.318 93.9128C231.412 94.1072 231.436 94.3452 231.389 94.6268C231.346 94.8878 231.234 95.1192 231.054 95.3207C230.874 95.5171 230.624 95.6598 230.304 95.7488C229.99 95.8336 229.603 95.8379 229.142 95.7616ZM232.778 96.3164L233.63 91.1713L233.833 91.4731L232.32 91.2225L232.401 90.7311L234.221 91.0325L233.331 96.4079L232.778 96.3164ZM235.56 96.7772L238.729 92.0315L238.857 92.3052L235.532 91.7546L235.861 91.5328L235.65 92.8076L235.105 92.7173L235.353 91.2198L239.3 91.8735L239.235 92.2652L236.159 96.8763L235.56 96.7772ZM238.578 98.4288L239.151 97.0641L239.158 97.4045C239.04 97.385 238.947 97.3301 238.878 97.2397C238.813 97.1502 238.792 97.044 238.812 96.9211C238.832 96.7983 238.887 96.7048 238.977 96.6407C239.071 96.5775 239.175 96.5552 239.288 96.5739C239.405 96.5934 239.493 96.65 239.551 96.7438C239.615 96.8384 239.637 96.9421 239.618 97.0547C239.611 97.0956 239.602 97.1362 239.59 97.1763C239.578 97.2164 239.56 97.2608 239.537 97.3094C239.513 97.3581 239.482 97.4161 239.445 97.4835L238.947 98.4899L238.578 98.4288ZM242.47 97.9689C242.04 97.8976 241.679 97.7747 241.387 97.6001C241.101 97.4264 240.892 97.2104 240.761 96.952C240.636 96.6894 240.6 96.3994 240.653 96.082C240.703 95.7748 240.826 95.5268 241.02 95.3381C241.221 95.1451 241.484 95.0152 241.811 94.9483C242.143 94.8823 242.529 94.8857 242.969 94.9586C243.404 95.0307 243.768 95.1514 244.061 95.3209C244.354 95.4904 244.564 95.6987 244.691 95.946C244.824 96.189 244.866 96.4641 244.815 96.7713C244.762 97.0887 244.632 97.3511 244.424 97.5586C244.217 97.761 243.947 97.8978 243.614 97.969C243.282 98.0401 242.9 98.0401 242.47 97.9689ZM242.548 97.5004C243.024 97.5793 243.411 97.5435 243.71 97.393C244.013 97.2434 244.193 97.0022 244.248 96.6695C244.303 96.3367 244.21 96.0531 243.97 95.8188C243.736 95.5802 243.381 95.4214 242.905 95.3426C242.429 95.2637 242.042 95.2995 241.743 95.45C241.446 95.5953 241.27 95.8344 241.214 96.1671C241.159 96.4999 241.249 96.7856 241.483 97.0242C241.717 97.2628 242.072 97.4216 242.548 97.5004ZM242.917 95.2735C242.517 95.2073 242.186 95.0972 241.922 94.943C241.663 94.7898 241.476 94.601 241.361 94.3767C241.247 94.1474 241.213 93.8919 241.259 93.6103C241.308 93.3134 241.427 93.0727 241.615 92.8882C241.81 92.6995 242.057 92.5721 242.357 92.5061C242.657 92.4402 242.997 92.4385 243.376 92.5013C243.755 92.564 244.076 92.675 244.338 92.8343C244.607 92.9944 244.802 93.1951 244.925 93.4364C245.049 93.6726 245.087 93.9391 245.037 94.236C244.991 94.5176 244.876 94.7485 244.694 94.9287C244.512 95.1038 244.269 95.2213 243.965 95.2813C243.665 95.3422 243.316 95.3396 242.917 95.2735ZM242.978 94.9049C243.398 94.9744 243.74 94.9416 244.004 94.8065C244.268 94.6715 244.425 94.4581 244.473 94.1662C244.524 93.8591 244.44 93.6007 244.223 93.391C244.011 93.1771 243.703 93.0367 243.298 92.9697C242.894 92.9027 242.557 92.9363 242.287 93.0705C242.019 93.1996 241.86 93.4152 241.81 93.7173C241.76 94.0142 241.837 94.2688 242.038 94.481C242.245 94.694 242.558 94.8353 242.978 94.9049ZM247.904 93.2512C248.38 93.3301 248.764 93.5041 249.056 93.7734C249.349 94.0376 249.547 94.3833 249.65 94.8106C249.753 95.2379 249.757 95.7357 249.663 96.3039C249.563 96.908 249.374 97.4 249.095 97.78C248.822 98.1607 248.483 98.4255 248.08 98.5744C247.677 98.7232 247.232 98.7574 246.745 98.6768C246.505 98.637 246.278 98.5758 246.066 98.4933C245.858 98.4116 245.676 98.3051 245.519 98.1739L245.815 97.7654C245.938 97.8805 246.086 97.9733 246.258 98.0439C246.437 98.1103 246.623 98.1596 246.818 98.1918C247.396 98.2876 247.888 98.1796 248.292 97.8678C248.701 97.5569 248.966 97.0353 249.087 96.3033C249.107 96.1855 249.122 96.0435 249.134 95.8771C249.151 95.7116 249.15 95.5431 249.131 95.3716L249.299 95.5493C249.204 95.8071 249.056 96.0166 248.855 96.1781C248.661 96.3353 248.433 96.4421 248.171 96.4987C247.914 96.5561 247.638 96.5602 247.341 96.5111C246.987 96.4526 246.684 96.3339 246.429 96.155C246.18 95.9769 245.998 95.7549 245.885 95.4888C245.771 95.2228 245.741 94.9259 245.795 94.5983C245.851 94.2604 245.979 93.9817 246.179 93.7623C246.378 93.5428 246.627 93.3895 246.925 93.3021C247.23 93.2105 247.556 93.1936 247.904 93.2512ZM247.85 93.7235C247.594 93.6811 247.358 93.692 247.142 93.7562C246.932 93.8161 246.757 93.9238 246.615 94.0792C246.474 94.2346 246.383 94.4326 246.343 94.6732C246.285 95.0265 246.358 95.328 246.564 95.5777C246.775 95.8283 247.088 95.988 247.503 96.0566C247.779 96.1024 248.028 96.0911 248.25 96.0226C248.477 95.955 248.661 95.8409 248.804 95.6804C248.951 95.5207 249.043 95.3308 249.08 95.1106C249.113 94.911 249.09 94.7152 249.011 94.5233C248.932 94.3315 248.797 94.1644 248.605 94.0221C248.414 93.8747 248.162 93.7752 247.85 93.7235ZM250.949 99.3256L251.801 94.1806L252.003 94.4824L250.49 94.2318L250.572 93.7404L252.392 94.0418L251.502 99.4172L250.949 99.3256Z" fill="white"/>
</g>
<path d="M283.094 67.4252L290.292 62.0784M290.292 62.0784L284.763 61.1627M290.292 62.0784L289.343 67.8062" stroke="white" stroke-width="0.888889" stroke-linecap="round" stroke-linejoin="round"/>
</g>
<defs>
<filter id="filter1_f_1_1168" x="232.273" y="103.792" width="11.2834" height="11.2833" filterUnits="userSpaceOnUse" color-interpolation-filters="sRGB">
<feFlood flood-opacity="0" result="BackgroundImageFix"/>
<feBlend mode="normal" in="SourceGraphic" in2="BackgroundImageFix" result="shape"/>
<feGaussianBlur stdDeviation="0.752137" result="effect1_foregroundBlur_1_1168"/>
</filter>
<linearGradient id="paint0_linear_1_1168" x1="65.9255" y1="2.16404e-06" x2="276.415" y2="170.314" gradientUnits="userSpaceOnUse">
<stop stop-color="white" stop-opacity="0.1"/>
<stop offset="1" stop-color="white" stop-opacity="0.05"/>
</linearGradient>
<linearGradient id="paint1_linear_1_1168" x1="24.0642" y1="134.399" x2="57.4578" y2="155.005" gradientUnits="userSpaceOnUse">
<stop stop-color="white" stop-opacity="0.1"/>
<stop offset="1" stop-color="white" stop-opacity="0.03"/>
</linearGradient>
<linearGradient id="paint2_linear_1_1168" x1="84.476" y1="141.541" x2="84.3954" y2="151.148" gradientUnits="userSpaceOnUse">
<stop stop-color="#7CE5FF"/>
<stop offset="1" stop-color="#005DFD"/>
</linearGradient>
<linearGradient id="paint3_linear_1_1168" x1="108.251" y1="148.341" x2="141.644" y2="168.948" gradientUnits="userSpaceOnUse">
<stop stop-color="white" stop-opacity="0.1"/>
<stop offset="1" stop-color="white" stop-opacity="0.03"/>
</linearGradient>
<linearGradient id="paint4_linear_1_1168" x1="150.344" y1="155.312" x2="183.738" y2="175.919" gradientUnits="userSpaceOnUse">
<stop stop-color="white" stop-opacity="0.1"/>
<stop offset="1" stop-color="white" stop-opacity="0.03"/>
</linearGradient>
<linearGradient id="paint5_linear_1_1168" x1="192.437" y1="162.284" x2="225.831" y2="182.89" gradientUnits="userSpaceOnUse">
<stop stop-color="white" stop-opacity="0.1"/>
<stop offset="1" stop-color="white" stop-opacity="0.03"/>
</linearGradient>
<linearGradient id="paint6_linear_1_1168" x1="234.531" y1="169.255" x2="267.924" y2="189.861" gradientUnits="userSpaceOnUse">
<stop stop-color="white" stop-opacity="0.1"/>
<stop offset="1" stop-color="white" stop-opacity="0.03"/>
</linearGradient>
<linearGradient id="paint7_linear_1_1168" x1="183.413" y1="83.2257" x2="172.062" y2="149.499" gradientUnits="userSpaceOnUse">
<stop stop-color="#008BFD" stop-opacity="0.35"/>
<stop offset="1" stop-color="#0050FD" stop-opacity="0.02"/>
</linearGradient>
<linearGradient id="paint8_linear_1_1168" x1="288.575" y1="133.834" x2="56.5049" y2="95.4004" gradientUnits="userSpaceOnUse">
<stop stop-color="#00D3FD"/>
<stop offset="1" stop-color="#0048FD" stop-opacity="0.4"/>
</linearGradient>
<linearGradient id="paint9_linear_1_1168" x1="53.8559" y1="22.2586" x2="50.225" y2="44.1822" gradientUnits="userSpaceOnUse">
<stop stop-color="white"/>
<stop offset="1" stop-color="#999999"/>
</linearGradient>
<clipPath id="clip0_1_1168">
<rect x="28.2598" width="286.445" height="170.489" rx="7.52137" transform="rotate(9.40357 28.2598 0)" fill="white"/>
</clipPath>
<clipPath id="clip1_1_1168">
<rect width="229.026" height="71.8291" fill="white" transform="translate(58.5093 60.2816) rotate(9.40357)"/>
</clipPath>
<clipPath id="clip2_1_1168">
<rect width="22.2222" height="22.2222" fill="white" transform="translate(64.8176 24.074) rotate(99.4036)"/>
</clipPath>
<clipPath id="clip3_1_1168">
<rect x="223.142" y="85.4337" width="36.3244" height="13.4054" rx="6.4865" transform="rotate(9.40357 223.142 85.4337)" fill="white"/>
</clipPath>
</defs>
</svg>
