<svg width="192" height="185" viewBox="0 0 192 185" fill="none" xmlns="http://www.w3.org/2000/svg">
<rect y="18.2297" width="174.495" height="167.331" rx="13.3333" transform="rotate(-5.99669 0 18.2297)" fill="white" fill-opacity="0.1"/>
<path d="M39.9167 141.273L42.4384 165.279" stroke="url(#paint0_linear_1_1658)" stroke-width="1.60917" stroke-linecap="round"/>
<path d="M36.4978 141.632L39.0195 165.637" stroke="url(#paint1_linear_1_1658)" stroke-width="1.60917" stroke-linecap="round"/>
<path d="M43.3311 140.914L45.8527 164.92" stroke="url(#paint2_linear_1_1658)" stroke-width="1.60917" stroke-linecap="round"/>
<path d="M50.1653 140.197L52.687 164.202" stroke="url(#paint3_linear_1_1658)" stroke-width="1.60917" stroke-linecap="round"/>
<path d="M46.751 140.556L49.2727 164.561" stroke="url(#paint4_linear_1_1658)" stroke-width="1.60917" stroke-linecap="round"/>
<path d="M53.5842 139.837L56.1059 163.842" stroke="url(#paint5_linear_1_1658)" stroke-width="1.60917" stroke-linecap="round"/>
<path d="M60.4187 139.119L62.9404 163.125" stroke="url(#paint6_linear_1_1658)" stroke-width="1.60917" stroke-linecap="round"/>
<path d="M56.9998 139.478L59.5214 163.484" stroke="url(#paint7_linear_1_1658)" stroke-width="1.60917" stroke-linecap="round"/>
<path d="M63.834 138.76L66.3557 162.766" stroke="url(#paint8_linear_1_1658)" stroke-width="1.60917" stroke-linecap="round"/>
<path d="M70.6687 138.043L73.1904 162.048" stroke="url(#paint9_linear_1_1658)" stroke-width="1.60917" stroke-linecap="round"/>
<path d="M67.2522 138.401L69.7739 162.407" stroke="url(#paint10_linear_1_1658)" stroke-width="1.60917" stroke-linecap="round"/>
<path d="M74.0857 137.684L76.6074 161.689" stroke="url(#paint11_linear_1_1658)" stroke-width="1.60917" stroke-linecap="round"/>
<path d="M80.9202 136.966L83.4418 160.972" stroke="url(#paint12_linear_1_1658)" stroke-width="1.60917" stroke-linecap="round"/>
<path d="M77.5049 137.325L80.0266 161.33" stroke="url(#paint13_linear_1_1658)" stroke-width="1.60917" stroke-linecap="round"/>
<path d="M84.3384 136.606L86.8601 160.612" stroke="url(#paint14_linear_1_1658)" stroke-width="1.60917" stroke-linecap="round"/>
<path d="M91.1729 135.889L93.6945 159.894" stroke="url(#paint15_linear_1_1658)" stroke-width="1.60917" stroke-linecap="round"/>
<path d="M87.7539 136.247L90.2756 160.253" stroke="url(#paint16_linear_1_1658)" stroke-width="1.60917" stroke-linecap="round"/>
<path d="M94.5881 135.53L97.1098 159.535" stroke="url(#paint17_linear_1_1658)" stroke-width="1.60917" stroke-linecap="round"/>
<path d="M101.422 134.812L103.943 158.818" stroke="url(#paint18_linear_1_1658)" stroke-width="1.60917" stroke-linecap="round"/>
<path d="M98.0066 135.171L100.528 159.176" stroke="url(#paint19_linear_1_1658)" stroke-width="1.60917" stroke-linecap="round"/>
<path d="M108.258 134.094L110.779 158.1" stroke="url(#paint20_linear_1_1658)" stroke-width="1.60917" stroke-linecap="round"/>
<path d="M104.841 134.453L107.362 158.459" stroke="url(#paint21_linear_1_1658)" stroke-width="1.60917" stroke-linecap="round"/>
<path d="M111.674 133.735L114.196 157.741" stroke="url(#paint22_linear_1_1658)" stroke-width="1.60917" stroke-linecap="round"/>
<path d="M118.508 133.017L121.03 157.022" stroke="url(#paint23_linear_1_1658)" stroke-width="1.60917" stroke-linecap="round"/>
<path d="M115.094 133.376L117.615 157.381" stroke="url(#paint24_linear_1_1658)" stroke-width="1.60917" stroke-linecap="round"/>
<path d="M121.927 132.658L124.449 156.663" stroke="url(#paint25_linear_1_1658)" stroke-width="1.60917" stroke-linecap="round"/>
<path d="M128.762 131.94L131.284 155.946" stroke="url(#paint26_linear_1_1658)" stroke-width="1.60917" stroke-linecap="round"/>
<path d="M125.343 132.299L127.864 156.304" stroke="url(#paint27_linear_1_1658)" stroke-width="1.60917" stroke-linecap="round"/>
<path d="M132.176 131.582L134.698 155.587" stroke="url(#paint28_linear_1_1658)" stroke-width="1.60917" stroke-linecap="round"/>
<path d="M139.01 130.864L141.531 154.869" stroke="url(#paint29_linear_1_1658)" stroke-width="1.60917" stroke-linecap="round"/>
<path d="M135.596 131.223L138.118 155.228" stroke="url(#paint30_linear_1_1658)" stroke-width="1.60917" stroke-linecap="round"/>
<path d="M142.429 130.505L144.95 154.51" stroke="url(#paint31_linear_1_1658)" stroke-width="1.60917" stroke-linecap="round"/>
<path d="M149.262 129.786L151.784 153.792" stroke="url(#paint32_linear_1_1658)" stroke-width="1.60917" stroke-linecap="round"/>
<path d="M145.848 130.145L148.369 154.151" stroke="url(#paint33_linear_1_1658)" stroke-width="1.60917" stroke-linecap="round"/>
<path d="M152.683 129.427L155.205 153.433" stroke="url(#paint34_linear_1_1658)" stroke-width="1.60917" stroke-linecap="round"/>
<path d="M159.517 128.71L162.038 152.715" stroke="url(#paint35_linear_1_1658)" stroke-width="1.60917" stroke-linecap="round"/>
<path d="M156.096 129.068L158.618 153.074" stroke="url(#paint36_linear_1_1658)" stroke-width="1.60917" stroke-linecap="round"/>
<path d="M162.93 128.351L165.452 152.356" stroke="url(#paint37_linear_1_1658)" stroke-width="1.60917" stroke-linecap="round"/>
<path d="M169.765 127.633L172.286 151.639" stroke="url(#paint38_linear_1_1658)" stroke-width="1.60917" stroke-linecap="round"/>
<path d="M166.351 127.992L168.873 151.997" stroke="url(#paint39_linear_1_1658)" stroke-width="1.60917" stroke-linecap="round"/>
<path d="M31.3351 105.159L33.8146 97.6912L34.8229 97.5853L38.8103 104.374L37.741 104.486L34.1699 98.2305L34.5772 98.1877L32.3841 105.049L31.3351 105.159ZM32.5228 103.233L32.7121 102.389L36.7247 101.968L37.1056 102.751L32.5228 103.233ZM40.8683 104.158L37.9386 99.0085L38.957 98.9015L41.5684 103.569L41.0796 103.621L42.7048 98.5078L43.6621 98.4072L41.8663 104.053L40.8683 104.158ZM47.569 105.513C47.0734 105.565 46.5838 105.545 46.1004 105.451C45.6244 105.364 45.2269 105.207 44.9079 104.979L45.2972 104.177C45.5712 104.367 45.898 104.505 46.2775 104.588C46.6576 104.679 47.048 104.703 47.4486 104.661C48.0868 104.594 48.5396 104.395 48.8069 104.065C49.0743 103.735 49.1759 103.265 49.1117 102.654L48.9919 101.513L48.9814 100.433L48.8171 99.3587L48.6619 97.882L49.5887 97.7847L50.0787 102.449C50.1785 103.4 50.0143 104.124 49.5862 104.622C49.158 105.12 48.4856 105.417 47.569 105.513ZM47.2093 103.265C46.6865 103.32 46.2066 103.261 45.7697 103.087C45.3387 102.906 44.9804 102.631 44.6946 102.263C44.4156 101.894 44.249 101.452 44.1948 100.936C44.1399 100.413 44.2109 99.9455 44.4079 99.5336C44.611 99.1141 44.9048 98.7744 45.2893 98.5143C45.6806 98.2535 46.1377 98.0957 46.6605 98.0408C47.1222 97.9923 47.5531 98.0431 47.9533 98.1933C48.3527 98.3366 48.6848 98.5901 48.9495 98.9535C49.221 99.3163 49.3878 99.793 49.4499 100.384C49.5112 100.968 49.4468 101.465 49.2566 101.876C49.0732 102.287 48.8017 102.611 48.4422 102.847C48.0819 103.077 47.671 103.217 47.2093 103.265ZM47.2315 102.398C47.5913 102.36 47.9026 102.252 48.1652 102.073C48.4279 101.895 48.6234 101.665 48.7518 101.384C48.8869 101.102 48.9363 100.788 48.8999 100.441C48.8635 100.095 48.75 99.7982 48.5592 99.5505C48.3752 99.3022 48.1366 99.1213 47.8432 99.008C47.5492 98.8878 47.2222 98.8467 46.8624 98.8845C46.5025 98.9223 46.1879 99.0308 45.9184 99.2102C45.655 99.382 45.4558 99.6088 45.3206 99.8907C45.1923 100.172 45.1463 100.486 45.1827 100.832C45.2191 101.178 45.3292 101.476 45.5132 101.724C45.704 101.972 45.9464 102.155 46.2404 102.276C46.5413 102.395 46.8716 102.436 47.2315 102.398ZM56.3132 102.597C55.8651 102.644 55.4309 102.628 55.0107 102.549C54.5973 102.469 54.2659 102.352 54.0165 102.2L54.3426 101.383C54.5898 101.515 54.8889 101.618 55.2398 101.691C55.5907 101.764 55.9426 101.782 56.2957 101.744C56.7506 101.697 57.0697 101.598 57.253 101.448C57.4432 101.298 57.5261 101.107 57.5019 100.876C57.484 100.707 57.409 100.581 57.2768 100.498C57.1446 100.416 56.9742 100.362 56.7655 100.336C56.5636 100.309 56.3387 100.292 56.0907 100.283C55.842 100.268 55.5926 100.246 55.3425 100.218C55.0916 100.182 54.859 100.124 54.6446 100.044C54.4296 99.9567 54.2513 99.8278 54.1098 99.6573C53.9676 99.4801 53.8801 99.2353 53.8473 98.923C53.8131 98.5971 53.8748 98.3023 54.0324 98.0386C54.1901 97.7749 54.4285 97.5611 54.7476 97.3972C55.0728 97.2257 55.4662 97.1158 55.9279 97.0673C56.281 97.0302 56.6421 97.0369 57.0112 97.0873C57.3864 97.1303 57.6976 97.2177 57.9448 97.3496L57.6086 98.1675C57.347 98.0302 57.0807 97.9449 56.8095 97.9116C56.5383 97.8784 56.2703 97.8756 56.0055 97.9034C55.5777 97.9484 55.2661 98.0532 55.0706 98.2179C54.8744 98.3758 54.7877 98.5633 54.8105 98.7806C54.8298 98.9639 54.9059 99.1001 55.0388 99.1891C55.1778 99.2706 55.3486 99.3282 55.5512 99.3618C55.7606 99.3947 55.9896 99.4187 56.2383 99.4338C56.4863 99.442 56.7357 99.4639 56.9865 99.4993C57.2367 99.528 57.4655 99.5829 57.6731 99.664C57.8875 99.7445 58.0654 99.8699 58.2069 100.04C58.3551 100.21 58.4453 100.448 58.4774 100.753C58.5116 101.079 58.4462 101.371 58.281 101.629C58.1159 101.886 57.8673 102.101 57.5353 102.273C57.2026 102.439 56.7952 102.547 56.3132 102.597ZM62.2198 101.977C61.6698 102.035 61.1651 101.967 60.7056 101.775C60.2529 101.583 59.8826 101.292 59.5947 100.904C59.3068 100.515 59.1346 100.053 59.0783 99.5164C59.0219 98.98 59.0942 98.4919 59.2951 98.0521C59.4961 97.6123 59.7983 97.2545 60.2017 96.9787C60.6113 96.6954 61.0911 96.5249 61.641 96.4671C62.1298 96.4158 62.5747 96.4686 62.9756 96.6255C63.3826 96.775 63.7113 97.0288 63.9617 97.3869L63.2685 97.9436C63.0642 97.6974 62.8266 97.5267 62.5557 97.4316C62.291 97.329 62.0126 97.293 61.7207 97.3237C61.3676 97.3608 61.0601 97.472 60.7982 97.6574C60.5362 97.8428 60.3387 98.0866 60.2057 98.3889C60.072 98.6844 60.0255 99.0256 60.0662 99.4126C60.1068 99.7996 60.2236 100.127 60.4165 100.395C60.6094 100.663 60.8532 100.861 61.148 100.988C61.4428 101.115 61.7667 101.159 62.1197 101.122C62.4117 101.092 62.6768 101.002 62.9152 100.853C63.1596 100.697 63.3562 100.478 63.5049 100.194L64.2976 100.585C64.1263 100.98 63.8579 101.3 63.4923 101.544C63.1328 101.781 62.7086 101.925 62.2198 101.977ZM67.9176 101.378C67.3744 101.435 66.8799 101.367 66.434 101.174C65.9881 100.98 65.6212 100.689 65.3332 100.301C65.0446 99.9056 64.8725 99.4432 64.8168 98.9136C64.7605 98.3772 64.8328 97.8891 65.0337 97.4493C65.2346 97.0095 65.5334 96.652 65.9301 96.377C66.3261 96.0951 66.7957 95.9257 67.3388 95.8686C67.8752 95.8123 68.3663 95.8808 68.8122 96.0742C69.2642 96.2601 69.6308 96.5477 69.9119 96.9369C70.1991 97.3185 70.3712 97.781 70.4283 98.3241C70.4846 98.8605 70.4124 99.3486 70.2114 99.7884C70.0173 100.228 69.7189 100.588 69.3161 100.871C68.9201 101.153 68.4539 101.322 67.9176 101.378ZM67.8277 100.523C68.174 100.486 68.4747 100.376 68.7299 100.191C68.9918 100.006 69.1859 99.7623 69.3121 99.4607C69.4376 99.1524 69.4804 98.8081 69.4404 98.4279C69.3998 98.0409 69.2868 97.7164 69.1014 97.4545C68.9152 97.1857 68.6748 96.9879 68.38 96.861C68.0921 96.7333 67.7749 96.6877 67.4287 96.7241C67.0824 96.7604 66.7817 96.871 66.5265 97.0557C66.2713 97.2403 66.0773 97.4838 65.9443 97.7861C65.8106 98.0816 65.764 98.4228 65.8047 98.8098C65.8446 99.19 65.9614 99.5175 66.155 99.7924C66.3479 100.06 66.5884 100.258 66.8763 100.386C67.1643 100.514 67.4814 100.559 67.8277 100.523ZM72.0639 100.881L71.4969 95.4833L72.4339 95.3849L72.5879 96.8514L72.4577 96.4944C72.5679 96.1053 72.7891 95.7937 73.1215 95.5598C73.4539 95.3258 73.8781 95.1817 74.3941 95.1275L74.4935 96.0746C74.4521 96.0721 74.411 96.073 74.3703 96.0773C74.3363 96.0808 74.3024 96.0844 74.2684 96.088C73.7456 96.1429 73.3479 96.3425 73.0752 96.6869C72.8024 97.0314 72.6971 97.4989 72.7592 98.0896L73.0416 100.778L72.0639 100.881ZM78.5315 100.263C77.9544 100.324 77.4328 100.259 76.9665 100.067C76.507 99.8753 76.1333 99.5851 75.8454 99.1966C75.5642 98.8074 75.3955 98.3446 75.3391 97.8083C75.2828 97.2719 75.3483 96.7845 75.5356 96.3461C75.7298 95.907 76.0184 95.5506 76.4015 95.277C76.7907 94.9958 77.2433 94.8282 77.7593 94.774C78.2821 94.7191 78.7559 94.786 79.1807 94.9747C79.6055 95.1635 79.9521 95.4566 80.2203 95.854C80.4947 96.2439 80.6611 96.7172 80.7196 97.274C80.7239 97.3147 80.7255 97.3626 80.7244 97.4176C80.7301 97.4719 80.732 97.5232 80.7302 97.5714L76.1372 98.0539L76.0634 97.3512L80.1472 96.9222L79.7757 97.2084C79.7461 96.8614 79.6424 96.56 79.4645 96.3041C79.2866 96.0482 79.0574 95.8595 78.7769 95.7379C78.5025 95.6089 78.1922 95.5625 77.8459 95.5989C77.5065 95.6345 77.2125 95.7444 76.9642 95.9283C76.7151 96.1055 76.5304 96.3411 76.4103 96.6352C76.2895 96.9225 76.2476 97.2426 76.2847 97.5957L76.3018 97.7586C76.3396 98.1185 76.455 98.4324 76.6479 98.7004C76.8468 98.961 77.1039 99.1536 77.419 99.2784C77.7342 99.4032 78.0852 99.4453 78.4722 99.4046C78.7913 99.3711 79.0742 99.2865 79.3208 99.1507C79.5741 99.0143 79.7879 98.8271 79.9619 98.5891L80.568 99.1639C80.3536 99.4747 80.0709 99.724 79.7199 99.9119C79.3758 100.099 78.9796 100.216 78.5315 100.263ZM87.1864 100.528L86.1808 90.9548L86.8326 90.8863L87.8382 100.459L87.1864 100.528ZM87.3212 99.3606C86.778 99.4176 86.2501 99.3907 85.7373 99.2798C85.2239 99.1621 84.8107 98.9859 84.4977 98.7511L84.7911 97.9171C85.0876 98.1262 85.4545 98.2867 85.8919 98.3987C86.3292 98.5106 86.7754 98.5427 87.2303 98.4949C87.6444 98.4514 87.9755 98.3686 88.2235 98.2464C88.4715 98.1243 88.6481 97.9753 88.7532 97.7995C88.8576 97.6169 88.8987 97.4204 88.8766 97.2099C88.8509 96.9655 88.7487 96.7772 88.5701 96.6449C88.3983 96.512 88.1787 96.4149 87.9114 96.3537C87.6502 96.2851 87.3633 96.2328 87.0507 96.197C86.738 96.1612 86.4209 96.1156 86.0993 96.0602C85.7838 95.9972 85.4895 95.908 85.2166 95.7925C84.9504 95.6763 84.7267 95.5076 84.5456 95.2864C84.3638 95.0584 84.2529 94.7543 84.2129 94.374C84.1744 94.0074 84.2342 93.6614 84.3922 93.3359C84.5563 93.0029 84.829 92.7237 85.2103 92.4983C85.5977 92.2654 86.1037 92.1161 86.7283 92.0505C87.1425 92.007 87.559 92.0182 87.9777 92.084C88.3965 92.1498 88.766 92.2689 89.0861 92.4412L88.8356 93.2913C88.5087 93.1197 88.1709 93.0076 87.8221 92.955C87.4727 92.8956 87.1384 92.8826 86.8193 92.9162C86.4187 92.9582 86.0948 93.0438 85.8475 93.1727C85.6002 93.3016 85.4243 93.4574 85.3199 93.64C85.2223 93.8218 85.1846 94.018 85.2067 94.2285C85.2331 94.4797 85.3322 94.6718 85.5041 94.8047C85.6827 94.937 85.9023 95.034 86.1627 95.0959C86.43 95.1571 86.7203 95.209 87.0337 95.2515C87.3464 95.2873 87.6601 95.3333 87.9749 95.3895C88.2965 95.445 88.5904 95.5308 88.8565 95.647C89.1295 95.7624 89.3566 95.9308 89.5377 96.152C89.7188 96.3732 89.829 96.6706 89.8682 97.044C89.906 97.4038 89.8429 97.7503 89.6788 98.0832C89.514 98.4095 89.2345 98.6894 88.8403 98.923C88.4522 99.1491 87.9458 99.2949 87.3212 99.3606ZM92.0822 98.7781L91.3761 92.0565L91.8643 92.4892L89.8173 92.7042L89.7242 91.8182L92.3415 91.5432L93.0904 98.6722L92.0822 98.7781ZM95.8515 98.3821L95.1454 91.6606L95.6336 92.0932L93.5866 92.3082L93.4935 91.4222L96.1109 91.1473L96.8597 98.2762L95.8515 98.3821ZM98.3071 98.1242L98.2343 97.4316L100.843 94.3261C101.075 94.0546 101.243 93.8207 101.346 93.6246C101.455 93.4209 101.521 93.2389 101.546 93.0784C101.576 92.9105 101.583 92.7519 101.568 92.6025C101.529 92.2359 101.37 91.9609 101.09 91.7775C100.81 91.5941 100.422 91.5285 99.9261 91.5805C99.5459 91.6205 99.2098 91.721 98.9178 91.8821C98.6252 92.0364 98.3807 92.2577 98.1845 92.546L97.4288 92.0179C97.664 91.6431 97.9994 91.3402 98.4351 91.1091C98.8768 90.8705 99.3726 90.7223 99.9226 90.6645C100.418 90.6124 100.858 90.6486 101.242 90.7731C101.625 90.8907 101.93 91.0886 102.159 91.3666C102.394 91.6439 102.533 91.9863 102.575 92.3937C102.6 92.6245 102.593 92.8552 102.555 93.0856C102.518 93.3161 102.427 93.5659 102.284 93.8349C102.141 94.1039 101.926 94.4114 101.64 94.7572L99.3149 97.5241L99.0287 97.1526L103.337 96.7L103.43 97.5861L98.3071 98.1242ZM104.576 98.9896L104.869 96.8789L105.063 97.4556C104.866 97.4763 104.694 97.4327 104.545 97.3247C104.403 97.2161 104.321 97.0565 104.299 96.846C104.278 96.6424 104.325 96.4692 104.44 96.3267C104.562 96.1834 104.719 96.1018 104.909 96.0818C105.106 96.0612 105.272 96.1123 105.409 96.2352C105.545 96.3514 105.623 96.5079 105.643 96.7048C105.651 96.7727 105.651 96.8413 105.644 96.9107C105.644 96.9725 105.635 97.0489 105.617 97.1401C105.605 97.2237 105.582 97.3291 105.547 97.4563L105.217 98.9222L104.576 98.9896ZM107.777 97.1294L110.098 90.1105L110.411 90.541L106.174 90.986L106.631 90.4335L106.817 92.2055L105.839 92.3082L105.612 90.1492L110.99 89.5843L111.062 90.2769L108.856 97.016L107.777 97.1294ZM115.354 96.4159C114.797 96.4744 114.283 96.3842 113.812 96.1454C113.347 95.9059 112.957 95.5281 112.642 95.0121C112.334 94.4953 112.139 93.8499 112.058 93.0759C111.977 92.3019 112.033 91.6301 112.227 91.0606C112.428 90.4903 112.731 90.0398 113.135 89.709C113.547 89.3775 114.031 89.1825 114.588 89.124C115.137 89.0662 115.648 89.1568 116.119 89.3956C116.591 89.6344 116.98 90.0121 117.289 90.5289C117.597 91.0457 117.792 91.6911 117.873 92.4651C117.954 93.239 117.898 93.9108 117.704 94.4804C117.51 95.0499 117.207 95.5004 116.795 95.832C116.384 96.1635 115.903 96.3581 115.354 96.4159ZM115.258 95.5095C115.632 95.4703 115.947 95.3342 116.204 95.1013C116.468 94.8676 116.656 94.5389 116.77 94.1151C116.89 93.6907 116.918 93.1763 116.855 92.572C116.791 91.9678 116.657 91.4705 116.451 91.0803C116.252 90.6893 115.999 90.407 115.693 90.2332C115.393 90.0588 115.056 89.9912 114.683 90.0304C114.309 90.0696 113.991 90.2061 113.727 90.4397C113.463 90.6733 113.271 91.0024 113.151 91.4269C113.038 91.8507 113.013 92.3647 113.076 92.9689C113.14 93.5732 113.271 94.0708 113.47 94.4618C113.676 94.852 113.932 95.134 114.238 95.3077C114.545 95.4815 114.885 95.5487 115.258 95.5095ZM122.146 95.7023C121.59 95.7608 121.076 95.6707 120.604 95.4319C120.14 95.1923 119.75 94.8146 119.435 94.2985C119.127 93.7817 118.932 93.1364 118.851 92.3624C118.769 91.5884 118.826 90.9166 119.02 90.347C119.221 89.7768 119.524 89.3263 119.928 88.9955C120.34 88.6639 120.824 88.4689 121.38 88.4105C121.93 88.3527 122.441 88.4432 122.912 88.682C123.383 88.9208 123.773 89.2986 124.081 89.8154C124.39 90.3321 124.584 90.9775 124.666 91.7515C124.747 92.5255 124.691 93.1973 124.497 93.7668C124.302 94.3364 124 94.7869 123.588 95.1184C123.177 95.4499 122.696 95.6446 122.146 95.7023ZM122.051 94.7959C122.424 94.7567 122.74 94.6206 122.997 94.3877C123.26 94.1541 123.449 93.8254 123.562 93.4016C123.682 92.9771 123.711 92.4627 123.647 91.8585C123.584 91.2542 123.449 90.757 123.244 90.3667C123.045 89.9758 122.792 89.6934 122.485 89.5197C122.186 89.3452 121.849 89.2776 121.476 89.3169C121.102 89.3561 120.783 89.4925 120.52 89.7261C120.256 89.9598 120.064 90.2888 119.944 90.7133C119.83 91.1371 119.806 91.6511 119.869 92.2554C119.933 92.8596 120.064 93.3572 120.263 93.7482C120.468 94.1385 120.725 94.4205 121.031 94.5942C121.338 94.7679 121.678 94.8352 122.051 94.7959Z" fill="white"/>
<path d="M29.7932 47.3015C29.2501 47.3586 28.7384 47.3231 28.2581 47.195C27.784 47.0595 27.3601 46.8466 26.9864 46.5564C26.6187 46.2587 26.3167 45.8991 26.0802 45.4778C25.8438 45.0564 25.6977 44.581 25.6421 44.0514C25.5865 43.5218 25.6305 43.0264 25.7743 42.5651C25.918 42.1038 26.1425 41.6924 26.4477 41.3308C26.7523 40.9625 27.1227 40.6662 27.559 40.4419C28.0015 40.2101 28.4943 40.0656 29.0374 40.0086C29.5874 39.9508 30.1032 39.9927 30.5848 40.1343C31.0725 40.2684 31.4986 40.5017 31.863 40.8341L31.2684 41.5452C30.9669 41.2886 30.6393 41.1102 30.2855 41.0101C29.9311 40.9032 29.5604 40.87 29.1734 40.9107C28.7728 40.9528 28.4065 41.0599 28.0745 41.232C27.7493 41.4035 27.4739 41.6246 27.2484 41.8954C27.0229 42.1662 26.8566 42.4789 26.7497 42.8333C26.6489 43.1803 26.6191 43.5506 26.6605 43.9444C26.7019 44.3382 26.8083 44.6977 26.9797 45.0229C27.1572 45.3406 27.3844 45.6085 27.6613 45.8265C27.9382 46.0445 28.2535 46.2036 28.6073 46.3038C28.9678 46.4032 29.3483 46.4318 29.7489 46.3898C30.1359 46.3491 30.492 46.2431 30.8172 46.0716C31.1417 45.8934 31.4244 45.644 31.6653 45.3235L32.3947 45.8956C32.1073 46.2965 31.7394 46.6166 31.2909 46.8559C30.8492 47.0945 30.3499 47.243 29.7932 47.3015ZM33.8141 46.7967L33.0203 39.2401L33.998 39.1374L34.7918 46.694L33.8141 46.7967ZM36.6585 46.498L36.0915 41.1003L37.0692 40.9976L37.6362 46.3953L36.6585 46.498ZM36.4712 40.0102C36.2811 40.0302 36.1151 39.9858 35.9733 39.8772C35.8383 39.7678 35.7615 39.6249 35.7429 39.4483C35.7237 39.265 35.7687 39.1058 35.8781 38.9708C35.9943 38.835 36.1474 38.7572 36.3375 38.7372C36.5276 38.7172 36.6902 38.7619 36.8252 38.8713C36.9663 38.9732 37.0462 39.1124 37.0647 39.2889C37.084 39.4722 37.0393 39.6348 36.9306 39.7766C36.8212 39.9117 36.6681 39.9895 36.4712 40.0102ZM41.9128 46.0078C41.3357 46.0684 40.814 46.0031 40.3477 45.8118C39.8882 45.6198 39.5145 45.3296 39.2266 44.9411C38.9455 44.5519 38.7767 44.0891 38.7204 43.5528C38.664 43.0164 38.7295 42.529 38.9169 42.0906C39.111 41.6515 39.3996 41.2951 39.7827 41.0215C40.1719 40.7404 40.6245 40.5727 41.1405 40.5185C41.6633 40.4636 42.1371 40.5305 42.5619 40.7193C42.9868 40.908 43.3333 41.2011 43.6016 41.5985C43.8759 41.9884 44.0423 42.4617 44.1008 43.0185C44.1051 43.0592 44.1067 43.1071 44.1056 43.1621C44.1113 43.2164 44.1133 43.2677 44.1115 43.316L39.5184 43.7984L39.4446 43.0957L43.5285 42.6667L43.1569 42.9529C43.1274 42.6059 43.0236 42.3045 42.8457 42.0486C42.6678 41.7927 42.4386 41.604 42.1582 41.4824C41.8838 41.3534 41.5734 41.307 41.2272 41.3434C40.8877 41.3791 40.5938 41.4889 40.3454 41.6728C40.0963 41.85 39.9117 42.0857 39.7915 42.3797C39.6707 42.667 39.6288 42.9871 39.6659 43.3402L39.683 43.5031C39.7208 43.863 39.8362 44.1769 40.0291 44.445C40.2281 44.7055 40.4851 44.8982 40.8003 45.0229C41.1154 45.1477 41.4665 45.1898 41.8535 45.1491C42.1726 45.1156 42.4554 45.031 42.702 44.8952C42.9554 44.7588 43.1691 44.5716 43.3432 44.3336L43.9493 44.9084C43.7348 45.2192 43.4521 45.4686 43.1012 45.6564C42.757 45.8436 42.3609 45.9607 41.9128 46.0078ZM48.0485 39.7928C48.4898 39.7465 48.8857 39.7907 49.2362 39.9255C49.5935 40.0596 49.8854 40.2897 50.1119 40.616C50.3384 40.9423 50.4794 41.3703 50.5351 41.8998L50.8613 45.006L49.8837 45.1087L49.5691 42.1146C49.5142 41.5918 49.3439 41.2115 49.0581 40.9738C48.779 40.7354 48.4087 40.6405 47.947 40.689C47.6007 40.7254 47.3057 40.825 47.062 40.9879C46.8183 41.1508 46.639 41.3721 46.5242 41.6519C46.4163 41.9309 46.383 42.2673 46.4243 42.6611L46.7164 45.4414L45.7387 45.5441L45.1717 40.1465L46.1087 40.0481L46.2616 41.5044L46.0682 41.1335C46.2077 40.7619 46.4504 40.4584 46.7963 40.223C47.1423 39.9876 47.5596 39.8442 48.0485 39.7928ZM54.5306 44.6823C53.9875 44.7394 53.5512 44.6376 53.2218 44.3771C52.8924 44.1165 52.6992 43.7146 52.6421 43.1715L52.1222 38.222L53.0999 38.1193L53.6155 43.0281C53.6462 43.32 53.741 43.5366 53.9 43.6777C54.0658 43.8182 54.2844 43.8742 54.556 43.8457C54.8615 43.8136 55.1072 43.7019 55.2931 43.5108L55.6724 44.1814C55.5366 44.3261 55.3667 44.4401 55.1626 44.5233C54.9654 44.6058 54.7547 44.6588 54.5306 44.6823ZM51.4142 40.3042L51.3297 39.4996L54.772 39.138L54.8565 39.9426L51.4142 40.3042ZM58.442 44.2715C57.9939 44.3185 57.5597 44.3024 57.1395 44.2229C56.7261 44.1428 56.3947 44.0266 56.1453 43.8743L56.4714 43.0575C56.7186 43.1895 57.0177 43.2919 57.3686 43.3649C57.7195 43.4378 58.0714 43.4558 58.4245 43.4187C58.8794 43.3709 59.1985 43.2722 59.3819 43.1225C59.572 42.9721 59.6549 42.7815 59.6307 42.5506C59.6128 42.3809 59.5378 42.2549 59.4056 42.1727C59.2734 42.0905 59.103 42.0363 58.8943 42.0102C58.6924 41.9833 58.4675 41.9658 58.2195 41.9575C57.9708 41.9425 57.7214 41.9206 57.4713 41.892C57.2205 41.8565 56.9878 41.7986 56.7735 41.7182C56.5584 41.6309 56.3801 41.5021 56.2386 41.3316C56.0964 41.1543 56.0089 40.9095 55.9761 40.5972C55.9419 40.2713 56.0036 39.9765 56.1612 39.7129C56.3189 39.4492 56.5573 39.2354 56.8764 39.0714C57.2016 38.9 57.5951 38.79 58.0567 38.7415C58.4098 38.7044 58.7709 38.7111 59.14 38.7616C59.5152 38.8045 59.8264 38.892 60.0736 39.0239L59.7374 39.8417C59.4759 39.7045 59.2095 39.6192 58.9383 39.5859C58.6671 39.5526 58.3991 39.5499 58.1343 39.5777C57.7065 39.6226 57.3949 39.7274 57.1994 39.8921C57.0032 40.05 56.9165 40.2376 56.9394 40.4548C56.9586 40.6382 57.0347 40.7743 57.1676 40.8633C57.3066 40.9448 57.4774 41.0024 57.68 41.036C57.8894 41.0689 58.1184 41.0929 58.3671 41.108C58.6151 41.1163 58.8645 41.1381 59.1153 41.1735C59.3655 41.2022 59.5943 41.2571 59.8019 41.3382C60.0163 41.4187 60.1942 41.5442 60.3357 41.7146C60.484 41.8844 60.5741 42.122 60.6062 42.4276C60.6405 42.7535 60.575 43.0452 60.4099 43.3028C60.2447 43.5604 59.9961 43.7753 59.6641 43.9474C59.3314 44.1128 58.9241 44.2208 58.442 44.2715ZM64.8672 43.5347L64.1183 36.4058L66.8986 36.1138C67.5233 36.0482 68.0666 36.0906 68.5286 36.2412C68.9906 36.3917 69.36 36.6412 69.6368 36.9896C69.9137 37.3381 70.0792 37.7703 70.1334 38.2863C70.1876 38.8023 70.1155 39.2595 69.9171 39.6579C69.718 40.0495 69.4081 40.3669 68.9875 40.6102C68.5669 40.8534 68.0442 41.0078 67.4196 41.0735L65.1995 41.3067L65.6085 40.7901L65.8856 43.4278L64.8672 43.5347ZM69.6334 43.0341L67.5489 40.6377L68.6386 40.5233L70.7435 42.9175L69.6334 43.0341ZM65.6192 40.8919L65.1085 40.441L67.2981 40.211C67.9499 40.1425 68.4275 39.9517 68.731 39.6383C69.0405 39.3175 69.1685 38.9025 69.115 38.3933C69.0615 37.8841 68.8504 37.5081 68.4817 37.2654C68.1198 37.022 67.6129 36.9345 66.9611 37.003L64.7715 37.233L65.1763 36.6757L65.6192 40.8919ZM74.5339 42.5811C73.9568 42.6417 73.4352 42.5764 72.9689 42.3851C72.5094 42.1931 72.1357 41.9029 71.8478 41.5144C71.5666 41.1252 71.3979 40.6624 71.3415 40.1261C71.2852 39.5897 71.3507 39.1023 71.538 38.6639C71.7322 38.2248 72.0208 37.8684 72.4039 37.5948C72.7931 37.3136 73.2457 37.146 73.7617 37.0918C74.2845 37.0368 74.7583 37.1038 75.1831 37.2925C75.6079 37.4813 75.9545 37.7744 76.2227 38.1718C76.4971 38.5617 76.6635 39.035 76.722 39.5918C76.7263 39.6325 76.7279 39.6804 76.7268 39.7354C76.7325 39.7897 76.7344 39.841 76.7326 39.8892L72.1396 40.3717L72.0658 39.669L76.1496 39.24L75.7781 39.5262C75.7485 39.1792 75.6448 38.8778 75.4669 38.6219C75.289 38.366 75.0598 38.1773 74.7793 38.0557C74.5049 37.9266 74.1946 37.8803 73.8483 37.9167C73.5089 37.9523 73.2149 38.0622 72.9666 38.2461C72.7175 38.4233 72.5328 38.6589 72.4127 38.953C72.2919 39.2403 72.25 39.5604 72.2871 39.9135L72.3042 40.0764C72.342 40.4363 72.4574 40.7502 72.6503 41.0182C72.8492 41.2788 73.1063 41.4714 73.4214 41.5962C73.7366 41.721 74.0876 41.763 74.4746 41.7224C74.7937 41.6889 75.0766 41.6042 75.3232 41.4685C75.5765 41.3321 75.7903 41.1449 75.9643 40.9069L76.5704 41.4816C76.356 41.7925 76.0733 42.0418 75.7223 42.2297C75.3782 42.4169 74.982 42.534 74.5339 42.5811ZM81.228 41.8779C80.7799 41.925 80.3585 41.8663 79.9637 41.7018C79.5749 41.5298 79.2471 41.252 78.9803 40.8681C78.7202 40.4836 78.5581 39.9858 78.4939 39.3747C78.4297 38.7637 78.4815 38.2434 78.6492 37.8139C78.8236 37.3837 79.0835 37.0476 79.4287 36.8054C79.7807 36.5625 80.1876 36.4167 80.6493 36.3682C81.1789 36.3126 81.6595 36.3788 82.0911 36.5669C82.5227 36.7549 82.8791 37.0435 83.1602 37.4327C83.4406 37.8151 83.6097 38.2813 83.6675 38.8313C83.7253 39.3812 83.6571 39.8757 83.463 40.3149C83.2688 40.754 82.9802 41.1104 82.5971 41.384C82.214 41.6576 81.7576 41.8223 81.228 41.8779ZM78.5674 44.0931L77.7929 36.7198L78.7298 36.6214L78.8828 38.0777L78.9533 39.3368L79.1867 40.5787L79.5451 43.9904L78.5674 44.0931ZM81.0567 41.031C81.403 40.9946 81.7037 40.8841 81.9589 40.6994C82.2208 40.514 82.4149 40.2705 82.5411 39.9689C82.6734 39.6599 82.7196 39.3152 82.6796 38.935C82.639 38.548 82.5226 38.2239 82.3304 37.9627C82.1443 37.6939 81.9038 37.4961 81.609 37.3692C81.3211 37.2415 81.0039 37.1959 80.6577 37.2323C80.3182 37.2679 80.0175 37.3785 79.7555 37.5639C79.5003 37.7486 79.3063 37.992 79.1733 38.2943C79.0464 38.5891 79.0032 38.93 79.0439 39.317C79.0838 39.6972 79.1972 40.025 79.384 40.3006C79.5769 40.5686 79.8174 40.7665 80.1053 40.8941C80.4001 41.021 80.7172 41.0666 81.0567 41.031ZM87.62 41.2064C87.0769 41.2635 86.5824 41.1953 86.1364 41.0019C85.6905 40.8085 85.3236 40.5175 85.0357 40.1291C84.7471 39.7338 84.5749 39.2714 84.5193 38.7418C84.463 38.2054 84.5352 37.7173 84.7362 37.2775C84.9371 36.8377 85.2359 36.4802 85.6326 36.2052C86.0286 35.9233 86.4981 35.7539 87.0413 35.6968C87.5776 35.6405 88.0688 35.709 88.5147 35.9024C88.9667 36.0883 89.3332 36.3759 89.6144 36.7651C89.9016 37.1467 90.0737 37.6092 90.1308 38.1523C90.1871 38.6887 90.1148 39.1768 89.9139 39.6166C89.7198 40.0557 89.4213 40.4166 89.0186 40.6991C88.6226 40.981 88.1564 41.1501 87.62 41.2064ZM87.5302 40.351C87.8764 40.3146 88.1772 40.2041 88.4323 40.0194C88.6943 39.834 88.8884 39.5905 89.0146 39.2889C89.1401 38.9806 89.1828 38.6363 89.1429 38.2561C89.1023 37.8691 88.9892 37.5446 88.8038 37.2827C88.6177 37.0139 88.3773 36.8161 88.0825 36.6891C87.7945 36.5615 87.4774 36.5159 87.1311 36.5523C86.7849 36.5886 86.4842 36.6992 86.229 36.8839C85.9738 37.0685 85.7797 37.312 85.6467 37.6143C85.513 37.9098 85.4665 38.251 85.5072 38.638C85.5471 39.0182 85.6639 39.3457 85.8575 39.6206C86.0504 39.8886 86.2908 40.0864 86.5788 40.2141C86.8668 40.3417 87.1839 40.3873 87.5302 40.351ZM91.7664 40.7091L91.1994 35.3115L92.1363 35.2131L92.2904 36.6796L92.1602 36.3226C92.2704 35.9335 92.4916 35.6219 92.824 35.3879C93.1563 35.154 93.5805 35.0099 94.0965 34.9557L94.196 35.9028C94.1546 35.9003 94.1135 35.9012 94.0727 35.9055C94.0388 35.909 94.0048 35.9126 93.9709 35.9161C93.4481 35.9711 93.0504 36.1707 92.7776 36.5151C92.5049 36.8595 92.3996 37.3271 92.4616 37.9178L92.7441 40.6064L91.7664 40.7091ZM97.9526 40.121C97.4094 40.1781 96.9732 40.0763 96.6438 39.8158C96.3144 39.5552 96.1211 39.1533 96.0641 38.6102L95.5442 33.6607L96.5218 33.558L97.0375 38.4668C97.0681 38.7587 97.163 38.9753 97.322 39.1164C97.4877 39.2569 97.7064 39.3129 97.978 39.2844C98.2835 39.2523 98.5292 39.1406 98.715 38.9495L99.0944 39.6201C98.9586 39.7648 98.7886 39.8788 98.5846 39.962C98.3873 40.0445 98.1767 40.0975 97.9526 40.121ZM94.8362 35.7429L94.7517 34.9383L98.1939 34.5767L98.2784 35.3813L94.8362 35.7429Z" fill="white"/>
<path d="M35.5403 86.3539L33.5291 67.2076L34.8327 67.0707L36.8439 86.2169L35.5403 86.3539ZM35.8099 84.0191C34.7236 84.1332 33.6677 84.0794 32.6422 83.8576C31.6153 83.6223 30.7888 83.2698 30.1629 82.8001L30.7496 81.1322C31.3427 81.5504 32.0766 81.8715 32.9513 82.0954C33.826 82.3192 34.7182 82.3834 35.628 82.2878C36.4563 82.2008 37.1185 82.0351 37.6145 81.7908C38.1106 81.5465 38.4637 81.2486 38.6739 80.897C38.8826 80.5319 38.9649 80.1388 38.9207 79.7179C38.8693 79.229 38.665 78.8524 38.3077 78.5879C37.964 78.3219 37.5249 78.1278 36.9904 78.0055C36.468 77.8682 35.8941 77.7637 35.2688 77.6921C34.6435 77.6205 34.0093 77.5292 33.3661 77.4183C32.7351 77.2924 32.1466 77.114 31.6006 76.883C31.0683 76.6507 30.621 76.3132 30.2587 75.8708C29.8951 75.4147 29.6733 74.8065 29.5934 74.0461C29.5164 73.3128 29.6359 72.6207 29.9519 71.9697C30.2801 71.3037 30.8255 70.7453 31.5881 70.2946C32.3629 69.8288 33.3749 69.5303 34.6242 69.399C35.4525 69.312 36.2854 69.3343 37.123 69.466C37.9606 69.5977 38.6995 69.8358 39.3397 70.1804L38.8387 71.8805C38.1849 71.5373 37.5092 71.3131 36.8118 71.2079C36.1128 71.0892 35.4443 71.0633 34.8061 71.1303C34.0049 71.2145 33.357 71.3855 32.8624 71.6434C32.3678 71.9013 32.0162 72.2128 31.8074 72.5779C31.6122 72.9417 31.5367 73.334 31.5809 73.7549C31.6337 74.2574 31.832 74.6415 32.1757 74.9075C32.5329 75.172 32.972 75.3661 33.493 75.4898C34.0276 75.6122 34.6082 75.7159 35.2349 75.8011C35.8602 75.8727 36.4877 75.9647 37.1173 76.077C37.7605 76.1879 38.3482 76.3596 38.8806 76.5919C39.4266 76.8229 39.8807 77.1596 40.2429 77.6021C40.6051 78.0445 40.8255 78.6392 40.9039 79.386C40.9795 80.1057 40.8533 80.7985 40.5251 81.4645C40.1955 82.1169 39.6365 82.6767 38.8481 83.144C38.0719 83.5962 37.0592 83.8879 35.8099 84.0191ZM45.3318 82.8541L43.9197 69.411L44.8961 70.2763L40.8021 70.7064L40.6159 68.9344L45.8506 68.3845L47.3483 82.6423L45.3318 82.8541ZM56.3095 81.8657C55.196 81.9827 54.168 81.8024 53.2255 81.3248C52.2966 80.8458 51.517 80.0902 50.8869 79.0581C50.2704 78.0245 49.8808 76.7338 49.7182 75.1858C49.5556 73.6378 49.6684 72.2943 50.0567 71.1552C50.4586 70.0146 51.0641 69.1136 51.8733 68.452C52.696 67.789 53.6641 67.399 54.7776 67.282C55.8774 67.1665 56.8987 67.3475 57.8412 67.8251C58.7837 68.3027 59.5633 69.0582 60.1798 70.0918C60.7963 71.1253 61.1859 72.4161 61.3485 73.9641C61.5111 75.5121 61.3983 76.8556 61.01 77.9947C60.6217 79.1338 60.0162 80.0348 59.1934 80.6979C58.3707 81.3609 57.4094 81.7502 56.3095 81.8657ZM56.1191 80.0529C56.8659 79.9745 57.4963 79.7023 58.0103 79.2365C58.5378 78.7692 58.9149 78.1118 59.1416 77.2643C59.382 76.4153 59.4386 75.3866 59.3117 74.178C59.1847 72.9695 58.9155 71.975 58.504 71.1945C58.1061 70.4126 57.6006 69.8479 56.9875 69.5004C56.388 69.1515 55.7148 69.0163 54.968 69.0948C54.2211 69.1732 53.584 69.4461 53.0564 69.9134C52.5289 70.3806 52.145 71.0388 51.9047 71.8877C51.678 72.7353 51.6281 73.7633 51.755 74.9718C51.882 76.1803 52.1444 77.1756 52.5423 77.9575C52.9538 78.738 53.4661 79.302 54.0792 79.6494C54.6923 79.9969 55.3723 80.1314 56.1191 80.0529ZM64.2324 83.9165L64.8186 79.6951L65.2075 80.8487C64.8137 80.89 64.4682 80.8028 64.1709 80.5869C63.8873 80.3695 63.7233 80.0504 63.6791 79.6295C63.6363 79.2221 63.7304 78.8759 63.9613 78.5908C64.2057 78.3042 64.5181 78.141 64.8983 78.1011C65.2921 78.0597 65.6254 78.162 65.8984 78.4079C66.1699 78.6402 66.3263 78.9533 66.3677 79.347C66.382 79.4828 66.3827 79.62 66.3698 79.7587C66.369 79.8823 66.3508 80.0353 66.315 80.2175C66.2914 80.3847 66.2449 80.5955 66.1755 80.8499L65.5156 83.7817L64.2324 83.9165ZM68.4034 80.4306L68.258 79.0455L73.4745 72.8344C73.9392 72.2914 74.2745 71.8237 74.4804 71.4314C74.6984 71.0241 74.8318 70.66 74.8805 70.3391C74.9413 70.0033 74.956 69.6859 74.9246 69.3872C74.8476 68.654 74.529 68.104 73.9687 67.7372C73.4085 67.3705 72.6328 67.2392 71.6415 67.3433C70.8811 67.4232 70.2089 67.6242 69.625 67.9464C69.0396 68.255 68.5507 68.6976 68.1582 69.2743L66.6469 68.218C67.1173 67.4685 67.7882 66.8626 68.6595 66.4004C69.5429 65.9232 70.5345 65.6268 71.6344 65.5112C72.6257 65.4071 73.5051 65.4795 74.2726 65.7284C75.0386 65.9636 75.6499 66.3593 76.1065 66.9154C76.5766 67.4701 76.8545 68.1548 76.9401 68.9696C76.9885 69.4313 76.9752 69.8926 76.9001 70.3535C76.825 70.8144 76.644 71.314 76.3573 71.852C76.0706 72.3901 75.641 73.005 75.0684 73.6967L70.4191 79.2304L69.8468 78.4873L78.4626 77.5823L78.6487 79.3543L68.4034 80.4306ZM79.3539 75.7383L79.2041 74.3125L85.516 64.2178L87.7158 63.9867L81.465 74.075L80.392 73.8582L91.7779 72.6622L91.9619 74.4138L79.3539 75.7383ZM87.6452 78.4093L87.2771 74.9059L87.1542 73.1478L86.829 70.0519L88.7436 69.8507L89.6209 78.2018L87.6452 78.4093ZM99.5563 77.3228C98.2934 77.4555 97.1847 77.2905 96.23 76.8279C95.2753 76.3653 94.5054 75.6362 93.9203 74.6406C93.3474 73.6299 92.981 72.3642 92.8213 70.8433C92.6515 69.2274 92.7933 67.8328 93.2467 66.6594C93.7 65.486 94.4059 64.5607 95.3644 63.8834C96.323 63.2061 97.4608 62.7983 98.7779 62.6599C99.4569 62.5886 100.109 62.5888 100.734 62.6604C101.373 62.7305 101.932 62.8847 102.41 63.1227L101.803 64.7928C101.409 64.5733 100.969 64.441 100.484 64.3959C100.013 64.3493 99.5187 64.3531 99.0027 64.4073C97.5497 64.56 96.4433 65.1361 95.6834 66.1357C94.9221 67.1218 94.6349 68.5043 94.8217 70.2831C94.8517 70.5683 94.9009 70.9063 94.9694 71.2972C95.038 71.6882 95.1465 72.068 95.2951 72.4368L94.5298 71.8171C94.6679 71.171 94.9321 70.6147 95.3224 70.1481C95.7248 69.6665 96.2209 69.2918 96.8105 69.0239C97.4123 68.7411 98.0731 68.5618 98.7928 68.4862C99.7433 68.3864 100.604 68.4745 101.374 68.7505C102.144 69.0265 102.774 69.4683 103.264 70.0759C103.752 70.6699 104.042 71.4082 104.135 72.2908C104.23 73.2006 104.09 74.0185 103.713 74.7445C103.336 75.4705 102.787 76.0568 102.065 76.5033C101.343 76.9498 100.507 77.223 99.5563 77.3228ZM99.3015 75.6816C99.9261 75.6159 100.457 75.4435 100.895 75.1641C101.346 74.8834 101.685 74.525 101.914 74.0891C102.142 73.6397 102.226 73.1366 102.168 72.5798C102.079 71.7379 101.717 71.1032 101.082 70.6757C100.445 70.2346 99.6247 70.0669 98.6198 70.1724C97.968 70.2409 97.4106 70.423 96.9474 70.7188C96.4842 71.0146 96.1322 71.3879 95.8912 71.8388C95.6624 72.2747 95.5759 72.7574 95.6315 73.287C95.6828 73.7758 95.8596 74.2172 96.1619 74.611C96.4626 74.9913 96.8778 75.284 97.4073 75.4893C97.9368 75.6945 98.5682 75.7586 99.3015 75.6816Z" fill="white"/>
<path d="M38.2951 131.462C37.7383 131.52 37.2243 131.43 36.7531 131.192C36.2886 130.952 35.8988 130.574 35.5838 130.058C35.2755 129.541 35.0807 128.896 34.9994 128.122C34.9181 127.348 34.9745 126.676 35.1687 126.107C35.3696 125.536 35.6724 125.086 36.0769 124.755C36.4883 124.424 36.9724 124.229 37.5291 124.17C38.079 124.112 38.5896 124.203 39.0609 124.442C39.5322 124.68 39.9219 125.058 40.2302 125.575C40.5385 126.092 40.7333 126.737 40.8146 127.511C40.8959 128.285 40.8395 128.957 40.6453 129.526C40.4511 130.096 40.1484 130.547 39.737 130.878C39.3257 131.21 38.845 131.404 38.2951 131.462ZM38.1999 130.556C38.5733 130.516 38.8885 130.38 39.1454 130.147C39.4092 129.914 39.5978 129.585 39.7111 129.161C39.8313 128.737 39.8596 128.222 39.7962 127.618C39.7327 127.014 39.5981 126.517 39.3923 126.126C39.1934 125.735 38.9406 125.453 38.6341 125.279C38.3343 125.105 37.9977 125.037 37.6243 125.077C37.2509 125.116 36.9323 125.252 36.6685 125.486C36.4048 125.719 36.2128 126.049 36.0927 126.473C35.9793 126.897 35.9544 127.411 36.0178 128.015C36.0813 128.619 36.2125 129.117 36.4115 129.508C36.6172 129.898 36.8733 130.18 37.1799 130.354C37.4865 130.528 37.8264 130.595 38.1999 130.556Z" fill="white"/>
<path d="M152.252 118.855L151.546 112.134L152.034 112.566L149.987 112.781L149.894 111.895L152.511 111.62L153.26 118.749L152.252 118.855ZM157.741 118.361C157.184 118.419 156.67 118.329 156.199 118.09C155.734 117.851 155.344 117.473 155.029 116.957C154.721 116.44 154.526 115.795 154.445 115.021C154.364 114.247 154.42 113.575 154.614 113.006C154.815 112.435 155.118 111.985 155.522 111.654C155.934 111.323 156.418 111.128 156.975 111.069C157.525 111.011 158.035 111.102 158.506 111.341C158.978 111.579 159.367 111.957 159.676 112.474C159.984 112.991 160.179 113.636 160.26 114.41C160.341 115.184 160.285 115.856 160.091 116.425C159.897 116.995 159.594 117.445 159.183 117.777C158.771 118.109 158.291 118.303 157.741 118.361ZM157.645 117.455C158.019 117.415 158.334 117.279 158.591 117.046C158.855 116.813 159.043 116.484 159.157 116.06C159.277 115.636 159.305 115.121 159.242 114.517C159.178 113.913 159.044 113.416 158.838 113.025C158.639 112.634 158.386 112.352 158.08 112.178C157.78 112.004 157.443 111.936 157.07 111.975C156.696 112.015 156.378 112.151 156.114 112.385C155.85 112.618 155.658 112.947 155.538 113.372C155.425 113.796 155.4 114.31 155.463 114.914C155.527 115.518 155.658 116.016 155.857 116.407C156.063 116.797 156.319 117.079 156.625 117.253C156.932 117.427 157.272 117.494 157.645 117.455ZM164.533 117.647C163.977 117.706 163.463 117.616 162.991 117.377C162.527 117.137 162.137 116.76 161.822 116.244C161.514 115.727 161.319 115.081 161.238 114.307C161.156 113.533 161.213 112.862 161.407 112.292C161.608 111.722 161.911 111.271 162.315 110.941C162.727 110.609 163.211 110.414 163.767 110.356C164.317 110.298 164.828 110.388 165.299 110.627C165.77 110.866 166.16 111.244 166.468 111.76C166.777 112.277 166.972 112.923 167.053 113.697C167.134 114.471 167.078 115.142 166.884 115.712C166.689 116.281 166.387 116.732 165.975 117.063C165.564 117.395 165.083 117.59 164.533 117.647ZM164.438 116.741C164.812 116.702 165.127 116.566 165.384 116.333C165.647 116.099 165.836 115.77 165.949 115.347C166.07 114.922 166.098 114.408 166.034 113.804C165.971 113.199 165.836 112.702 165.631 112.312C165.432 111.921 165.179 111.638 164.872 111.465C164.573 111.29 164.236 111.223 163.863 111.262C163.489 111.301 163.171 111.438 162.907 111.671C162.643 111.905 162.451 112.234 162.331 112.658C162.218 113.082 162.193 113.596 162.256 114.2C162.32 114.805 162.451 115.302 162.65 115.693C162.855 116.084 163.112 116.365 163.418 116.539C163.725 116.713 164.065 116.78 164.438 116.741Z" fill="white"/>
<path d="M98.4245 125.438C97.922 125.49 97.425 125.464 96.9333 125.357C96.4485 125.251 96.0427 125.08 95.7162 124.847L96.1001 123.993C96.3613 124.192 96.6895 124.343 97.0847 124.446C97.4799 124.548 97.8913 124.577 98.3191 124.532C98.8622 124.475 99.2676 124.316 99.5353 124.054C99.803 123.793 99.9166 123.469 99.8759 123.082C99.8481 122.817 99.7593 122.593 99.6097 122.41C99.46 122.226 99.2202 122.1 98.8904 122.032C98.5667 121.956 98.1299 121.947 97.5799 122.005L95.9606 122.175L95.9459 118.408L99.9687 117.985L100.062 118.872L96.4158 119.255L96.893 118.7L96.9068 121.674L96.3259 121.241L97.7007 121.096C98.4136 121.022 98.997 121.053 99.4507 121.191C99.9045 121.328 100.247 121.55 100.478 121.855C100.709 122.153 100.846 122.513 100.89 122.934C100.933 123.341 100.874 123.725 100.712 124.085C100.55 124.439 100.28 124.738 99.9007 124.984C99.5276 125.222 99.0355 125.373 98.4245 125.438ZM104.883 124.759C104.327 124.818 103.813 124.727 103.341 124.489C102.877 124.249 102.487 123.871 102.172 123.355C101.864 122.839 101.669 122.193 101.588 121.419C101.506 120.645 101.563 119.973 101.757 119.404C101.958 118.834 102.261 118.383 102.665 118.052C103.077 117.721 103.561 117.526 104.117 117.467C104.667 117.41 105.178 117.5 105.649 117.739C106.121 117.978 106.51 118.355 106.819 118.872C107.127 119.389 107.322 120.034 107.403 120.808C107.484 121.582 107.428 122.254 107.234 122.824C107.04 123.393 106.737 123.844 106.325 124.175C105.914 124.507 105.433 124.701 104.883 124.759ZM104.788 123.853C105.162 123.814 105.477 123.677 105.734 123.445C105.998 123.211 106.186 122.882 106.3 122.458C106.42 122.034 106.448 121.52 106.385 120.915C106.321 120.311 106.186 119.814 105.981 119.424C105.782 119.033 105.529 118.75 105.222 118.577C104.923 118.402 104.586 118.334 104.213 118.374C103.839 118.413 103.521 118.549 103.257 118.783C102.993 119.017 102.801 119.346 102.681 119.77C102.568 120.194 102.543 120.708 102.606 121.312C102.67 121.916 102.801 122.414 103 122.805C103.206 123.195 103.462 123.477 103.768 123.651C104.075 123.825 104.415 123.892 104.788 123.853Z" fill="white"/>
<path d="M125.541 71.0742C124.91 71.1406 124.355 71.0581 123.878 70.8268C123.401 70.5955 123.016 70.2309 122.723 69.7331C122.437 69.2278 122.254 68.5949 122.174 67.8345C122.089 67.0265 122.16 66.3292 122.386 65.7425C122.613 65.1558 122.966 64.6932 123.445 64.3545C123.925 64.0159 124.493 63.812 125.152 63.7428C125.492 63.7071 125.818 63.7072 126.13 63.743C126.45 63.7781 126.729 63.8551 126.968 63.9742L126.664 64.8092C126.468 64.6995 126.248 64.6333 126.005 64.6107C125.769 64.5875 125.522 64.5894 125.264 64.6165C124.538 64.6928 123.985 64.9809 123.605 65.4807C123.224 65.9737 123.081 66.6649 123.174 67.5544C123.189 67.6969 123.214 67.866 123.248 68.0614C123.282 68.2569 123.336 68.4468 123.411 68.6312L123.028 68.3213C123.097 67.9983 123.229 67.7202 123.424 67.4869C123.625 67.2461 123.874 67.0587 124.168 66.9248C124.469 66.7833 124.8 66.6937 125.159 66.6559C125.635 66.606 126.065 66.65 126.45 66.7881C126.835 66.9261 127.15 67.147 127.395 67.4507C127.639 67.7477 127.784 68.1169 127.83 68.5582C127.878 69.0131 127.808 69.4221 127.62 69.7851C127.431 70.1481 127.156 70.4412 126.796 70.6645C126.435 70.8877 126.016 71.0243 125.541 71.0742ZM125.414 70.2536C125.726 70.2208 125.992 70.1345 126.21 69.9949C126.436 69.8545 126.606 69.6753 126.72 69.4574C126.834 69.2326 126.876 68.9811 126.847 68.7027C126.803 68.2818 126.622 67.9644 126.304 67.7507C125.986 67.5301 125.575 67.4462 125.073 67.499C124.747 67.5333 124.468 67.6243 124.237 67.7722C124.005 67.9201 123.829 68.1068 123.709 68.3322C123.594 68.5502 123.551 68.7915 123.579 69.0563C123.604 69.3007 123.693 69.5214 123.844 69.7183C123.994 69.9085 124.202 70.0548 124.467 70.1574C124.731 70.2601 125.047 70.2921 125.414 70.2536ZM129.133 72.1385L129.426 70.0278L129.62 70.6045C129.423 70.6252 129.251 70.5816 129.102 70.4737C128.96 70.365 128.878 70.2054 128.856 69.995C128.835 69.7913 128.882 69.6182 128.997 69.4756C129.119 69.3323 129.276 69.2507 129.466 69.2308C129.663 69.2101 129.829 69.2612 129.966 69.3842C130.102 69.5003 130.18 69.6568 130.2 69.8537C130.208 69.9216 130.208 69.9902 130.201 70.0596C130.201 70.1214 130.192 70.1978 130.174 70.289C130.162 70.3726 130.139 70.478 130.104 70.6052L129.774 72.0711L129.133 72.1385ZM133.541 70.2339C133.039 70.2867 132.542 70.2599 132.05 70.1537C131.565 70.0467 131.159 69.8766 130.833 69.6432L131.217 68.7894C131.478 68.9885 131.806 69.1394 132.201 69.242C132.596 69.3446 133.008 69.3735 133.436 69.3286C133.979 69.2715 134.384 69.1122 134.652 68.8507C134.92 68.5892 135.033 68.2649 134.992 67.8779C134.965 67.6132 134.876 67.3891 134.726 67.2057C134.577 67.0224 134.337 66.8966 134.007 66.8283C133.683 66.7524 133.246 66.7434 132.697 66.8012L131.077 66.9713L131.062 63.2043L135.085 62.7817L135.178 63.6677L131.532 64.0507L132.01 63.4961L132.023 66.4703L131.442 66.0371L132.817 65.8927C133.53 65.8178 134.114 65.8492 134.567 65.9869C135.021 66.1245 135.364 66.346 135.595 66.6512C135.825 66.9496 135.962 67.3093 136.007 67.7302C136.049 68.1376 135.99 68.5214 135.829 68.8815C135.667 69.2349 135.396 69.5344 135.017 69.7802C134.644 70.0185 134.152 70.1697 133.541 70.2339ZM139.217 69.6376C138.715 69.6904 138.218 69.6637 137.726 69.5575C137.241 69.4505 136.835 69.2803 136.509 69.0469L136.893 68.1932C137.154 68.3923 137.482 68.5431 137.877 68.6458C138.272 68.7484 138.687 68.7769 139.122 68.7312C139.651 68.6756 140.05 68.5204 140.319 68.2657C140.593 68.0035 140.71 67.6789 140.67 67.2919C140.63 66.9185 140.456 66.6347 140.148 66.4406C139.845 66.239 139.388 66.1703 138.777 66.2345L138.207 66.2944L138.132 65.5815L139.976 62.7518L140.162 63.1442L136.261 63.554L136.168 62.668L140.873 62.1737L140.946 62.8662L139.111 65.6846L138.548 65.4246L138.884 65.3893C139.746 65.2987 140.412 65.4244 140.88 65.7665C141.355 66.1078 141.624 66.5773 141.687 67.1747C141.729 67.5753 141.669 67.9523 141.507 68.3056C141.345 68.659 141.074 68.9552 140.694 69.1941C140.321 69.4256 139.828 69.5734 139.217 69.6376ZM143.735 69.0806L147.855 61.4403L148.639 61.358L144.52 68.9983L143.735 69.0806ZM143.959 65.7211C143.633 65.7553 143.336 65.7041 143.068 65.5676C142.799 65.431 142.579 65.2242 142.405 64.9473C142.239 64.6696 142.135 64.3373 142.095 63.9503C142.054 63.5633 142.086 63.2167 142.191 62.9104C142.303 62.6035 142.476 62.3554 142.71 62.1661C142.944 61.9767 143.224 61.8649 143.55 61.8307C143.883 61.7958 144.18 61.8469 144.442 61.9842C144.71 62.1207 144.927 62.3279 145.094 62.6055C145.26 62.8832 145.364 63.2156 145.405 63.6026C145.445 63.9896 145.413 64.3362 145.308 64.6424C145.203 64.9486 145.033 65.1964 144.799 65.3857C144.572 65.5743 144.292 65.6861 143.959 65.7211ZM143.898 65.1406C144.21 65.1077 144.442 64.9633 144.594 64.7071C144.745 64.4441 144.798 64.0988 144.753 63.671C144.708 63.2433 144.585 62.9199 144.383 62.7008C144.181 62.4749 143.924 62.3784 143.611 62.4112C143.306 62.4433 143.074 62.5912 142.917 62.8549C142.765 63.111 142.712 63.453 142.757 63.8807C142.801 64.3017 142.924 64.6251 143.126 64.851C143.335 65.0761 143.593 65.1727 143.898 65.1406ZM148.824 68.6079C148.498 68.6421 148.201 68.591 147.932 68.4544C147.664 68.3179 147.447 68.1107 147.28 67.8331C147.114 67.5554 147.01 67.223 146.969 66.836C146.929 66.449 146.961 66.1024 147.066 65.7962C147.171 65.49 147.341 65.2422 147.575 65.0529C147.809 64.8636 148.089 64.7518 148.415 64.7176C148.748 64.6826 149.045 64.7338 149.306 64.871C149.575 65.0076 149.792 65.2147 149.959 65.4924C150.132 65.7694 150.239 66.1014 150.279 66.4884C150.32 66.8754 150.284 67.2223 150.172 67.5292C150.067 67.8354 149.898 68.0832 149.664 68.2726C149.436 68.4612 149.156 68.573 148.824 68.6079ZM148.763 68.0274C149.068 67.9953 149.297 67.8512 149.448 67.595C149.606 67.3313 149.662 66.9856 149.617 66.5579C149.573 66.1369 149.447 65.8139 149.238 65.5887C149.035 65.3628 148.781 65.266 148.476 65.2981C148.17 65.3301 147.939 65.478 147.781 65.7417C147.63 65.9979 147.576 66.3398 147.621 66.7676C147.666 67.1953 147.79 67.5221 147.992 67.748C148.2 67.9664 148.457 68.0595 148.763 68.0274Z" fill="#00A9FD" fill-opacity="0.7"/>
<path d="M116.205 63.7582C115.984 63.579 115.659 63.6131 115.48 63.8344L112.558 67.4417C112.379 67.663 112.413 67.9878 112.634 68.1671C112.856 68.3463 113.18 68.3122 113.36 68.0909L115.957 64.8844L119.163 67.4813C119.384 67.6605 119.709 67.6264 119.888 67.4051C120.068 67.1837 120.034 66.8589 119.812 66.6797L116.205 63.7582ZM116.721 72.1609L117.234 72.107L116.393 64.1052L115.88 64.159L115.367 64.2129L116.208 72.2148L116.721 72.1609Z" fill="#00A9FD" fill-opacity="0.7"/>
<path d="M152.539 31.4362L158.174 23.0021M158.174 23.0021L152.37 23.6118M158.174 23.0021L158.907 29.9831" stroke="white" stroke-width="1.09716" stroke-linecap="round" stroke-linejoin="round"/>
<defs>
<linearGradient id="paint0_linear_1_1658" x1="39.4195" y1="141.326" x2="41.3671" y2="157.305" gradientUnits="userSpaceOnUse">
<stop stop-color="#6EC7FF"/>
<stop offset="1" stop-color="#0065FD"/>
</linearGradient>
<linearGradient id="paint1_linear_1_1658" x1="36.0005" y1="141.684" x2="37.9482" y2="157.664" gradientUnits="userSpaceOnUse">
<stop stop-color="#6EC7FF"/>
<stop offset="1" stop-color="#0065FD"/>
</linearGradient>
<linearGradient id="paint2_linear_1_1658" x1="42.8338" y1="140.967" x2="44.7814" y2="156.946" gradientUnits="userSpaceOnUse">
<stop stop-color="#6EC7FF"/>
<stop offset="1" stop-color="#0065FD"/>
</linearGradient>
<linearGradient id="paint3_linear_1_1658" x1="49.668" y1="140.249" x2="51.6156" y2="156.228" gradientUnits="userSpaceOnUse">
<stop stop-color="#6EC7FF"/>
<stop offset="1" stop-color="#0065FD"/>
</linearGradient>
<linearGradient id="paint4_linear_1_1658" x1="46.2537" y1="140.608" x2="48.2013" y2="156.587" gradientUnits="userSpaceOnUse">
<stop stop-color="#6EC7FF"/>
<stop offset="1" stop-color="#0065FD"/>
</linearGradient>
<linearGradient id="paint5_linear_1_1658" x1="53.087" y1="139.889" x2="55.0346" y2="155.869" gradientUnits="userSpaceOnUse">
<stop stop-color="#6EC7FF"/>
<stop offset="1" stop-color="#0065FD"/>
</linearGradient>
<linearGradient id="paint6_linear_1_1658" x1="59.9214" y1="139.171" x2="61.8691" y2="155.151" gradientUnits="userSpaceOnUse">
<stop stop-color="#6EC7FF"/>
<stop offset="1" stop-color="#0065FD"/>
</linearGradient>
<linearGradient id="paint7_linear_1_1658" x1="56.5025" y1="139.53" x2="58.4501" y2="155.51" gradientUnits="userSpaceOnUse">
<stop stop-color="#6EC7FF"/>
<stop offset="1" stop-color="#0065FD"/>
</linearGradient>
<linearGradient id="paint8_linear_1_1658" x1="63.3367" y1="138.812" x2="65.2844" y2="154.792" gradientUnits="userSpaceOnUse">
<stop stop-color="#6EC7FF"/>
<stop offset="1" stop-color="#0065FD"/>
</linearGradient>
<linearGradient id="paint9_linear_1_1658" x1="70.1714" y1="138.095" x2="72.1191" y2="154.074" gradientUnits="userSpaceOnUse">
<stop stop-color="#6EC7FF"/>
<stop offset="1" stop-color="#0065FD"/>
</linearGradient>
<linearGradient id="paint10_linear_1_1658" x1="66.7549" y1="138.454" x2="68.7026" y2="154.433" gradientUnits="userSpaceOnUse">
<stop stop-color="#6EC7FF"/>
<stop offset="1" stop-color="#0065FD"/>
</linearGradient>
<linearGradient id="paint11_linear_1_1658" x1="73.5884" y1="137.736" x2="75.5361" y2="153.716" gradientUnits="userSpaceOnUse">
<stop stop-color="#6EC7FF"/>
<stop offset="1" stop-color="#0065FD"/>
</linearGradient>
<linearGradient id="paint12_linear_1_1658" x1="80.4229" y1="137.018" x2="82.3705" y2="152.998" gradientUnits="userSpaceOnUse">
<stop stop-color="#6EC7FF"/>
<stop offset="1" stop-color="#0065FD"/>
</linearGradient>
<linearGradient id="paint13_linear_1_1658" x1="77.0076" y1="137.377" x2="78.9552" y2="153.357" gradientUnits="userSpaceOnUse">
<stop stop-color="#6EC7FF"/>
<stop offset="1" stop-color="#0065FD"/>
</linearGradient>
<linearGradient id="paint14_linear_1_1658" x1="83.8411" y1="136.658" x2="85.7887" y2="152.638" gradientUnits="userSpaceOnUse">
<stop stop-color="#6EC7FF"/>
<stop offset="1" stop-color="#0065FD"/>
</linearGradient>
<linearGradient id="paint15_linear_1_1658" x1="90.6756" y1="135.941" x2="92.6232" y2="151.92" gradientUnits="userSpaceOnUse">
<stop stop-color="#6EC7FF"/>
<stop offset="1" stop-color="#0065FD"/>
</linearGradient>
<linearGradient id="paint16_linear_1_1658" x1="87.2566" y1="136.3" x2="89.2043" y2="152.279" gradientUnits="userSpaceOnUse">
<stop stop-color="#6EC7FF"/>
<stop offset="1" stop-color="#0065FD"/>
</linearGradient>
<linearGradient id="paint17_linear_1_1658" x1="94.0909" y1="135.582" x2="96.6126" y2="159.587" gradientUnits="userSpaceOnUse">
<stop stop-color="white"/>
<stop offset="1" stop-color="#999999"/>
</linearGradient>
<linearGradient id="paint18_linear_1_1658" x1="100.924" y1="134.864" x2="103.446" y2="158.87" gradientUnits="userSpaceOnUse">
<stop stop-color="white"/>
<stop offset="1" stop-color="#999999"/>
</linearGradient>
<linearGradient id="paint19_linear_1_1658" x1="97.5093" y1="135.223" x2="100.031" y2="159.229" gradientUnits="userSpaceOnUse">
<stop stop-color="white"/>
<stop offset="1" stop-color="#999999"/>
</linearGradient>
<linearGradient id="paint20_linear_1_1658" x1="107.761" y1="134.146" x2="110.282" y2="158.152" gradientUnits="userSpaceOnUse">
<stop stop-color="white"/>
<stop offset="1" stop-color="#999999"/>
</linearGradient>
<linearGradient id="paint21_linear_1_1658" x1="104.343" y1="134.505" x2="106.865" y2="158.511" gradientUnits="userSpaceOnUse">
<stop stop-color="white"/>
<stop offset="1" stop-color="#999999"/>
</linearGradient>
<linearGradient id="paint22_linear_1_1658" x1="111.177" y1="133.788" x2="113.699" y2="157.793" gradientUnits="userSpaceOnUse">
<stop stop-color="white"/>
<stop offset="1" stop-color="#999999"/>
</linearGradient>
<linearGradient id="paint23_linear_1_1658" x1="118.011" y1="133.069" x2="120.532" y2="157.074" gradientUnits="userSpaceOnUse">
<stop stop-color="white"/>
<stop offset="1" stop-color="#999999"/>
</linearGradient>
<linearGradient id="paint24_linear_1_1658" x1="114.596" y1="133.428" x2="117.118" y2="157.433" gradientUnits="userSpaceOnUse">
<stop stop-color="white"/>
<stop offset="1" stop-color="#999999"/>
</linearGradient>
<linearGradient id="paint25_linear_1_1658" x1="121.43" y1="132.71" x2="123.952" y2="156.716" gradientUnits="userSpaceOnUse">
<stop stop-color="white"/>
<stop offset="1" stop-color="#999999"/>
</linearGradient>
<linearGradient id="paint26_linear_1_1658" x1="128.265" y1="131.993" x2="130.786" y2="155.998" gradientUnits="userSpaceOnUse">
<stop stop-color="white"/>
<stop offset="1" stop-color="#999999"/>
</linearGradient>
<linearGradient id="paint27_linear_1_1658" x1="124.846" y1="132.351" x2="127.367" y2="156.357" gradientUnits="userSpaceOnUse">
<stop stop-color="white"/>
<stop offset="1" stop-color="#999999"/>
</linearGradient>
<linearGradient id="paint28_linear_1_1658" x1="131.679" y1="131.634" x2="134.2" y2="155.639" gradientUnits="userSpaceOnUse">
<stop stop-color="white"/>
<stop offset="1" stop-color="#999999"/>
</linearGradient>
<linearGradient id="paint29_linear_1_1658" x1="138.513" y1="130.916" x2="141.034" y2="154.921" gradientUnits="userSpaceOnUse">
<stop stop-color="white"/>
<stop offset="1" stop-color="#999999"/>
</linearGradient>
<linearGradient id="paint30_linear_1_1658" x1="135.099" y1="131.275" x2="137.621" y2="155.28" gradientUnits="userSpaceOnUse">
<stop stop-color="white"/>
<stop offset="1" stop-color="#999999"/>
</linearGradient>
<linearGradient id="paint31_linear_1_1658" x1="141.931" y1="130.557" x2="144.453" y2="154.563" gradientUnits="userSpaceOnUse">
<stop stop-color="white"/>
<stop offset="1" stop-color="#999999"/>
</linearGradient>
<linearGradient id="paint32_linear_1_1658" x1="148.765" y1="129.838" x2="151.287" y2="153.844" gradientUnits="userSpaceOnUse">
<stop stop-color="white"/>
<stop offset="1" stop-color="#999999"/>
</linearGradient>
<linearGradient id="paint33_linear_1_1658" x1="145.35" y1="130.197" x2="147.872" y2="154.203" gradientUnits="userSpaceOnUse">
<stop stop-color="white"/>
<stop offset="1" stop-color="#999999"/>
</linearGradient>
<linearGradient id="paint34_linear_1_1658" x1="152.186" y1="129.479" x2="154.707" y2="153.485" gradientUnits="userSpaceOnUse">
<stop stop-color="white"/>
<stop offset="1" stop-color="#999999"/>
</linearGradient>
<linearGradient id="paint35_linear_1_1658" x1="159.019" y1="128.762" x2="161.541" y2="152.767" gradientUnits="userSpaceOnUse">
<stop stop-color="white"/>
<stop offset="1" stop-color="#999999"/>
</linearGradient>
<linearGradient id="paint36_linear_1_1658" x1="155.599" y1="129.121" x2="158.121" y2="153.126" gradientUnits="userSpaceOnUse">
<stop stop-color="white"/>
<stop offset="1" stop-color="#999999"/>
</linearGradient>
<linearGradient id="paint37_linear_1_1658" x1="162.433" y1="128.403" x2="164.955" y2="152.409" gradientUnits="userSpaceOnUse">
<stop stop-color="white"/>
<stop offset="1" stop-color="#999999"/>
</linearGradient>
<linearGradient id="paint38_linear_1_1658" x1="169.267" y1="127.685" x2="171.789" y2="151.691" gradientUnits="userSpaceOnUse">
<stop stop-color="white"/>
<stop offset="1" stop-color="#999999"/>
</linearGradient>
<linearGradient id="paint39_linear_1_1658" x1="165.854" y1="128.044" x2="168.375" y2="152.05" gradientUnits="userSpaceOnUse">
<stop stop-color="white"/>
<stop offset="1" stop-color="#999999"/>
</linearGradient>
</defs>
</svg>
